<svg xmlns="http://www.w3.org/2000/svg" xml:space="preserve" id="Layer_1" x="0" y="0" version="1.1" viewBox="0 0 665 665"><style>.st55{fill:#2db3d9}.st56{fill:#f39f87}.st57{fill:#a0d4e3}.st58{fill:#fefefd}.st59{fill:#1d1936}.st60{fill:#e44847}.st61{fill:#423585}.st62{fill:#3760a4}</style><g id="Virtual_Meeting"><path d="M559.638 353.437c0 148.355-140.183 255.732-282.733 218.943C179.45 547.24 107.45 458.748 107.45 353.437c0-124.869 101.228-226.091 226.097-226.091 124.863 0 226.091 101.222 226.091 226.091" class="st55"/><ellipse cx="489.639" cy="333.569" class="st58" rx="37.323" ry="8.634" transform="rotate(-6.681 489.638 333.569)"/><path d="M504.074 310.164c.134.401 2.671 19.506 2.671 19.506l-35.973 3.899-3.333-19.88z" class="st59"/><path d="M249.926 484.595c-.165 1.275-.48 1.654-1.73 2.055-5.233 1.657-10.079 3.403-15.638 4.089-22.077 2.726-49.335-3.856-77.402-26.235-5.122-4.088-9.361-8.62-13.741-13.477-24.583-27.21-16.354-22.28-34.046-37.607-2.443-2.117-5.273-4.29-6.829-7.187-.357-.656-.26-.926.169-1.37 7.221-7.502 14.448-15.01 22.012-22.17 6.355-6.01 8.781-6.856 17.032-7.485 3.257-.247 5.688.5 8.698 1.65 1.571.608 1.912 1.09 2.516 2.578 3.88 9.681 3.942 18.026.387 27.847 2.999 4.885 8.002 8.159 13.056 10.86 15.56 8.322 33.203 12.719 50.847 12.674 5.02-.011 10.298-.191 15.296-.943 5.66 7.378 9.434 15.998 12.966 24.6 3.055 7.424 6.003 15.207 6.576 23.108.168 2.33.134 4.672-.169 7.013" class="st56"/><path d="M249.926 484.595c-.165 1.275-.48 1.654-1.73 2.055-5.233 1.657-10.079 3.403-15.638 4.089-22.077 2.726-49.335-3.856-77.402-26.235-5.122-4.088-9.361-8.62-13.741-13.477-24.583-27.21-16.354-22.28-34.046-37.607-2.443-2.117-5.273-4.29-6.829-7.187-.357-.656-.26-.926.169-1.37 7.221-7.502 14.448-15.01 22.012-22.17 4.501-4.257 7.14-6.267 12.831-7.075l7.924 9.304c1.28 7.452 1.437 15.274-1.011 22.428-2.448 7.16-7.789 13.578-14.948 16.02 26.479 39.271 73.48 61.236 122.578 54.212.168 2.33.134 4.672-.169 7.013" class="st60"/><path d="M237.301 414.864c-8.44 8.652-8.225 8.292-8.27 8.798-.031.359.195.684.409.973 12.745 17.26 21.528 37.058 30.21 56.678a496 496 0 0 0 39.463-32.583c6.735-6.171.975-17.159-3.657-25.033-10.526-17.894-29.464-27.856-48.807-34.917" class="st62"/><path d="M268.031 480.095a43.1 43.1 0 0 1-18.403 9.556c-9.935-21.745-19.95-43.403-30.305-64.953a83.4 83.4 0 0 1 12.247-7.259c.798-.385 1.16-.341 1.756.452 3.95 5.257 7.41 11.055 11.028 16.556a249 249 0 0 1 16.379 28.931c.779 1.62 8.214 15.89 7.298 16.717" class="st58"/><path d="M223.295 401.42c-22.928-8.04-43.604-21.647-58.282-41.21-18.108-24.14-24.992-32.15-36.478-60.439-2.622-6.44-5.098-12.943-7.636-19.412-1.387-3.527-3.954-5.531-6.183-8.597-4.717-6.475-7.755-14.157-8.833-22.091-1.01-7.452-.152-19.89 10.939-16.397 2.41.763 4.61 2.014 7.03 2.645 1.882.484 2.298.563 3.375 2.358 37.819 62.957 68.11 70.505 94.024 101.172z" class="st56"/><path d="M149.211 270.173c-5.21-1.879-10.512-2.551-15.981-1.893-2.42.292-4.857.842-7.266.466-5.535-.86-10.97-6.988-13.562-11.994-1.97-3.819-.398-8.17 1.41-12.073a40.6 40.6 0 0 1 6.598-10.001c5.115 2.162 5.204.912 6.817 3.6 6.733 11.207 13.982 21.86 21.984 31.895m74.081 131.247c-22.927-8.04-43.603-21.647-58.281-41.21-18.116-24.15-24.996-32.159-36.478-60.439 25.822 39.466 34.716 56.696 94.445 92.16z" class="st60"/><path d="m283.64 362.147-.943 27.897c-.044.172-12.243 47.706-14.122 55.036-18.997-14.09-38.01-28.206-55.856-43.727-1.191-1.053-1.398-1.569-.876-3.212 1.718-5.47 3.43-10.939 5.149-16.408q6.124-19.524 12.258-39.05c17.543 8.081 35.344 16.24 54.39 19.464" class="st62"/><path d="M281.086 396.333c-4.172 16.25-8.345 32.496-12.511 48.747-18.997-14.09-38.01-28.206-55.856-43.727-1.191-1.053-1.398-1.569-.876-3.212 1.718-5.47 3.43-10.939 5.149-16.408l8.232 2.47a857 857 0 0 0 34.697 31.205 501 501 0 0 1 18.643-27.902c1.202 2.818 1.904 5.817 2.522 8.827" class="st61"/><path d="M213.378 348.19c1.088-2.08 6.629-13.19 7.92-13.762 1.391-.615 4.559 2.432 5.634 3.137a98 98 0 0 0 6.062 3.658c.434.242 7.194 3.938 7.172 3.983A1280 1280 0 0 1 218.8 407.8c-7.943-3.44-15.183-8.665-22.424-13.358-1.295-.84-1.358-1.36-.966-2.454 5.259-14.667 10.718-29.94 17.967-43.797M416.22 91.53v122.63a6.183 6.183 0 0 1-6.183 6.182h-152.17a6.183 6.183 0 0 1-6.183-6.183V91.531a6.183 6.183 0 0 1 6.182-6.183h152.171a6.183 6.183 0 0 1 6.183 6.183" class="st58"/><path d="M409.455 96.573v112.543a5.68 5.68 0 0 1-5.677 5.678H264.124a5.68 5.68 0 0 1-5.677-5.678V96.573a5.68 5.68 0 0 1 5.677-5.677h139.654a5.68 5.68 0 0 1 5.677 5.677" class="st60"/><path d="M401.086 569.28c-40.216 12.565-83.645 13.56-124.18 3.1 1.85-23.49-4.77-47.38-2.83-71.01l17.72-20.86c17.26.64 33.56 7.6 50.15 12.44 12.41 3.63 25.85 6.47 35.04 15.56 3.6 3.55 6.32 7.87 8.82 12.27s5.3 9.04 7.05 13.81c1.39 3.8 1.56 8.3 2.59 12.3 1.93 7.44 3.89 14.89 5.64 22.39" class="st59"/><path d="M338.666 579.47c-2.098.049-5.237.077-6.52.05-5.445-7.923-9.826-16.522-11.56-26.09a101.3 101.3 0 0 0 18.08 26.04" class="st58"/><path d="M582.047 386.147c.056 4.43-1.41 8.726-2.858 12.915-1.18 3.392-2.387 6.85-4.566 9.709-3.195 4.203-17.707 16.555-21.709 18.244a22.4 22.4 0 0 1-3.66 1.18c-.456.1-3.117.213-3.297.488a331 331 0 0 1-29.082 37.292c-3.566 3.953-7.098 8.49-11.096 11.932-7.315 6.294-15.206 12.405-24.275 15.83-3.397 1.28-6.542 2.954-9.979 4.212-9.934 3.645-12.24 3.693-20.602 1.617-8.553-2.128-16.52-6.138-24.08-10.658-4.486-2.684-8.961-5.655-12.05-9.872-.721-.979-.544-1.368.158-2.252 4.442-5.623-.188-12.126 16.57-22.832 12.297-7.855 28.502-10.527 40.274-16.554 15.246-7.811 31.424-14.089 46.798-21.821-.651-6.06-.937-12.152-.045-18.183l13.011-19.378c10.12-5.346 21.145-10.833 32.721-8.176 3.485.798 9.427 3.312 11.882 5.334 1.207.994 2.19 2.246 3.004 3.583 1.415 2.32 2.847 4.672 2.88 7.39" class="st56"/><path d="M524.327 457.423a337 337 0 0 1-7.452 8.552c-3.566 3.953-7.098 8.49-11.096 11.932-7.315 6.294-15.206 12.405-24.275 15.83-3.397 1.28-6.542 2.954-9.979 4.212-9.934 3.645-12.24 3.693-20.602 1.617-8.553-2.128-16.52-6.138-24.08-10.658-4.486-2.684-8.961-5.655-12.05-9.872-.721-.979-.544-1.368.158-2.252 1.965-2.487 2.302-5.845 3.397-8.816 2.74-7.457 11.012-13.22 18.132-16.83l1.235 3.18a101.5 101.5 0 0 1-7.771 20.793c9.068 5.947 19.457 10.383 30.294 10.613 5.52.118 11.018-.854 16.33-2.342 17.548-4.913 32.94-15.251 47.759-25.96m57.72-71.275c.056 4.43-1.41 8.726-2.858 12.915-1.18 3.392-2.387 6.85-4.566 9.709-3.195 4.203-17.707 16.555-21.709 18.244a22.4 22.4 0 0 1-3.66 1.18c-.456.1-3.117.213-3.297.488a334 334 0 0 1-11.281 15.796c2.74-9.04 5.48-18.093 8.22-27.14-4.864-1.57-14.908-5.407-18.53-9.006-1.74-1.724-2.993-4.071-2.926-6.52l7.087-19.283 3.032-4.514c10.12-5.346 21.145-10.833 32.721-8.176 3.485.798 9.427 3.312 11.882 5.334 1.207.994 2.19 2.246 3.004 3.583 1.415 2.32 2.847 4.672 2.88 7.39" class="st60"/><path d="M588.277 323.648 562.7 406.901c-.83 2.7-3.747 4.898-6.505 4.898H508.11c-2.757 0-4.325-2.197-3.495-4.898l25.578-83.253c.83-2.7 3.748-4.898 6.505-4.898h48.085c2.757 0 4.325 2.197 3.495 4.898" class="st59"/><path d="M560.52 400.378h-49.718l22.906-74.556h49.718z" class="st62"/><path d="M587.627 380.505c-.564-3.055-3.422-5.247-5.598-7.214-5.449-4.927-11.537-9.012-17.411-13.399-4.572-3.417-8.38-.148-5.635 4.61 1.338 2.319 3.247 4.202 7.444 8.748-2.305-1.556-8.746-5.767-11.36-6.686-1.811-.637-4.141.272-5.05 2.02-1.16 2.23.644 4.793 2.022 6.476 1.48 1.807 2.462 2.441 12.728 10.328a80 80 0 0 0-10.606-6.687c-1.757-.924-3.824-1.798-5.662-1.047-1.734.71-2.662 2.793-2.355 4.642.371 2.235 1.95 3.399 3.72 4.486 2.27 1.395 4.355 3.306 6.473 4.924q4.885 3.73 9.789 7.517c.81.627 1.945 1.928 2.907 2.25-7.596-2.566-15.818-10.404-19.892-11.121-2.834-.499-4.988 1.661-3.283 4.382 3.408 5.44 9.757 8.147 14.696 12.249 2.7 2.243 6.123 6.09 10.436 5.484 2.203-.31 4.159-1.97 4.822-4.092.276-.883.39-.92 1.188-1.121 1.549-.391 2.75-1.706 3.318-3.198.568-1.493.577-3.143.377-4.727-.192-1.518.042-1.747.91-2.348 3.321-2.296 4.544-7.167 2.702-10.76 2.408-.444 3.765-3.308 3.32-5.716m-224.843-5.415c-.547 8.388-.053 10.864-6.138 17.026-6.294 6.374-16.955 14.036-25.752 15.891-4.453.938-9.27.657-13.286-1.477-5.952-3.161-9.293-10.029-9.625-16.761-.33-6.739 1.943-13.348 4.947-19.385 3.7-7.418 6.013-4.606 6.06-7.294q.099-4.921.207-9.832l-1.314-11.242c12.87-3.258 24.09-11.534 37.056-14.365a503 503 0 0 1 3.476 20.468c2.305 15.68 1.728 16.258 2.914 19.435.45 1.174 1.135 2.258 1.522 3.454.46 1.426.028 2.672-.067 4.082" class="st56"/><path d="M385.657 453.052c-.622 7.182-1.578 14.331-2.533 21.477-6.39 47.8-5.941 45.057-6.213 45.372-.217.251-.578.306-.908.343-21.552 2.457-43.722 4.962-65.326 1.12a111 111 0 0 1-39.333-15.146c-2.236-1.4-2.818-2.217-2.911-5.427-.417-14.328.356-28.661 1.129-42.975 1.829-33.89 4.59-42.208 15.63-64.523 3.855-7.791 7.919-15.741 14.377-21.558 4.494-4.048 11.12-6.96 17.136-6.335a36.75 36.75 0 0 0-3.576 15.66c-.008 2.375.224 4.785 1.069 7.006.844 2.22 2.352 4.25 4.44 5.383 3.687 1.997 11.742 2.265 19.042-1.99 1.63-.95 3.155-2.07 4.676-3.19 6.25-4.596 12.535-9.223 17.9-14.828.939-.98 2.117-2.236 2.13-3.594 1.375.491 2.534 1.095 3.908 1.586 6.646 2.374 12.286 9.23 14.79 15.683 1.53 3.937 2.269 8.128 3 12.288 3.097 17.626 2.687 35.821 1.573 53.648" class="st58"/><path d="M403.498 539.334c-10.967 5.323-22.288 8.816-33.704 12.848-1.376.488-14.493 4.773-14.493 5.677a1608 1608 0 0 1-7.665-95.164c-.786-15.459-3.577-31.766-.023-46.995 1.687-7.22 4.367-12.715 8.53-18.777 1.87-2.73 4.24-4.807 6.025-7.654 3.813-6.087 6.357-12.972 7.345-20.092 2.254.846 7.844 2.94 14.033 5.267 1.05.393 12.697 4.335 12.63 4.734-2.682 16.41-2.753 32.134-2.494 34.242.202 1.758.82 3.482 1.129 5.25 3.334 19.171 3.772 38.74 4.638 58.12 1.507 35.169 3.008 32.619 3.886 43.833.483 6.16-.068 12.523.163 18.71" class="st62"/><path d="M374.92 418.385a102.5 102.5 0 0 0-17.44-14.786 101 101 0 0 1-9.867 12.101c1.687-7.22 4.367-12.715 8.53-18.777 1.87-2.73 4.24-4.807 6.025-7.654 3.813-6.087 6.357-12.972 7.345-20.092l6.424 2.409c4.389 15.328 1.92 31.161-1.016 46.799m24.526 58.405c-6.888 6.955-12.36 12.687-33.625 34.753 9.113-14.617 18.317-29.407 23.725-45.76.92-2.79.76-3.55-.085-5.733a143.3 143.3 0 0 1-9.731-49.123l13.949 2.493c.202 1.758.82 3.482 1.128 5.25 3.335 19.168 3.773 38.73 4.639 58.12" class="st61"/><path d="M404.964 383.33c7.213 6.606 13.956 13.7 20.661 20.815 6.212 6.59 12.818 13.008 17.733 20.67 1.15 1.79 1.02 2.546-.159 4.064-10.912 14.055-24.404 26.133-41.142 41.77-8.236-11.823-18.585-30.472-21.263-44.226a103 103 0 0 1-1.854-16.43c-.089-2.835.457-5.394.804-8.164.794-6.35 2.9-12.646 6.832-17.696 2.384-3.063 5.832-5.775 9.708-5.568 3.366.18 6.195 2.488 8.68 4.765" class="st62"/><path d="M356.72 337.495c-8.42 18.5-23.084 28.595-37.607 30.368a16.8 16.8 0 0 0-.399-3.7c.38-.446.245-.223.483-10.905l-1.314-11.242c12.87-3.258 24.09-11.534 37.056-14.365a481 481 0 0 1 1.78 9.844" class="st60"/><path d="M322.763 301.85c8.158 10.421 12.117 26.574 23.833 32.732 4.606 2.421 8.363 3.594 11.796-.344 2.28-2.615 3.393-6.02 4.45-9.325 3.926-12.27 6.435-24.782 7.687-37.603a17.5 17.5 0 0 0-1.74-9.437c-.448-.9-1.161-1.874-2.167-1.858-.422-7.338-5.031-12.671-11.4-15.828-8.174-4.05-18.442-5.142-24.688-12.255-1.467-1.67-2.625-3.615-4.264-5.117-4.528-4.15-11.26-3.598-14.52.824-2.417 3.28-2.214 7.71-2.751 11.748a145 145 0 0 0-3.956-9.127c-.603-1.27-1.58-2.74-2.977-2.573s-1.986 1.801-2.633 3.05c-1.337 2.577-3.943 4.27-5.505 6.718-2.267 3.552-2.575 9.191-1.232 13.094 1.446 4.2 3.275 7.825 7.052 10.43 4.418 3.047 6.6 8.124 10.267 11.885 4.26 4.367 8.944 8.127 12.748 12.985" class="st59"/><path d="M371.357 321.814c2.832-4.993 3.58-11.879-1.461-15.761-2.656-2.046-6.53-2.357-9.48-.763-4.013 2.169-5.838 7.058-8.457 12.672-.712-1.229-.687-3.165-.858-4.541-2.61-20.967-3.86-28.817-3.293-37.062-4.441-.608-8.95.28-13.275 1.46-4.325 1.178-8.592 2.656-13.033 3.265-7.589 1.041-15.516-.581-22.085-4.52-2.055 9.787-1.99 19.965-3.689 29.82-1.222 7.092-4.058 13.773-5.462 20.821-2.182 10.96 3.058 23.932 14.438 27.225 13.705 3.967 38.315-4.48 47.942-14.654 2.849-3.011 4.993-6.816 5.45-10.935 4.66 3.157 10.536-2.218 13.263-7.027" class="st56"/><path d="M311.097 286.191c.877-.025 1.805.085 2.684.133.013 1.941-.051 3.76-.37 5.677-3.45.534-6.582.506-9.922 1.776-.754.353-.974.549-1.815.432-.485-.573-.732-1.002-.837-1.74-.175-1.236.341-2.512 1.144-3.441 2.246-2.602 5.961-2.674 9.116-2.837m14.421.61q.802.081 1.594.237c2.899.551 11.762 3.045 13.108 5.786.552 1.124-.025 2.687-.313 3.832-.496.094-.992.188-1.484.013-2.074-.74-4.757-3.123-13.074-3.712-.003-2.056.075-4.102.169-6.156" class="st59"/><path d="M335.734 327.481c.228.16.075.031.32.508-.835 3.14-1.791 5.988-3.79 8.601-2.901 3.792-7.456 6.798-12.262 7.3-4.435.464-7.817-1.01-11.19-3.718-2.072-2.143-3.468-4.485-4.567-7.235 14.336.239 18.307-1.491 31.489-5.456" class="st58"/><ellipse cx="331.445" cy="310.776" class="st59" rx="4.511" ry="8.121"/><ellipse cx="304.588" cy="306.02" class="st59" rx="4.511" ry="8.121"/><path d="M317.52 301.118c.339 5.793.499 10.996-2.852 15.605-2.009 2.673-5.821 5.078-5.65 5.856.221.813 4.773 2.624 5.668 2.943-2.135-.126-4.634-.909-5.825-1.535-1.104-.6-1.345-1.518-.893-2.417.75-1.462 3.99-3.962 5.35-5.852 3.23-4.214 3.188-9.723 4.203-14.6m50.203 14.159c-.155-1.694-1.198-3.3-2.717-4.081-5.98-3.07-10.153 6.73-8.452 10.04 1.202 2.338 5.106 3.273 7.605 1.472 2.075-1.495 3.801-4.841 3.564-7.431" class="st60"/><path d="M373.768 414.57c-4.383-4.114-8.148-7.987-11.798-12.667-.33-.423-3.507-4.245-3.303-4.519-3.633 4.878-6.706 9.954-10.16 14.96 4.97-19.538 14.822-36.577 15.306-39.8.13-.864-.206-1.477-.793-2.097-.967-1.02-1.842-2.323-2.084-3.74 2.328.41.347.014 4.552.308 1.518.106 3.08.297 4.403 1.047 1.782 1.01 2.993 2.907 3.416 4.882 1.807 8.416 2.496 15.14 2.166 24.889-.194 5.737-.273 11.168-1.705 16.736" class="st62"/><path d="M443.678 422.562a86.4 86.4 0 0 1 9.482 9.587c.609.72 7.924 9.513 7.587 9.703-18.957 10.356-35.444 25.196-47.731 42.962a172 172 0 0 1-9.477-10.741c-1.35-1.667-3.566-3.69-4.402-5.666-.743-1.757.497-3.936 1.434-5.487 2.458-4.066 5.552-7.706 8.7-11.264 9.716-10.973 20.226-21.45 32.678-29.18.31-.192.655-.39 1.013-.331.277.044.504.234.716.417" class="st58"/><path d="M280.41 433.753c-3.695 11.004-6.685 20.774-6.093 32.59 1.334 26.625 7.304 53.041 6.053 79.67.01-.192-17.834-3.97-19.367-7.562-.628-1.472-.61-3.128-.581-4.728 1.278-69.745 4.091-72.968 5.059-91.783.46-8.952.795-17.809 2.123-26.807a295 295 0 0 1 11.576-48.993c.654-1.987.967-4.288 3.486-4.48.932-.072 1.858.154 2.767.37 8.516 2.03 17.444 3.362 24.53 3.876.406.03 2.373.667 2.537.598-7.092 2.948-11.125 9.916-14.768 16.373-3.272 5.8-2.498 6.339-2.727 10.705-.304 5.778-3.548 10.724-5.653 15.948a436 436 0 0 0-8.941 24.223" class="st61"/><path d="M294.106 398.858c-1.175-2.886-4.525-4.397-7.64-4.356-3.116.04-6.066 1.316-8.91 2.587 1.23-3.436 3.569-6.346 5.916-9.14 3.528-4.202 14-16.331 18.686-19.416 1.823-1.2 3.772-2.145 5.902-2.6a30.4 30.4 0 0 1 7.308-.649c-9.641 9.914-15.54 21.113-21.262 33.574" class="st62"/><path d="m267.336 193.626-10.593 78.315c-.524 3.87-3.968 6.594-7.7 6.09l-124.165-16.795c-3.733-.505-6.336-4.047-5.812-7.917l10.593-78.316c.523-3.864 3.974-6.593 7.706-6.088l124.165 16.794c3.732.505 6.329 4.052 5.806 7.917" class="st57"/><path d="m271.747 194.222-10.593 78.316c-.524 3.87-3.968 6.594-7.7 6.09l-124.165-16.796c-3.733-.504-6.336-4.046-5.812-7.917L134.07 175.6c.522-3.864 3.974-6.594 7.706-6.089l124.165 16.795c3.732.505 6.328 4.052 5.806 7.916" style="fill:#fff"/><path d="m266.853 197.206-9.625 71.153c-.477 3.515-3.689 5.98-7.182 5.508l-116.21-15.723c-3.492-.471-5.94-3.7-5.463-7.215l9.624-71.147c.472-3.515 3.69-5.98 7.188-5.509l116.204 15.718c3.493.471 5.936 3.706 5.464 7.215" class="st59"/><path d="m257.133 192.254-10.562 81.142-107.905-14.6 10.545-81.131z" class="st55"/><path d="M109.069 221.176c2.043-2.34 5.619-2.768 8.494-3.351 7.2-1.46 14.52-1.87 21.81-2.649 5.675-.608 7.284 4.145 2.496 6.839-2.333 1.312-4.935 1.959-10.863 3.73 2.776-.164 10.463-.502 13.18.04 1.884.376 3.424 2.346 3.315 4.313-.139 2.51-2.997 3.795-5.041 4.54-2.194.8-3.363.845-16.215 2.395a80 80 0 0 1 12.533-.345c1.982.101 4.206.404 5.404 1.987 1.13 1.494.866 3.76-.34 5.193-1.46 1.734-3.412 1.93-5.489 1.963-2.664.042-5.43.624-8.079.935q-6.104.718-12.253 1.476c-1.017.125-2.656.666-3.648.452 7.842 1.666 18.913-.884 22.783.577 2.691 1.015 3.444 3.972.59 5.443-5.706 2.943-12.548 2.034-18.888 3.044-3.466.553-8.372 2.117-11.774-.604-1.737-1.389-2.573-3.814-2.062-5.979.213-.9.134-.99-.45-1.57-1.133-1.125-1.496-2.869-1.224-4.442.273-1.574 1.106-2.998 2.086-4.259.94-1.208.855-1.524.414-2.483-1.686-3.67-.254-8.483 3.162-10.634-1.845-1.61-1.552-4.766.059-6.61" class="st56"/><path d="m147.638 339.944-8.76 67.905a4.65 4.65 0 0 1-5.207 4.017l-43.273-5.583a4.65 4.65 0 0 1-4.016-5.207l8.76-67.905a4.65 4.65 0 0 1 5.207-4.016l43.273 5.582a4.65 4.65 0 0 1 4.016 5.207" class="st59"/><path d="m99.37 335.36 43.638 5.63-7.926 61.44-43.639-5.63z" class="st62"/><path d="M125.51 357.546c.5.063 1.003.127 1.5.219 1.62.298 2.875 1.115 3.784 2.376.872 1.211 1.196 2.452.84 3.834-1.317 5.114-12.626 11.298-17.582 13.98-2.215-2.113-4.105-4.648-6.064-6.96-1.497-1.91-3.304-3.908-4.423-6.007-1.172-2.197-1.261-4.815.22-6.81 1.81-2.44 5.486-3.334 8.548-2.086 3.237 1.319 5.277 4.486 6.605 7.302 1.821-2.697 3.168-4.63 6.571-5.848" class="st58"/><path d="M143.998 388.151c-1.858-2.393-4.439-4.13-6.405-6.435-5.368-6.293-4.372-15.257-1.937-17.986 1.797-2.016 5.178-1.849 7.402-.317 2.224 1.531 3.532 4.051 4.615 6.525 1.589 3.632 2.883 7.39 3.933 11.214.322 1.172-.016 2.57-.037 3.769-.038 2.194.283 4.38.153 6.572-.064 1.076-1.187 7.396-3.432 5.943-.17-.11-.287-.282-.396-.453-1.752-2.75-1.877-6.232-3.896-8.832m-46.978-20.35c-1.107 1.415-2.926 2.376-4.7 2.084.982.382 1.903.994 2.47 1.886.977 1.539.691 3.628-.247 5.194-.937 1.567-2.414 2.718-3.88 3.808 1.404.848 2.235 2.56 2.033 4.183-.213 1.74-1.438 2.875-2.926 3.588 1.017 1.208.798 3.291.69 4.751-.392 5.201-2.63 3.857-3.43 5.24-.232.4-.316.848-.6 2.071-.138.564-.52.178-.781.113-3.18-.821-5.924-2.701-7.677-4.992-2.614-3.408-1.483-7.052 1.337-8.227-1.73-1.578-2.5-4.139-1.932-6.413.567-2.274 2.448-4.172 4.717-4.756-1.707-1.758-2.712-4.273-2.347-6.7.36-2.425 2.218-4.637 4.621-5.126a6.7 6.7 0 0 1-1.808-5.127c.466-5.7 6.48-5.087 9.995-2.375 1.932 1.498 3.415 3.584 4.622 5.7.455.803 1.26 3.301-.157 5.098" class="st56"/><path d="M97.02 367.801c-1.107 1.415-2.926 2.376-4.7 2.084.982.382 1.903.994 2.47 1.886.977 1.539.691 3.628-.247 5.194-.937 1.567-2.414 2.718-3.88 3.808 1.404.848 2.235 2.56 2.033 4.183-.213 1.74-1.438 2.875-2.926 3.588 1.017 1.208.798 3.291.69 4.751-.392 5.201-2.63 3.857-3.43 5.24-.232.4-.316.848-.6 2.071-.138.564-.52.178-.781.113-2.595-.67-5.117-2.112-6.975-4.161 2.337-3.012 7.212.382 9.765-2.219 1.438-1.476.792-4.115-.775-5.452-1.56-1.337-3.706-1.713-5.733-2.044 2.516.309 5.25.584 7.435-.708.837-.494 1.6-1.353 1.471-2.313-.1-.753-.707-1.32-1.28-1.814a81 81 0 0 0-5.666-4.419c1.572.612 3.2 1.235 4.89 1.218 1.691-.017 3.494-.82 4.184-2.364.899-1.999-.308-4.267-1.482-6.126q-1.507-2.386-3.016-4.779c4.678 2.794 7.51 2.261 8.71-2.836.455.804 1.26 3.302-.157 5.1" class="st60"/><path d="m566.68 199.245-9.63 101.424a7.846 7.846 0 0 1-6.958 7.065l-128.26 14.156a3.16 3.16 0 0 1-3.078-1.539l-6.16-6.424s4.835-5.564 5.796-5.789c.129-.028.364.028.668.152l6.047-82.395a8.994 8.994 0 0 1 7.255-8.17l121.467-23.686c-.708-2.223-1.275-4.2-1.191-4.312l3.87-3.583 6.72 7.16c2.196.994 3.701 3.302 3.454 5.94" class="st57"/><path d="m558.906 191.468-9.63 101.424a7.85 7.85 0 0 1-6.958 7.065l-128.26 14.156a3.18 3.18 0 0 1-3.521-3.392l6.794-92.603a8.99 8.99 0 0 1 7.255-8.17l127.408-24.843c3.84-.685 7.277 2.477 6.912 6.363" class="st58"/><path d="m548.857 194.577-8.815 87.62-121.654 14.746 6.433-79.214z" class="st61"/><path d="m545.55 197.173-8.367 83.18-16.69 2.022-4.84.59-64.217 7.782-8.48 1.028-21.265 2.577 6.11-75.2 70.535-13.169z" class="st57"/><path d="M306.491 530.368c-.048-2.034-.4-4.147.777-5.918 1.718-1.254 6.23-.242 8.449-.22 2.934.206 5.883.36 8.804.71.604.458.742.5.862 1.29.33 2.172-.147 4.886-.323 7.074-.282 1.653-.462 3.334-1.065 4.907-4.45-.456-13.141-.192-16.851-2.02-.48-1.956-.6-3.818-.653-5.823" class="st56"/><path d="M310.289 526.986c3.727-.04 7.494.508 11.195.903.042 2.284.083 4.54-.099 6.82q-5.474-.363-10.92-1.016c-.215-2.254-.232-4.444-.176-6.707" class="st59"/><path d="M212.643 454.338c.215-7.618.046-15.672-2.622-22.965-.228-.624.712-.962.939-.343 2.727 7.45 2.9 15.619 2.683 23.335-.02.667-1.02.637-1-.027M192.769 346.34a53 53 0 0 0 15.417-19.602c.274-.6 1.184-.19.91.414a54 54 0 0 1-15.71 19.975c-.524.407-1.137-.38-.617-.787m265.594 114.232c.144-2.385 1.4-16.363 3.18-17.64.538-.388 1.122.425.585.812-1.148.824-2.574 13.681-2.767 16.889-.039.663-1.038.605-.998-.06m120.021-79.533-12.749-8.156c-.313-.2-.01-.674.303-.473l12.749 8.155c.313.2.01.674-.303.473m-6.079 9.291c-10.459-6.928-10.745-7.037-11.632-7.956-.257-.267.146-.656.404-.39.827.857.944.86 11.538 7.877.309.204.002.673-.31.469m-452.21-162.665a130 130 0 0 1 11.217-2.288c.372-.05.45.497.088.555-3.74.592-7.498 1.358-11.17 2.278-.362.087-.494-.455-.135-.545m-4.213 12.215c13.1-3.173 13.579-4.143 13.777-3.497a.28.28 0 0 1-.186.35 234 234 0 0 1-13.459 3.693c-.366.082-.49-.459-.132-.546" class="st60"/><path d="M492.995 266.147c-.974 3.01-3.801 5.658-6.95 5.36-3.947-.374-6.067-4.475-8.993-6.671-2.58-1.935-3.41-3.255-4.113-6.31-.83-3.608-1.766-7.19-2.578-10.802-.494-2.202-.95-4.414-1.303-6.638a83.7 83.7 0 0 1 14.645-4.621l9.305 1.426c-1.766 12.254-.235 11.55.175 18.687.183 3.188.822 6.449-.188 9.57" class="st56"/><path d="m536.453 280.443-15.96 1.932-4.84.59-64.217 7.782-8.48 1.028-19.058 2.308c9.71-19.682 26.634-35.282 46.782-44.014-.09.04.1.394.438.899 0 0 0 .005.005.005.966 1.438 3.117 4.105 3.38 4.347a14.64 14.64 0 0 0 5.92 3.324c.69 2.853 1.375 5.71 2.066 8.57.084-2.68.365-5.347.842-7.98.056-.31.118-.635.32-.882.554-.674 3.822-1.219 6.29-3.723 1.493-1.505 2.453-3.745 2.032-5.88 0-.183 5.916-.658 6.284-.695 2.19-.22 4.436.005 6.604.398 5.053.904 9.09 2.668 13.168 5.784a47 47 0 0 1 10.439 11.04c2.055 3.05 3.74 6.323 5.284 9.653.814 1.763 1.841 3.627 2.7 5.514" class="st60"/><path d="M493.008 237.891c-.365 2.533-.72 5.076-.803 7.631a24.2 24.2 0 0 1-8.609 3.375c-4.408.809-9.024.36-13.235-1.173-.494-2.202-.95-4.414-1.303-6.638a83.7 83.7 0 0 1 14.645-4.621z" class="st60"/><path d="M462.829 216.059c-4.95-5.557-5.478-13.806-1.275-19.949a14.75 14.75 0 0 0 2.309 7.206c-.132-1.288.393-2.547.977-3.702a32 32 0 0 1 4.976-7.191c.61-.664 1.263-1.314 2.072-1.712s1.805-.51 2.602-.089c1.732.914 1.62 3.42 2.103 4.938a5.84 5.84 0 0 0 3.744 3.734c1.471.463 3.054.316 4.593.408 3.864.232 7.75 2.216 9.596 5.618a6.33 6.33 0 0 0 1.3-4.59c1.379 1.415 2.035 3.372 2.52 5.287 1.575 6.206 1.785 12.866-.205 18.951-.725 2.216-1.9 4.509-4.024 5.467-2.117.954-4.633.316-6.663-.809s-3.784-2.704-5.828-3.804c-4.775-2.569-10.78-2.346-15.27-5.387z" style="fill:#5c313a"/><path d="M500.465 228.468c-2.597 5.991-5.529 6.553-5.986 6.986-.169.174-.225.421-.275.657-1.387 6.188-6.144 9.546-12.034 10.866-3.56.797-7.496 1.291-10.68-.489-3.38-1.898-6.065-5.643-7.334-9.232-1.614-4.554-.759-9.363-1.061-12.387-.091-1.111-.305-2.376-.41-3.51-.118-1.218.028-2.47-.073-3.711-.05-.63-.101-1.286.14-1.865 1.982.876 4.942 1.05 7.087.899 4.082-.287 7.94-1.146 11.64-2.937 1.415-.685 3.117-1.449 4.459-.64.432.258.758.651 1.061 1.056 2.043 2.774 4.307 8.027 7.35 11.786.669-1.157 1.646-2.2 2.915-2.605s2.847-.006 3.515 1.15c.685 1.197.236 2.708-.314 3.976" class="st56"/><path d="M479.564 220.93c2.01-.115 4.117-.265 6.04.456.344.129.685.29.945.55.641.64.46 1.62-.488 1.598-.608-.015-1.193-.373-1.778-.51-1.224-.289-2.288-.195-3.52-.205-.502-.004-1.024.135-1.514-.02-.968-.309-1.26-1.779.315-1.869m-8.136 2.086-.197.539c-1.314.567-2.729-.19-4.11-.011-.826 0-1.752.41-2.527.668-.592.2-.614.076-1.5.657-.033-.416-.201-.794.146-1.11.348-.318.666-.681 1.007-1.014.87-.85 2.224-1.464 3.436-1.582.457-.045.933.039 1.385.097.512.065 1.048.308 1.461.61.5.365.657.596.899 1.146" class="st59"/><ellipse cx="482.324" cy="226.621" class="st59" rx="1.611" ry="2.581"/><ellipse cx="468.37" cy="227.443" class="st59" rx="1.611" ry="2.581"/><path d="M475.106 225.278c.464 1.83.268 4.012-.312 5.832-.317 1.054-.74 1.455-.074 2.064.574.511 1.57.615 2.535.75-2.605.927-4.04-.378-3.935-1.661.02-.324.113-.592.186-.827 1.03-3.074 1.265-4.854 1.6-6.158m5.469 12.315c-.073.927-.539 1.803-1.016 2.567-.762 1.222-1.61 2.48-2.993 2.965-1.056.365-2.263.157-3.218-.422-1.959-1.168-2.746-3.438-3.234-5.654-.04-.18-.073-.31-.09-.494 10.838.347 9.944.294 10.175.393.247.1.404.292.376.645" class="st60"/><path d="M480.199 236.948c-2.92 3.894-8.86 2.415-9.63-.376 10.224.34 9.375.267 9.63.376" class="st58"/><path d="m520.494 282.375-4.84.59a397 397 0 0 0-4.998-18.475c3.161 4.683 6.98 11.786 9.838 17.885m-63.184-11.253c-3.448 5.183-5.577 13.005-5.874 19.625l-8.48 1.028a119 119 0 0 1 6.84-11.99c2.095-3.222 4.408-6.395 7.514-8.663" style="fill:#98253f"/><path d="M309.517 116.31c-.259.59-.955.831-1.533 1.118-2.168 1.078-3.32 3.43-4.88 5.272-3.392 3.998-8.446 5.054-13.455 4.56-.525 2.795-.642 2.668-13.235 29.475 5.141 2.057 9.525 4.029 14.943 7.132l10.472 30.177a183.5 183.5 0 0 1-36.87-13.118c-6.46-3.103-9.076-5.304-11.506-12.27-1.958-5.6-2.009-9.123.719-15.947 4.7-11.81 12.477-21.67 21.703-30.29.86-.797 1.758-1.64 2.134-2.751.303-.926.208-1.932.208-2.903-.029-7.688 5.25-14.224 10-19.721.439-.506.899-1.028 1.517-1.298.612-.269 1.432-.202 1.836.332.45.606.202 1.46-.096 2.15a21.8 21.8 0 0 1-2.448 4.251c2.769-2.313 4.723-5.716 8.03-7.165.399-.174.854-.314 1.252-.152.472.197.691.781.63 1.292-.081.668-.195.752-3.735 6.48a80 80 0 0 1 6.317-6.727c.596-.561 1.213-1.129 1.983-1.398.769-.275 1.723-.186 2.257.432 2.03 2.306-4.414 9.494-6.435 11.81 2.74-2.904 5.497-5.83 8.726-8.182.309-.225.657-.455 1.039-.41.477.05.814.545.848 1.027.028.483-.169.95-.376 1.382-2.876 5.918-8.884 9.877-11.68 15.835 2.993-1.887 6.542-3.672 9.933-2.656 1.022.309 2.128 1.28 1.702 2.263" class="st56"/><path d="m276.414 156.735.163.068c-1.216.412-6.943 1.415-13.264 6.008 3.907-5.08 9.801-8.639 15.594-11.382z" class="st60"/><path d="M348.815 114.69c.359.534 1.087.648 1.707.828 2.324.677 3.874 2.79 5.736 4.325 4.046 3.335 9.207 3.48 14.05 2.106.99 2.602 1.508 3.078 14.85 21.885l3.394 4.781c-4.696 2.935-8.661 5.652-13.444 9.665l-4.965 31.554a183.5 183.5 0 0 0 33.966-19.438c5.81-4.198 7.994-6.827 9.152-14.113.936-5.859.361-9.335-3.53-15.568-6.717-10.79-16.117-19.119-26.724-25.969-.987-.632-2.02-1.302-2.587-2.33-.463-.858-.546-1.864-.718-2.82-1.334-7.571-7.686-13.07-13.335-17.64-.52-.42-1.066-.852-1.722-1.008-.65-.157-1.445.055-1.748.652-.335.676.06 1.472.474 2.1a21.8 21.8 0 0 0 3.163 3.75c-3.135-1.787-5.66-4.79-9.172-5.63-.423-.101-.896-.16-1.26.072-.429.277-.541.89-.39 1.382.198.643.325.705 4.823 5.717a80 80 0 0 0-7.409-5.503c-.685-.447-1.393-.896-2.198-1.025-.806-.134-1.73.123-2.145.825-1.59 2.63 6.024 8.562 8.424 10.484-3.211-2.373-6.443-4.764-10.037-6.508-.344-.166-.727-.331-1.095-.22-.46.135-.705.68-.653 1.162.058.48.334.904.615 1.293 3.878 5.316 10.492 8.149 14.3 13.517-3.28-1.327-7.09-2.456-10.248-.855-.95.485-1.868 1.637-1.274 2.528" class="st56"/><path d="m388.552 148.615-.148.096c1.27.19 7.083.164 14.117 3.565-4.744-4.308-11.175-6.767-17.362-8.442z" class="st60"/><path d="M322.24 200.485c-14.621-.403-28.73-3.926-40.773-9.478a260 260 0 0 1 9.434-29.543 542 542 0 0 0 20.732 5.717zm64.364-13.269c-1.221.421-.446.118-22.147 9.956-.795.355-1.06.322-1.651-.118a36.5 36.5 0 0 1-10.265-11.68l2.291-20.339c1.74-.061 3.397-.707 5.009-1.358a425 425 0 0 0 14.224-6.054 127.7 127.7 0 0 1 12.539 29.593" class="st58"/><path d="M346.617 179.921c-1.353 4.088-2.706 8.182-4.48 12.107-.843 1.864-1.831 3.745-3.432 5.02-1.6 1.28-3.97 1.797-5.722.735-1.039-.628-1.718-1.707-2.28-2.785-2.268-4.363-3.172-9.254-3.92-14.066-.763-4.936-1.936-9.76-2.02-14.802 0-.09 0-.186.044-.259.111-.185 1.332-.853 2.74-.87.216-2.606.3-5.63.203-8.53l11.18-13.477a21.5 21.5 0 0 0 7.03-2.628c-.003.102-.668 19.537-.668 19.637-.05 1.399-.045 2.948.876 3.998 2.197 2.516 5.73-.026.45 15.92" class="st56"/><path d="M365.987 214.794h-58.462c-1.005-14.598-1.631-29.64 2.05-43.7.314-1.197.673-3.403 1.758-4.16.55-.4 8.304-1.941 14.981-1.988-1.703 4.252 1.068 9.394 6.778 10.832-.533 4.975-.68 10.085-.225 15.072a253 253 0 0 0 1.971-15.089c4.456-.621 8.436-3.736 9.889-8.344.287-.893.13-1.876.477-2.746.304-.775.102-.646.933-.708.124.015 3.525.383 9.866 1.174 2.119.246 3.099.559 4.818 2.931 5.076 6.963 7.176 15.74 7.412 24.354.21 7.52-.935 15.075-2.246 22.372" class="st58"/><path d="M345.91 141.804q-.302 9.005-.612 18.008c-5.41 3.907-9.969 4.812-17.57 2.14q.115-2.745.022-5.48l11.18-13.478a21.5 21.5 0 0 0 5.402-1.757c.46.134 1.096.35 1.578.567" class="st60"/><path d="M318.127 119.116c-.2-1.187-.945-2.21-1.303-3.359-1.576-5.049 3.566-12.089 10.74-11.135 1.34.178 2.623.632 3.931.97 8.866 2.281 12.965-1.685 17.536.034 1.027.387 1.354.966 2.04 1.72 1.582 1.737 2.866 3.49 3.52 5.79 1.672 5.871.385 15.497-.376 21.191-6.088.914-12.317 1.296-18.392.294s-12.016-3.463-16.505-7.677z" class="st59"/><path d="M349.548 144.231c3.593-.81 6.079-2.936 7.421-6.4 1.832-4.728.484-8.456-1.734-10.117-1.195-.894-2.949-.284-3.99.654-.98.882-1.575 2.104-2.145 3.294-.744-2.112-1.137-4.306-1.636-6.47-.14-.603-1.566-6.661-1.392-6.767-8.513 5.143-21.645 7.802-28.055.137-.042 7.042.067 13.8.025 20.842-.022 3.681.249 6.973 1.497 10.492.97 2.738 2.444 5.456 4.899 7.01 2.373 1.504 5.394 1.714 8.14 1.122s5.276-1.915 7.71-3.318c3.821-2.201 8.083-6.096 9.26-10.479" class="st56"/><path d="M336.293 125.019c1.64-.09 3.1-.017 4.646.598 1.075.427 1.837.716 2.318 1.803-.681.383-1.07.307-1.842.311-3.32-.263-6.279.565-6.905-.9-.418-.977.951-1.767 1.783-1.812m-10.353.515c-1.64-.09-3.1-.016-4.646.598-1.075.428-1.838.716-2.318 1.803.681.383 1.07.308 1.842.312 3.32-.263 6.278.565 6.905-.9.418-.977-.952-1.767-1.783-1.813" class="st59"/><ellipse cx="338.836" cy="132.492" class="st59" rx="1.902" ry="2.125"/><ellipse cx="323.722" cy="133.083" class="st59" rx="1.902" ry="2.125"/><path d="M330.716 131.165c1.403 2.672-.643 6.958.027 8.388.402.791 1.465 1 2.256 1.254-1.123.214-2.29.14-2.988-.772-1.04-1.334-.016-4.556.331-6.034.223-.924.384-1.833.374-2.836m7.456 14.828c-1.842 2.684-4.964 4.43-8.26 3.723-1.46-.309-2.415-1.123-3.37-2.252-.782-.924-1.566-2.213-.454-2.695.408-.176.786-.136 2.487-.208 3.313-.124 6.654-.242 9.928.297v.012c.118.382-.1.792-.331 1.123" class="st60"/><path d="M338.503 144.858v.012c-1.578 1.376-3.785 1.988-5.907 1.97-2.41-.022-4.75-.746-7.025-1.543.062-.22.219-.4.517-.528.408-.176.786-.136 2.487-.208 3.313-.124 6.654-.242 9.928.297" class="st58"/><path d="M352.603 138.657c.54-.17.96-1.57 1.091-2.117.533-2.235-1.828-1.4-1.966-3.593-.08-1.282 1.047-2.98 2.51-2.285 2.374 1.128.73 7.072-1.635 7.995" class="st60"/><path d="M386.604 187.216c-1.102.38-2.429 1.015-2.65 1.112-3.05-10.343-6.032-20.951-12.063-29.744q1.088-.472 2.174-.96a127.7 127.7 0 0 1 12.539 29.592m-92.974-24.949c-3.532 9.855-6.452 19.912-9.327 29.986a85 85 0 0 1-2.836-1.246 260 260 0 0 1 9.434-29.543q1.365.407 2.73.803" class="st55"/><path d="M165.753 251.437c-1.487-3.078-2.729-6.354-2.867-9.77s.966-7.012 3.536-9.265c2.96-2.596 7.406-3.114 10.106-5.978 1.958-2.077 4.605-8 4.522-13.183-.06-3.715.895-7.673 2.087-11.166 2.166-6.352 4.844-9.044 10.393-11.75 3.622-1.767 5.106-1.887 8.663-1.782 1.883.055 3.783.117 5.608.584 4.033 1.032 7.334 3.955 9.917 7.22 7.186 9.08 2.099 19.383 1.741 28.516-.246 6.308 2.11 7.696 6.502 11.435 2.554 2.174 4.808 4.742 6.372 7.71 2.76 5.242 3.386 11.863-2.315 15.326-2.417 1.468-5.27 2.031-8.075 2.392-15.27 1.962-31.041-1.433-44.605-8.716z" class="st59"/><path d="M207.274 247.688c-2.681 1.431-6.942 1.86-9.693 1.275-3.301-.714-6.188-3.145-7.445-6.279-.972-2.409-1.017-5.12-2.095-7.485a20 20 0 0 1 3.392-.1 64 64 0 0 0 2.128-15.56l1.91-3.286a35.3 35.3 0 0 0 11.224 6.53 802 802 0 0 1-.578 14.129c1.342.892 2.935.209 4.211 1.92 1.894 2.535.986 6.712-3.054 8.856" class="st56"/><path d="M228.674 270.975c-39.587-5.355 33.137 4.469-76.498-10.349 2.473-5.864 6.544-13.3 10.776-18.008 7.74-8.632 15.418-8.251 26.673-7.474.309 3.583 2.415 6.963 5.486 8.827 4.367 2.638 9.928 1.79 12.523-.528 1.604-1.417 2.244-3.741 1.785-5.576-.078-.348 6.503.534 7.087.725 1.898.617 3.498 1.982 4.89 3.42 7.4 7.618 7.872 18.548 7.278 28.963" class="st58"/><path d="M206.695 222.784a786 786 0 0 1-.337 8.934c-4.967.612-9.823-1.456-13.33-4.74.325-2.46.5-4.952.533-7.44l1.91-3.285a35.3 35.3 0 0 0 11.224 6.53" class="st60"/><path d="M197.202 227.081c-4.405-3.417-4.364-7.378-5.473-10.226-.17-.436-.256-.521-.733-.767-1.94-.996-4.306-3.069-4.747-5.3-.439-2.219.753-4.321 2.15-4.936 1.142-.503 2.696-.102 3.556.785 1.053 1.088 1.315 3.239 2.598 4.176.281.206.632.336.978.293 1.437-.176 1.866-1.657 2.588-2.659.879-1.22 2.136-2.122 3.42-2.873 3.409-1.995 5.905-2.493 9.463-8.97 4.49 4.298 6.564 8.334 7.263 16.118.365 4.067.236 7.168-1.385 10.527-3.012 6.241-12.982 9.028-19.678 3.832" class="st56"/><path d="M204.492 205.664c.11.024.981.301.95.424l-.15.574c-.406.712-1.527.846-2.252.97-.868.148-2.027.382-2.753-.273-.067-.06 1.99-1.369 2.182-1.456.605-.279 1.358-.382 2.023-.239m7.403-.72c1.158 1.056 2.953 1.033 4.011 2.137.586.61.53 1.033.549 1.814l-.73-.132c-1.67-.306-3.293-.28-4.317-1.764-.057-.878.132-1.28.487-2.055" class="st59"/><ellipse cx="213.589" cy="211.732" class="st59" rx="1.182" ry="1.661"/><ellipse cx="202.555" cy="211.228" class="st59" rx="1.182" ry="1.661"/><path d="M208.277 210.295c.363 1.482 1.353 5.2.488 6.477-.38.537-1.15.847-2.268.43 1.7-.57 1.65-.448 1.465-2.68-.1-1.366-.228-2.967.315-4.227" class="st60"/><path d="M208.44 221.354c-2.345.408-4.523-.835-6.49-2.018-.284-.171-.581-.355-.744-.645-1.061 1.587 2.342 4.953 5.626 3.93.686-.213 1.223-.66 1.608-1.267" class="st58"/><path d="m216.13 269.274-2.948-.393c.54-3.556 1.26-7.196 2.066-10.506.134 1.614.478 5.94.882 10.9m-39.089-17.56c-.272 2.876-2.007 8.364-3.094 11.854l-2.942-.399a678 678 0 0 0 6.036-11.455" class="st55"/></g></svg>