<svg xmlns="http://www.w3.org/2000/svg" xml:space="preserve" id="Layer_1" x="0" y="0" version="1.1" viewBox="0 0 665 665"><style>.st55{fill:#2db3d9}.st56{fill:#f39f87}.st58{fill:#fefefd}.st59{fill:#1d1936}.st60{fill:#e44847}.st61{fill:#423585}.st62{fill:#3760a4}.st64{fill:#fcd8c8}.st788{fill:#042f73}</style><g id="Exhausted"><linearGradient id="SVGID_1_" x1="360.617" x2="346.38" y1="56.177" y2="220.543" gradientUnits="userSpaceOnUse"><stop offset="0" style="stop-color:#0068b4"/><stop offset="1" style="stop-color:#0092d4"/></linearGradient><path d="M585.654 370.104a274 274 0 0 1-1.471 8.644c-7.676 40.626-25.703 79.941-54.082 113.674-106.805 127.334-307.357 117.846-401.608-19.41-51.45-74.867-58.626-173.475-14.936-256.398 73.349-138.71 257.415-178.159 381.619-78.241 69.442 55.844 103.893 143.503 90.478 231.73" style="fill:url(#SVGID_1_)"/><path d="M495.18 138.375H196.082v-13.127c89.572-60.461 212.018-56.92 299.098 13.127" class="st788"/><linearGradient id="SVGID_2_" x1="384.968" x2="391.92" y1="190.507" y2="258.957" gradientUnits="userSpaceOnUse"><stop offset="0" style="stop-color:#e7979b"/><stop offset="1" style="stop-color:#886cb0"/></linearGradient><path d="m502.786 252.419-36.883 43.473s-133.933-7.696-134.148-8.099-52.95-44.437-52.95-44.437l3.275-14.53 51.629-57.832 61.618 52.866 36.642-33.17z" style="fill:url(#SVGID_2_)"/><path d="M475.248 301.892s17.514 11.716 19.979 10.886 50.078-7.696 51.23-8.454 16.741-46.912 16.741-46.912l-204.114.252c15.443 18.037 34.294 32.943 55.535 43.556" class="st62"/><path d="M585.65 370.103q-.661 4.345-1.472 8.643a74 74 0 0 1-10.838 2.745c-11.733 2.064-23.755 1.613-35.636.676-4.856-.383-9.937-.928-13.991-3.63-4.432-2.95-6.941-8.036-8.628-13.08-4.96-14.84-4.217-31.844 3.583-45.406l53.384-61.006a16.6 16.6 0 0 1 4.688-2.19c11.934 37.294 14.537 76.322 8.91 113.248" style="fill:#a0d4e3"/><path d="M580.753 270.774c-16.45 29.452-42.02 51.61-67.685 73.582a69 69 0 0 0-14.363-25.688 293.7 293.7 0 0 0 54.944-60.613c3.971-5.851 6.36-12.31 10.378-18.124 1.372-1.986 2.744-3.976 4.117-5.962a247 247 0 0 1 12.609 36.804" class="st788"/><path d="M289.465 111.798c1.85-.399 3.917-.789 5.638.25 1.707 1.03 2.145 2.767 2.595 4.577 2.391-1.502 4.943-2.72 7.847-2.056 2.132.488 3.99 2.145 5.002 4.05.492.923.797 1.991 1.1 2.99 7.411-4.038 7.354 1.064 9.436 1.887.786.31 1.828.251 2.667.293 5.412.268 7.594.842 10.838 5.583-3.786.752-8.358.271-12.228.247-33.867-.21-7.103-.05-33.179-.053-.4-3.563-.525-14.593.284-17.768m54.738 18.312c1.883-8.258 6.224-15.39 13.445-19.984 6.416-4.082 13.39-5.055 20.796-5.752-5.057.476-10.284 9.2-11.947 13.237-3.562 8.65-2.832 19.103 3.345 26.418 7.82 8.263 16.568 11.98 30.15 9.127-1.255.264-4.336 4.875-5.543 5.89-18.672 15.731-47.049 5.942-50.874-19.957-.048-3.078-.002-5.95.628-8.978" class="st58"/><path d="M272.781 123.577v206.196H84.904c.922-86.254 45.913-162.021 113.703-206.196z" style="fill:#fcf4e8"/><path d="M261.628 216.614v6.819H110.087a239 239 0 0 1 3.47-6.82z" class="st64"/><path d="M183.37 140.212h7.03v178.565h-7.03z" class="st64"/><path d="M173.646 282.969c-5.93 7.024-14.342 11.284-23.263 13.781l-12.698-4.457a36.2 36.2 0 0 0-9.675-8.947 44.5 44.5 0 0 1 9.423.911c-6.208-8.696-7.148-10.019-8.177-11.31-4.226-5.318-5.18-5.2-10.078-15.756 2.63 1.723 5.59 2.875 8.413 4.274 11.2 5.57 20.068 15.143 21.477 27.674 5.454-6.43 12.224-11.585 20.32-13.824 3.053-.838 5.583-.764 8.674-.037.57.304-4.002 7.198-4.416 7.69" class="st61"/><path d="M147.67 289.155c-4.155.063-8.304.12-12.458.173a36.2 36.2 0 0 0-7.202-5.982 44.5 44.5 0 0 1 9.423.911c-6.208-8.696-7.148-10.019-8.177-11.31-4.226-5.318-5.18-5.2-10.078-15.756 2.63 1.723 5.59 2.875 8.413 4.274 8.732 4.343 16.186 11.194 19.628 20.131.403 2.483.445 5.04.45 7.559" class="st62"/><path d="M145.539 270.988c-4.128-4.03-5.987-8.992-8.766-13.875-1.262-2.217-2.099-4.544-2.866-6.965-.8-2.525-.572-5.22-.616-7.867l-.299-17.931a97.7 97.7 0 0 1 16.303 25.243 32 32 0 0 1 1.312-16.947c1.586-4.373 2.863-6.269 15.84-28.543.072 7.232.383 27.556-1.548 34.238-1.894 6.554-7.13 11.57-12.542 15.723-1.539 1.181-1.856 1.653-2.043 3.656a308 308 0 0 0-.973 13.786c2.623-7.728 6.602-15.355 13.21-20.145 4.949-3.587 10.972-5.304 16.857-6.956-2.767 12.074-11.55 16.384-18.264 22.341-4.194 3.722-7.933 8.597-8.1 14.202 1.216-4.678 5.575-7.694 9.21-10.88 4.096-3.59 9.962-10.553 17.223-9.348-1.259 3.994-4.061 7.364-7.349 9.959-8.409 6.636-18.515 7.785-21.846 15.104.158-.318-1.112-1.72-1.278-2.094-.471-1.056-.661-2.332-.93-3.454-1.968-8.21-.832-7.585-2.535-9.247" class="st55"/><path d="M219.23 328.898c-3.387 1.707-7.356 2.3-11.163 2.53-13.734.89-33.653-1.85-43.159-11.728-1.801-1.876-3.357-4.175-3.577-6.769l4.919-10.005a1128 1128 0 0 1 41.634-18.48c5.872 10.12 11.404 20.513 15.123 31.602 1.977 5.883 1.835 10.017-3.777 12.85" class="st56"/><path d="M219.23 328.898c-3.274 1.65-6.967 2.226-10.629 2.493-2.046-6.121-2.941-10.353-4.73-15.123a56.35 56.35 0 0 0-16.254-23.074 1099 1099 0 0 1 20.267-8.748c5.872 10.12 11.404 20.513 15.123 31.602 1.977 5.883 1.835 10.017-3.777 12.85" class="st60"/><path d="m169.476 291.114-3.803 30.361-35.039-9.392-2.781-21.006z" class="st56"/><path d="m169.476 291.114-3.803 30.361-10.089-2.703L157 291.103z" class="st60"/><path d="M266.527 126.432v16.134h-93.394a251 251 0 0 1 21.2-16.134z" class="st64"/><path d="M257.837 132.791h29.89v137.957h-29.89z" class="st56"/><path d="M261.186 140.621h3.834v97.467h-3.834zm9.476 0h4.239v97.467h-4.239zm10.093 0h3.408v97.467h-3.408z" class="st59"/><path d="M257.837 132.791h29.89v8.696h-29.89z" class="st60"/><path d="M289.094 109.03v25.212a3.816 3.816 0 0 1-3.819 3.82H178.602a252.2 252.2 0 0 1 53.483-32.85h53.19a3.82 3.82 0 0 1 3.819 3.818" class="st56"/><path d="M298.826 341.737c-3.056.88-4.884 4.086-5.492 7.208-1.761 9.04 3.884 20.447 13.166 23.17 5.711 1.675 12.858-.026 16.302-4.77 2.484-3.42 2.761-7.953 2.47-12.17-.283-4.09-1.018-8.167-2.448-12.01-2.095-5.626-4.967-6.693-8.978-5.911a19.3 19.3 0 0 0-9.866 5.24" class="st62"/><path d="M418.65 568.726c-107.35 36.695-226.145-2.495-290.157-95.714 9.57-8.838 21.984-13.939 33.941-18.812l93.533-38.142c24.676-10.065 56.659-26.33 83.64-17.747 15.696 4.993 28.197 16.702 40.13 28.066 24.39 23.236 33.46 31 39.775 42.322 5.54 9.924 4.85 20.75 5.661 31.83 1.668 22.899.928 46.499-6.524 68.197" class="st56"/><path d="M585.651 370.1c-6.891 45.24-26.182 87.434-55.552 122.32h-27.16V370.1z" class="st60"/><path d="M550.146 453.898c-.378 3.76-.89 9.22-1.472 13.437a250.6 250.6 0 0 1-28.25 35.93c-3.09-1.122-6.014-3.018-8.565-5.098-17.564-14.322-24.966-37.333-31.802-58.936-14.54-45.963-29.612-89.056-44.237-131.314l-23.127-46.087c17.223-5.28 35.908-.288 52.493 6.752 13.693 5.81 26.972 13.153 37.522 23.63 10.55 10.482 18.213 24.4 19.015 39.251 1.097 20.383-9.295 33.434 10.985 64.819 6.307 9.753 15.222 19.423 17.758 31.074 1.64 7.542.448 18.93-.32 26.542" class="st60"/><path d="M550.146 453.898c-.33 3.28-.634 6.496-1 9.66a438 438 0 0 0-35.616-69.356l-75.002-78.48c-.901-2.604-1.807-5.202-2.708-7.805l-23.127-46.087c17.223-5.28 35.908-.288 52.493 6.752 13.693 5.81 26.972 13.153 37.522 23.63 10.55 10.482 18.213 24.4 19.015 39.251 1.097 20.383-9.295 33.434 10.985 64.819 6.307 9.753 15.222 19.423 17.758 31.074 1.64 7.542.448 18.93-.32 26.542" class="st56"/><path d="M388.66 284.077c-26.154 26.274-53.247 53.41-89.063 64.871-28.79 9.21-61.178 6.553-88.087-7.218l2.352-20.309c-3.217-6.47-4.883-13.096-6.695-20.026-1.09-4.165-1.587-8.429-2.31-12.64-1.818-10.64 1.596-21.53 12.666-30.23.385-11.099 2.938-19.205 12.556-26.57 8.783-6.716 19.412-9.262 30.367-10.654 7.732-.974 16.364-1.42 24.028.241 23.182 5.01 31.71 15.16 45.353 17.575 12.185 2.17 34.77-3.685 49.99 23.388 3.813 6.784 6.375 14.191 8.842 21.572" class="st59"/><path d="M388.66 284.077a2062 2062 0 0 1-3.411 3.42c-4.243-6.38-7.344-13.504-12.033-19.56-8.014-10.36-20.639-17.019-33.719-17.784-5.217-.303-10.832.43-14.819 3.814-3.682-7.297-11.163-11.854-18.627-15.191-13.552-6.055-29.104-9.335-43.274-4.919a30.6 30.6 0 0 1 17.391-6.422 104.3 104.3 0 0 0-22.33-5.778c8.381-1.262 18.342-1.912 26.636-.115 23.182 5.01 31.71 15.16 45.353 17.575 12.185 2.17 34.77-3.685 49.99 23.388 3.813 6.784 6.375 14.191 8.842 21.572" class="st61"/><path d="M345.19 455.503c-1.242 22.95 2.325 46.947 18.6 63.589.995 1.017 1.47 1.156 2.903.864a102.7 102.7 0 0 0 36.115-14.996c5.692-3.777 6.083-6.131 5.749-10.345A164.5 164.5 0 0 0 404.939 471c-1.385-6.06-3.156-12.137-6.486-17.386-3.33-5.25-8.42-9.636-14.499-10.935" class="st60"/><path d="M341.088 458.796c-26.615 4.353-53.97 12.004-73.717 30.38-14.267 13.295-18.65 24.024-48.643 25.143-19.644.751-39.806-2.405-57.075-11.79-4.292-2.334-8.371-5.043-12.775-7.154-1.4-.68-2.8-1.055-4.2-1.309-24.504-28.481-43.464-63.978-52.957-103.558l7.154.995c11.587 13.607 24.85 33.16 42.697 34.052 33.324 1.677 65.083 13.945 98.028 20.05 24.213 4.465 48.844 5.547 73.564 5.581 9.944.01 21.125.355 27.924 7.61" class="st56"/><path d="M341.088 458.796c-26.615 4.353-53.97 12.004-73.717 30.38-14.267 13.295-18.65 24.024-48.643 25.143-19.644.751-39.806-2.405-57.075-11.79-4.292-2.334-8.371-5.043-12.775-7.154-1.4-.68-2.8-1.055-4.2-1.309a215 215 0 0 1-3.674-4.393c7.357-5.51 17.645-7.184 26.25-3.775 8.25 3.267 15.068 10.644 23.936 11.05 9.69.447 18.65-7.783 28.167-5.885 3.927.78 7.286 3.206 10.817 5.073 3.53 1.877 7.782 3.227 11.486 1.725 3.856-1.573 5.925-5.692 7.6-9.507 5.824-13.222 11.161-26.93 19.086-38.914 14.885 1.33 29.872 1.726 44.818 1.746 9.944.01 21.125.355 27.924 7.61" class="st60"/><path d="M538.827 481.443C483.25 555.39 394.555 590.427 308.507 580.7c18.841-32.805 46.22-68.338 77.632-89.971 1.822-1.234 2.282-1.907 2.243-4.516-.051-5.235-.112-10.46-.163-15.696l124.927-42.13c.909 1.867 16.916 34.96 25.681 53.057" class="st62"/><path d="M532.255 467.869c-28.083 16.846-61.467 24.814-94.405 26.233-16.752.723-33.876-.194-49.612-5.914.22-.92.167-.563-.021-17.674l82.268-27.742c15.243-2.21 30.319-5.06 44.96-9.638 5.605 11.576 11.205 23.153 16.81 34.735" class="st59"/><path d="M400.786 494.601a52.9 52.9 0 0 1 .026-20.89c.347-1.696 2.914-1.174 2.566.525a50.2 50.2 0 0 0-.025 19.847c.343 1.696-2.224 2.218-2.567.518m29.178 2.417a77.3 77.3 0 0 1-.213-20.205c.208-1.716 2.809-1.407 2.6.315a74.7 74.7 0 0 0 .206 19.52c.245 1.715-2.348 2.086-2.593.37m32.374-1.753a62.3 62.3 0 0 1-2.225-21.267c.117-1.727 2.73-1.552 2.613.178a59.7 59.7 0 0 0 2.132 20.375c.473 1.668-2.048 2.38-2.52.714m39.212-9.738a78.6 78.6 0 0 1-5.61-22.503c-.167-1.728 2.441-1.97 2.607-.252a76 76 0 0 0 5.423 21.753 1.31 1.31 0 0 1-2.42 1.002" class="st55"/><path d="M363.874 309.902a181.9 181.9 0 0 1-16.94 60.199c-5.066-2.933-10.131-5.872-15.134-8.91-16.182-9.847-20.538-14.435-28.795-17.37 2.715-10.833 3.178-19.283 3.688-30.373 1.15-24.86 1.49-29.126 1.095-34.599a278 278 0 0 0 29.847 20.33z" class="st64"/><path d="M332.523 358.932a45 45 0 0 1-.723 2.258c-16.182-9.846-20.538-14.434-28.795-17.37 2.715-10.832 3.178-19.282 3.688-30.372 1.15-24.86 1.49-29.126 1.095-34.599a276 276 0 0 0 15.217 11.074c11.414 21 16.25 46.145 9.518 69.01" class="st60"/><path d="M313.07 344.46c-12.869 8.216-30.083 8.472-44.908 3.215-3.342-1.184-5.893-3.965-8.512-6.322-9.433-8.476-15.748-13.736-23.578-23.09-3.916-4.662-3.916-5.013-6.25-7.863-.99-1.237-2.289-2.887-2.828-3.809-.01-.005-.01-.016-.016-.026-.742-1.294.205.824 3.348-9.843 2.238-7.573 2.661-15.103.937-22.65 3.486 4.68 10.374 6.071 16.16 6.548 8.574.697 10.96-.31 16.758-1.399 9.118-1.694 19.871-6.979 25.793-14.107 1.812 6.565 7.332 11.067 13.526 13.981-1.035-4.724-3.733-12.92-1.52-17.543 1.404-2.944 4.972-4.494 8.198-4.033 3.442.487 6.496 4.3 8.052 7.234 1.577 2.965 2.179 6.5 1.351 9.759-1.11 4.341-5.401 6.623-5.5 7.119-.133.73 5.056 8.953 7.318 16.988 1.815 6.442 2.736 13.479 2.96 19.973.285 10.456-2.5 20.274-11.289 25.867" class="st64"/><path d="M313.07 344.46c-12.869 8.216-30.083 8.472-44.908 3.215-3.342-1.184-5.893-3.965-8.512-6.322-2.892-2.598-5.81-5.175-8.69-7.795 6.846 2.462 13.121 6.46 19.9 9.188 13.305 5.359 28.386 5.605 42.21 1.713m-81.641-37.087c1.581 2.972 6.279 12.038 9.214 13.447 1.053.502 2.44.471 3.248-.367-.641.981-.454 2.586 1.466 3.918 1.708 1.168 3.374 1.624 5.265.765 1.838-.833 3.452-2.169 4.819-3.64 4.065-4.385 3.18-8.602 2.986-14.081 3.855 1.445 7.176 3.52 9.513 6.988 0 .11-1.053 2.821-1.179 3.099-.398.885-.859 1.726-1.272 2.606-.912 1.928-2.321 3.572-3.799 5.133-2.556 2.697-6.212 4.028-9.837 4.479-2.028.25-2.441-.378-4.065-1.389-1.19-.749-2.735-1.718-4.196-1.78-7.486-7.606-11.602-13.504-13.772-16.15-.99-1.237-2.289-2.887-2.828-3.809-.01-.005-.01-.016-.016-.026-.747-1.302.204.83 3.347-9.843 2.234-7.558 2.665-15.088.938-22.65 3.483 4.676 10.363 6.07 16.16 6.548 8.574.697 10.96-.31 16.757-1.399 4.843-.9 9.402-2.56 13.63-4.772-9.823 9.479-26.747 12.279-40.387 7.648.032 8.323-1.137 16.543-5.008 24.023-.246.476-.523.974-.984 1.252" class="st56"/><path d="M299.938 321.957c.017.321.036.363-.047.727-.97 4.254-6.556 10.516-10.284 12.666-1.97 1.136-3.255 1.448-5.456.889l-.432-.429.301-.346c5.275-.74 12.035-9.692 15.918-13.507" class="st60"/><path d="M242.6 321.663c4.033-4.859 6.682-10.376 9.458-15.997.898 4.455.818 7.93-2.023 11.67a15.2 15.2 0 0 1-6.323 4.862zm43.728-42.461c.2.11.068.015.205.443-3.317 6.52-6.475 10.984-13.154 14.337-4.435 2.227-8.433 2.474-13.128.897-.771-.485-1.426-1.132-2.102-1.739 11.665-.06 20.157-5.24 28.179-13.938m6.142 21.67a9 9 0 0 1 .53 4.088 11 11 0 0 0-1.863-1.75c-3.293 2.907-8.162 3.905-12.334 2.529 1.368-1.707 5.719-1.735 9.32-4.983 2.85-3.929 3.148-7.056 3.258-11.781-.01.458 1.735 2.652 2.694 7.456.99.31 1.892.897 2.578 1.677-.83-.943-3.431.335-4.16.816a8.8 8.8 0 0 1 2.418 2.38 4.13 4.13 0 0 0-2.44-.432" class="st59"/><path d="M261.777 303.988c1.9.825 4.948 1.752 6.132 3.534 2.42 1.873 4.485 4.155 6.813 6.136 2.97 2.526 7.064 4.752 9.361 7.907 4.507 6.187-7.973 12.207-11.035 6.022-.284-.574-.303-1.4-.409-2.028-.862-5.102-.673-8.876-4.915-14.552-1.433-1.918-3.134-3.764-5.096-6.029-.222-.256-.553-.843-.851-.99" class="st60"/><path d="M265.76 318.956c1.555 3.245 1.56 3.019 1.306 3.45a44 44 0 0 1-4.644 6.48c-.283.328-.242.137.16 2.563a4.5 4.5 0 0 0-1.236-2.468 3.48 3.48 0 0 1-1 1.892 1.64 1.64 0 0 0-.233-1.356 7.8 7.8 0 0 1-2.554 2.839c.358-.239.272-1.501.258-1.857a16.63 16.63 0 0 1-8.72-.595c3.997-1.332 8.197-2.066 13.267-7.013 1.182-1.154 2.602-2.49 3.397-3.935" class="st59"/><path d="M308.715 262.103c1.101-.68 2.635-.68 3.81-.122 1.894.899 2.349 3.18 3.597 4.746.72.904 2.25 1.962 1.201 5.198-.53 1.638-1.503 3.164-2.902 4.166-1.04.744-2.49 1.164-3.585.504-1.036-.626-1.376-2.04-1.073-3.212.129-.494.226-.749-.095-1.195-.595-.83-1.67-1.196-2.388-1.91-1.841-1.83-1.606-6.3 1.435-8.175" class="st56"/><path d="M310.229 268.699c1.2-.255 2.504.173 3.376 1.036 1.69 1.67 1.72 4.586-.175 6.657-.142-1.18-.853-3.23-1.979-3.596-.313-.102-.65-.084-.979-.108-1.55-.112-2.958-1.268-3.413-2.753-.456-1.485.043-3.207 1.192-4.253 1.37-1.247 4.356-2.058 6.476-1.253 1.291.49 2.374 1.663 2.485 3.04.014.172-.03.258-.216.27-.689.047-1.217-.849-1.811-1.144a3.524 3.524 0 0 0-4.956 2.104" class="st60"/><path d="M526.521 452.206c-20.89 15.563-47.349 21.179-72.949 26.008-19.318 3.643-41.892 7.677-60.77 2.18-3.247-.942-3.819-1.956-4.562-5.071-5.62-23.83-20.995-44.023-31-66.37-6.484-14.47-11.13-31.062-18.916-44.625 9.303-16.988 18.334-51.31-.618-65.405 10.21-9.58 20.202-19.332 32.278-26.376 9.251-5.4 19.424-9.193 29.911-11.366 12.059-2.505 21.598-.462 31.493 6.814 28.13 20.691 52.506 47.052 68.423 78.135 4.735 9.235 7.941 19.969 11.393 29.822 4.102 11.734 7.287 23.761 10.252 35.825 2.818 11.477 6.228 22.561 7.559 34.337.364 3.266-.052 4.268-2.494 6.092" class="st55"/><path d="M381.011 357.429c-1.137 4.746-3.478 9.34-7.265 12.42-6.721 5.447-19.74 7.183-32.578-.157a101 101 0 0 0-2.844-5.364c9.303-16.988 18.334-51.31-.618-65.405 8.225-7.718 16.337-15.581 25.589-22.075 12.792 19.225 17.983 42.855 18.732 66.008.157 4.882.126 9.822-1.016 14.573" class="st62"/><path d="M367.12 357.136c-3.78 12.072-11.204 18.25-22.693 12.96a28.7 28.7 0 0 1-4.296-2.447 93 93 0 0 0-1.807-3.321c9.303-16.988 18.334-51.31-.618-65.405 4.372-4.103 9.21-8.713 13.803-12.73 17.752 19.577 23.204 46.709 15.61 70.943" class="st61"/><path d="M526.519 452.206c-20.89 15.563-47.35 21.179-72.949 26.008-19.325 3.645-41.895 7.676-60.77 2.18-3.248-.942-3.82-1.956-4.562-5.071-5.621-23.83-20.996-44.023-31-66.37-6.611-14.756-10.917-30.57-18.916-44.625 9.303-16.988 18.334-51.31-.618-65.405 2.378-2.232 4.75-4.48 7.134-6.69 8.11 5.626 15.097 13.567 16.297 23.263 1.15 9.299-3.93 25.408-7.47 34.081-.5 1.2-.192 1.646.875 1.928 8.543 2.252 17.417 2.907 26.238 3.263 20.079.817 40.215.142 60.194-2.011 4.453-.486 5.791-1.145 9.01-5.38 4.133-5.448 8.313-10.974 10.927-17.297 3.93-9.502 4.043-20.013 6.705-29.749 12.671 13.793 23.646 29.105 32.195 45.8 4.735 9.234 7.941 19.968 11.393 29.82 4.102 11.735 7.287 23.762 10.251 35.826 2.819 11.477 6.229 22.561 7.56 34.337.364 3.266-.052 4.268-2.494 6.092" class="st58"/><path d="M503.761 414.753c-6.436 17.048-22.415 36.93-38.677 40.697 1.981-1.763 9.147-5.297 13.907-12.255l1.008-1.046c3.66-3.635 7.684-6.984 11.183-10.757 4.73-5.1 8.63-10.934 12.58-16.64M397.92 421.08c-19.743 4.825-39.79 9.445-59.533 14.27-8.465 2.063-17.082 4.148-25.778 3.619-14.369-.875-27.375-8.738-41.508-11.45-17.397-3.343-35.233 1.272-52.939 1.785-8.91.264-10.22-2.492-14.458-12.367-10.398-24.249-14.164-51.326-10.712-77.491l3.677-19.245c13.668-2.204 28.585-.29 43.237 6.7 10.189 4.818 20.247 11.345 27.01 20.245h.015c.801.1 31.01-.068 39.596 12.321 9.13-8.56 23.662-10.754 34.914-5.275 11.838-3.777 28.486 7.47 31.142 19.612 11.021.477 20.822 6.26 25.657 16.176 4.844 9.93 2.702 20.52-.32 31.1" class="st55"/><path d="M266.93 347.146c-1.073.587-7.008 3.835-9.45 5.155-10.764-7.23-24.104-8.158-36.746-8.968 9.182-5.597 20.295-5.277 30.885-3.405-3.95-3.002-7.297-6.71-10.612-10.393a126 126 0 0 1-3.143-3.578c10.808 4.824 21.883 11.756 29.051 21.19zm134.131 57.491c-.236 5.411-1.566 10.922-3.143 16.443-19.743 4.825-39.79 9.445-59.533 14.27-8.466 2.063-17.083 4.148-25.778 3.619-14.369-.875-27.376-8.738-41.509-11.45-17.396-3.343-35.233 1.272-52.938 1.785-8.844.262-10.187-2.415-14.458-12.367 3.693-5.7 9.345-10.383 16.019-11.493 6.857-1.142 13.693 1.53 20.251 3.84 9 3.168 18.89 5.73 27.952 2.744q-11.252-14.669-22.504-29.345a135 135 0 0 0 16.543 15.495c3.357 2.65 6.993 5.207 11.2 5.972 20.655 3.728 33.795-36.406 61.099-1.451 5.464 6.988 11.179 14.777 19.743 17.077 7.088 1.906 14.573-.435 21.414-3.106a213 213 0 0 0 25.642-12.033" class="st62"/><path d="m291.97 447.712-22.603 11.079-42.184 4.934-87.59-24.672-45.06-14.144 64.164-17.103 129.077 26.522z" class="st55"/><path d="m291.97 447.712-14.767 7.239c-14.53 2.32-25.694 4.023-25.694 4.023l-28.931-9.529-55.16-39.847 120.356 24.73z" class="st59"/><path d="m94.534 424.911 137.412 33.87 88.124-19.943.982 12.45-89.957 22.624L92.45 439.556c-2.22-4.894-1.54-9.776 2.084-14.645" class="st59"/><path d="M485.369 422.101c-.573 10.572-4.197 20.778-11.3 28.518-6.264 6.826-16.296 9.287-25.133 10.911-34.609 6.37-78.432 5.583-113.373 1.378-4.51-.545-9.078-1.215-13.2-3.117-1.093-.51-1.36-.579-2.635-.361-15.773 2.641-33.223-.96-47.234-10.775-1.173-.823-3.604-3.49-5.15-3.38-.905.052-2.157 4.417-15.489 8.414-2.153.644-4.458 1.236-6.626.634-.865-.247-1.787-.823-1.86-1.724-.047-.602.309-1.157.67-1.645 1.954-2.593 4.615-4.395 7.37-6.03a155 155 0 0 1 9.482-5.17c-2.039-1.69-6.216-1.377-8.648-1.471-1.144-.039-1.448.01-2.604.917a48.4 48.4 0 0 1-13.923 7.558c-1.912.66-3.96 1.205-5.951.828-1.661-.31-2.29-1.197-2.2-2.771.143-2.644 1.911-4.954 3.824-6.805-1.549 1.2-4.65 2.301-6.066.97-.56-.524-.754-1.347-.744-2.112.033-4.435 4.909-6.964 6.726-10.644-2.588 3.349-7.222 3.934-8.78 2.84-.706-.493-1.063-1.379-1.089-2.243-.052-2.143 2.033-6.828 7.24-10.576 9.293-6.697 21.485-9.847 32.933-8.072 4.18.644 8.213 1.98 12.226 3.31 8.612 2.856 18.104 4.945 25.851 9.613 3.798 2.289 7.727 4.452 11.315 7.066 11.89 8.678 18.642 6.374 30.204 3.72 14.817-3.414 29.512-11.553 53.164-19.13 2.336-.74 28.9-7.822 29.114-6.277l-4.117-30.062 56.794-34.06c10.57 25.1 10.69 52.737 9.209 79.748" class="st64"/><path d="M251.785 438.272c-.935 0-1.362.312-2.148.928a48.4 48.4 0 0 1-13.924 7.558c-1.912.66-3.96 1.205-5.95.828-1.662-.31-2.29-1.197-2.2-2.771.146-2.661 1.912-4.95 3.824-6.805-1.548 1.2-4.65 2.298-6.066.97-.56-.524-.755-1.347-.744-2.112.033-4.513 4.816-6.813 6.726-10.644-2.59 3.35-7.225 3.932-8.78 2.84-.707-.493-1.063-1.379-1.09-2.243-.051-2.143 2.03-6.825 7.24-10.576 6.731-4.85 14.956-7.826 23.3-8.44-1.918 3.854-3.524 4.848-3.033 6.37.398 1.247 2.033 1.483 3.337 1.457-1.734.707-3.326 2.054-3.798 3.866-.707 2.703 1.184 5.332 2.96 7.49-1.614.577-3.269 1.174-4.563 2.295-1.299 1.116-2.179 2.887-1.76 4.547.666 2.624 4.048 3.74 6.669 4.442m34.305 16.118c-.482.31-.963.619-1.45.912a63.5 63.5 0 0 1-12.148-6.647c-1.174-.823-3.604-3.49-5.15-3.38-.906.052-2.158 4.417-15.49 8.414-2.152.644-4.457 1.236-6.626.634-.864-.247-1.786-.823-1.86-1.724-.047-.602.31-1.157.671-1.645 1.954-2.593 4.615-4.395 7.37-6.03a155 155 0 0 1 9.482-5.17 2 2 0 0 0-.105-.078c2.829-1.509 6.38-.791 9.25.65 4.644 2.324 7.622 5.645 16.056 14.065" class="st56"/><path d="M439.16 405.281a48.87 48.87 0 0 1 21.513 12.845c-21.507-10.051-45.82-8.979-69.104-4.468 5.89-1.956 31.703-8.69 31.912-7.183l-4.117-30.062 21.294-12.771c3.169.094 6.343.309 9.491.56 5.113.409 10.362.97 14.935 3.295-8.298 7.837-18.905 12.672-29.303 17.37zm-172.053 13.966c-4.165-1.017-8.36-1.917-12.588-2.614-7.356-1.23-9.161-.374-23.923 10.775.261-.377.502-.77.707-1.184-1.514 1.96-3.918 3.2-6.39 3.327a310 310 0 0 1 18.145-13.405c1.996-1.371 2.88-1.739 5.442-1.572 6.401.414 12.551 2.55 18.607 4.673m11.168 14.651c-5.756-1.622-23.619-6.754-29.848-5.573-5.128.962-15.285 8.92-19.256 12.241.639-.927 1.414-1.78 2.216-2.556-1.639 1.27-3.631 1.705-4.799 1.54q3.94-2.952 7.879-5.898c4.835-3.62 10.063-7.386 16.097-7.69 7.496-.362 20.838 5.019 27.71 7.936" class="st60"/><path d="M482.218 361.604c-20.576 12.583-45.123 18.565-69.182 16.873-6.953-26.053-13.976-52.214-17.915-79.225-1.043-7.134-.33-16.15 4.002-22.173 2.472-3.442 5.7-5.946 9.612-7.56 16.187-6.689 32.1 2.033 44.348 12.473 8.381 7.15 14.987 16.768 18.805 27.025 6.033 16.204 9.041 33.671 11.97 49.03.12.65.153 2.47-1.64 3.557" class="st55"/><path d="M483.34 355.318c-21.939 11.677-46.632 18.156-71.483 18.748-5.416-20.293-10.738-40.644-14.505-61.288a189.7 189.7 0 0 1 16.48 56.422c8.277.45 16.522-1.08 24.652-2.693 15.259-3.033 30.717-6.49 44.332-13.97.178.927.356 1.854.523 2.781" class="st61"/><path d="M217.658 453.147c-73.173-18.35-113.942-28.524-114.75-28.81a11.21 11.21 0 0 1-7.35-8.838L78.995 309.214c-.571-3.667 2.54-6.857 6.223-6.375l121.67 15.93c5.019.66 8.979 4.61 9.644 9.627l14.945 112.415c1.039 7.82-6.136 14.265-13.819 12.336" class="st59"/><path d="M215.221 452.814c-73.173-18.35-113.942-28.524-114.75-28.81a11.21 11.21 0 0 1-7.35-8.838L76.557 308.88c-.57-3.666 2.541-6.856 6.224-6.375l121.67 15.93c5.019.66 8.979 4.61 9.644 9.628l14.945 112.414c1.039 7.82-6.136 14.266-13.819 12.337" class="st55"/><path d="M227.18 448.278c-2.514 3.66-7.14 5.746-11.959 4.536-73.173-18.35-113.942-28.524-114.75-28.81L82.345 318.486c-.629-3.672 2.509-6.888 6.197-6.343l110.14 16.181a11.545 11.545 0 0 1 9.629 9.466z" class="st59"/><path d="M281.922 246.532c.027.427.017.816-.092 1.234-1.917 7.37-7.57 12.928-13.987 16.693-10.39 6.097-21.458 6.452-32.917 3.407l-.744-.53c1.527-.561 4.516.403 6.24.459 4.375.141 8.94-.259 13.229-1.115 13.242-2.644 21.005-9.22 28.271-20.148" style="fill:#6a3050"/><path d="M475.584 448.87a40 40 0 0 1-1.514 1.749c-6.265 6.826-16.297 9.287-25.134 10.911-24.844 4.572-52.538 5.27-77.485 4.249 38.151-3.81 77.278-6.217 104.133-16.91" class="st60"/><path d="M420.066 109.98c.484.485.574 1.12.811 1.749.292.772.423 1.137.347 1.991-.057.63-.075.963.186 1.564 1.692 1.827 4.472 2.126 6.764 2.818-1.514.163-3.595.15-4.914.953-1.772 1.082-2.099 4.835-2.671 6.742a127 127 0 0 0-2.39-6.382c-1.968-.775-3.914-1.068-5.996-1.315 2.074-.678 4.24-1.17 6.34-1.777.698-2.06 1.263-4.182 1.523-6.343m-27.989 71.663c.394 1.206.53 2.619 1.179 3.724 1.077 1.836 3.412 2.357 5.335 2.79-1.221.158-2.838.206-3.96.746-1.496.72-1.856 2.431-2.338 3.869l-.083.04c-.68-.288-1.15-2.39-1.637-3.13-.95-1.446-3.297-1.686-4.853-2.029 1.236-.173 2.658-.273 3.754-.91 1.776-1.034 2.103-3.276 2.603-5.1m-86.861-34.518c1.734 1.422.705 4.164 1.775 5.703 1.09 1.568 4.075 1.926 5.808 2.339-1.463.185-3.28.325-4.53 1.169-1.97 1.328-2.046 4.281-2.403 6.402-.595-1.509-.619-3.225-1.462-4.64-1.228-2.062-3.621-2.364-5.765-2.927 1.542-.307 3.38-.599 4.628-1.636 1.842-1.531 1.758-4.226 1.949-6.41m152.122 10.868c.516.991.618 1.882 1.312 3.383 1.568 3.39 3.951 4.26 7.252 5.417-4.199 1.301-6.184 2.29-7.558 6.404-.123.367-.25 1.052-.475 1.36-.103.14-.242.252-.362.379-.188-1.283-.48-2.64-1.157-3.76-1.797-2.978-5.376-3.66-8.473-4.518 2.306-.44 4.78-.939 6.671-2.419 2.14-1.675 2.518-3.72 2.79-6.246m48.767 5.911c.223.427.276.84.586 1.51.7 1.513 1.763 1.901 3.236 2.418-1.873.58-2.76 1.022-3.373 2.858-.054.164-.111.47-.212.607-.046.062-.108.112-.161.169-.386-2.636-1.734-2.984-4.298-3.694 1.029-.197 2.133-.42 2.977-1.08.955-.748 1.124-1.66 1.245-2.788m63.055 72.444c-5.306 7.275-10.361 14.887-15.956 21.9-35.03-1.896-68.154-.7-100.47-.884 1.628-1.881 3.394-3.495 5.662-4.563 4.976-2.342 9.513-1.11 14.374.676 6.952-12.478 16.035-7.2 22.415-6.28.507-2.125 1.159-4.59 2.3-6.523 5.22-9.088 17.439-8.965 26.71-4.222 1.117-8.155 5.214-12.39 10.434-13.86 5.333-1.498 10.2.35 14.788 2.928.071-6.432 1.217-10.165 6.988-15.139a246 246 0 0 1 12.755 25.967m-210.077-31.032c-3.97-1.268-7.705-3.347-11.205-6.213.928 2.252.467 4.955-.775 7.915-3.902-1.854-7.57-6.438-11.179-11.645-2.949 5.872-6.212 11.236-10.094 15.605-.875.414-4.196-8.04-3.829-10.068-1.556 1.66-8.454 7.685-9.204 7.444-.686-.162 3.363-12.991 4.605-13.767-.592.22-4.097 1.42-6.899 2.4l23.206-25.993 32.126 27.559c-4.95-1.462-9.623-3.353-13.98-5.741 3.394 3.583 5.699 7.81 7.228 12.504m89.717 3.881c2.19 3.237 2.268 6.38.613 9.46-5.401-2.084-9.372-6.961-12.572-13.341q-.204 9.413-6.836 14.63c-2.127-2.393-2.572-6.291-2.515-10.634-3.923 5.213-8.894 8.99-15.416 10.634.1-3.798 1.215-7.124 4.426-9.476l-6.815.393 22.284-20.173 30.42 26.517c-6.025-1.012-13.343-7.78-13.59-8.01" class="st58"/><path d="M280.021 126.432v2.582h-89.413q1.847-1.307 3.725-2.582zm0-10.927v2.582h-72.598a235 235 0 0 1 4.448-2.582z" class="st60"/><path d="M349.839 410.963c-.97.65-2.263.383-3.379.037a33.6 33.6 0 0 1-6.103-2.593c.755.743 1.661 1.32 2.39 2.09.722.775 1.262 1.844 1.02 2.876-.24 1.027-1.545 1.786-2.425 1.194a5.65 5.65 0 0 1 1.483 3.51c.057 1.39-.888 1.558-1.965.76a18.3 18.3 0 0 1-4.442-4.726c.068.378.136.77.032 1.142-.11.367-.461.697-.844.644-.293-.042-.508-.282-.696-.508a34.4 34.4 0 0 1-3.73-5.448 24.5 24.5 0 0 1-.23 11.75c-.657 2.44-2.168 2.505-3.259 1.142-2.319-2.866-1.467-8.216-1.907-10.838-.437 3.08-1.054 6.43-3.577 8.444-1.325 1.065-2.365.61-2.745-.456-.163-.45-.178-.943-.178-1.424 0-2.337.333-5.065 1.115-7.743-2.108 2.45-7.493 8.489-7.894 5.275a9 9 0 0 1-.02-1.796c-.765 1.152-2.138 1.864-3.516 1.838-.783-.022-.868-.56-.565-1.283 1.278-3.002 3.499-5.49 5.683-7.915-.922.686-1.896 1.351-3.001 1.66-1.851.52-3.453-.382-3.51-.911-.02-.152.068-.299.157-.425a15.6 15.6 0 0 1 1.593-1.974c-.637.269-1.895.553-2.337-.005-.225-.273-.193-.697.01-.985.315-.44.77-.367 1.195-.582.487-.246.87-.854 1.425-.98a6.05 6.05 0 0 1-4.206-.57c-.723-.38-.691-.883-.137-1.473a6.6 6.6 0 0 1 3.426-1.927c-1.018-.105-3.289-.698-3.525-1.593-.22-.87 1.346-.811 1.833-.749a8.8 8.8 0 0 1-3.42-1.482c-1.344-.978-.225-1.89 1.398-2.368 2.2-.665 4.62-.445 6.93-.214a28 28 0 0 1-3.446-2.19c-.938-.697-1.923-1.745-1.587-2.86.267-.853.964-.9 1.77-.712a15.2 15.2 0 0 1 5.752 2.713 19.6 19.6 0 0 1-3.63-4.909c-1.154-2.224 1.581-1.893 3.787-.686a15.2 15.2 0 0 1-1.823-2.965c-.571-1.266.02-1.832 1.236-1.566 2.149.35 4.993 1.89 6.873 4.19-.389-1.99-1.795-4.582-.555-6.652.183-.309.529-.613.854-.466.146.068.24.21.324.346a10.9 10.9 0 0 1 1.278 3.153c.032-1.76-.848-3.698.116-5.17.578-.875 1.31-.77 2.085-.032a10.63 10.63 0 0 1 3.305 7.722c.728-1.985 1.498-4.029 2.96-5.558.61-.64 1.484-.713 1.367.414-.23 2.084-1.137 4.2-2.08 6.055 1.36-1.642 5.12-5.44 7.093-5.861 1.724-.358 2.877 1.017 2.043 2.87-.325.728-.849 1.351-1.195 2.074.45-.162.797-.534 1.221-.754.424-.225 1.053-.23 1.278.194.142.256.073.576-.01.859-.693 2.373-2.222 4.45-3.746 6.464 2.4-2.153 5.019-4.41 8.224-4.783.45-.052 1.022.006 1.19.43.083.225.02.477-.058.702a7.06 7.06 0 0 1-2.095 3.064 10.3 10.3 0 0 1 2.32-1.152c1.168-.398 1.344.58.498 1.336a15.3 15.3 0 0 1-2.86 2.022c.9-.461 1.833-.854 2.792-1.19.637-.211.795-.172.895-.188 1.147-.04 1.378 1.085.687 2.19a6.24 6.24 0 0 1-2.63 2.294c.644-.23 1.357-.466 2.012-.24.65.22 1.073 1.136.586 1.623-.173.173-.414.252-.644.314a9.9 9.9 0 0 1-3.274.336c1.084.199 2.216.078 3.274.393 1.053.309 2.064 1.298 1.823 2.373-.168.764-.917 1.283-1.682 1.43-.77.141-1.555-.022-2.32-.179.524.294 1.063.608 1.393 1.1.33.498.383 1.237-.047 1.65-.361.341-.911.357-1.41.33a15 15 0 0 1-3.341-.581c1.418 1.039 3.738 2.945 5.81 4.908.795.755 1.602 1.572 1.906 2.625.133.492.069.81-.398 1.126" style="fill:#fcf1de"/><circle cx="326.129" cy="397.654" r="5.087" style="fill:#fd962f"/><path d="M340.934 382.566c-.782 2.68-2.956 5.401-2.887 5.301-1.038 1.039-2.198 2.641-3.012 3.761.431-2.586 2.715-6.484 1.98-7.663-.204-.325-.733-.445-.958-.136.414-.776.827-1.567 1.021-2.426.287-1.27-.003-2.644-1.147-3.263.513-.362 1.053-.686 1.666-.817 1.724-.358 2.877 1.017 2.043 2.87-.325.728-.849 1.351-1.195 2.074.45-.162.797-.534 1.221-.754.424-.225 1.053-.23 1.278.194.142.256.073.576-.01.859m8.994 15.988c-.168.764-.917 1.283-1.682 1.43-.77.141-1.555-.022-2.32-.179.524.294 1.063.608 1.393 1.1.33.498.383 1.237-.047 1.65-.361.341-.911.357-1.41.33a15 15 0 0 1-3.341-.581q.205.15.403.31c-1-.394-2-.771-3.022-1.101a8.4 8.4 0 0 0 3.562.157c.236-.036.487-.1.639-.283.157-.183.136-.524-.09-.602.43.052.692-.545.509-.938s-.613-.597-1.006-.775l3.216-.88c.552-.138.235-.61-.261-.728a27.4 27.4 0 0 0-8.963-.46c5.255-1.226 5.697-1.254 6.202-1.84.141-.162.241-.419.11-.587-.154-.2-.244-.153-2.734-.136 2.805-1.127 5.744-2.391 7.003-5.17.144.013.466-.03.775.24.53.473.294 1.347-.083 1.95a6.24 6.24 0 0 1-2.63 2.294c.644-.23 1.357-.466 2.012-.24.65.22 1.073 1.136.586 1.623-.173.173-.414.252-.644.314a9.9 9.9 0 0 1-3.274.336c1.084.199 2.216.078 3.274.393 1.053.309 2.064 1.298 1.823 2.373m-36.71-10.064q.613.378 1.189.818a19.6 19.6 0 0 1-3.63-4.909c-1.154-2.224 1.581-1.893 3.787-.686a15.2 15.2 0 0 1-1.823-2.965c-.571-1.266.02-1.832 1.236-1.566.032.005.058.01.09.021a.3.3 0 0 0-.032.084c-.363 1.33 1.412 4.246 2.357 5.427a7.5 7.5 0 0 0-2.719-.398c-.172.005-.356.02-.508.115-.382.246-.32.822-.162 1.252.775 2.111 2.582 3.65 3.855 5.505-1.367-.686-2.572-1.613-3.64-2.697m-1.2 19.129a7.8 7.8 0 0 1-1.45 1.085c-1.726.27-2.949-.617-2.992-1.021-.02-.152.068-.299.157-.425a15.6 15.6 0 0 1 1.593-1.974c-.637.269-1.895.553-2.337-.005-.225-.273-.193-.697.01-.985.315-.44.77-.367 1.195-.582.487-.246.87-.854 1.425-.98a6.05 6.05 0 0 1-4.206-.57c-.723-.38-.691-.883-.137-1.473a6.6 6.6 0 0 1 3.426-1.927c-1.018-.105-3.289-.698-3.525-1.593-.22-.87 1.346-.811 1.833-.749a8.8 8.8 0 0 1-3.42-1.482c-1.344-.978-.225-1.89 1.398-2.368.609 1.341 3.418 2.648 4.799 3.143-.734-.068-1.326.786-1.142 1.498.178.708.932 1.169 1.67 1.169-.356.042-.544.508-.403.838.3.71 1.31.655 1.902.874-.466.241-.954.508-1.2.97-.324.628-.084 1.424.393 1.948.477.519 1.137.822 1.781 1.11a8.9 8.9 0 0 0-2.865 1.588c-.917.764-.98 1.696.288 1.896.597.095 1.21.1 1.807.016m19.602 10.539a24 24 0 0 1-.67 3.531c-.657 2.44-2.168 2.505-3.259 1.142-2.319-2.866-1.467-8.216-1.907-10.838-.437 3.08-1.054 6.43-3.577 8.444-1.325 1.065-2.365.61-2.745-.456-.311-.862-.144-3.03-.053-3.944.356 1.906 1.644 2.091 2.761.948 1.818-1.854 1.886-4.751 2.876-7.156.639.811 1.139 1.636 1.823 1.614.597-.026.943-.681 1.163-1.236a28 28 0 0 0 .167 5.065c.131 1.042.42 2.221 1.357 2.698.623.314 1.351.22 2.064.189" class="st58"/><path d="M526.346 496.775c-51.29 58.204-126.263 89.641-204.801 85.03 14.713-27.143 37.908-49.232 56.233-74.376 49.13 2.456 98.667-3.45 145.84-17.38a922 922 0 0 1 2.728 6.726" class="st55"/></g></svg>