<svg xmlns="http://www.w3.org/2000/svg" xml:space="preserve" id="Layer_1" x="0" y="0" version="1.1" viewBox="0 0 665 665"><style>.st106{fill:#fcf4e8}.st140{fill:#f39f86}.st159{fill:#791c30}.st196{fill:#e64847}.st197{fill:#1e1936}.st198{fill:#2cb4d9}.st200{fill:#82354e}.st203{fill:#3861a5}.st205{fill:#fdfdfd}.st212{fill:#fbf1dd}.st1080{fill:#7bd4dc}</style><g id="Stop_Time"><ellipse cx="113.643" cy="570.53" class="st196" rx="26.512" ry="3.983"/><path d="M543.554 314.944c0 151.348-139.05 263.544-284.946 230.286C154.236 521.53 76.5 427.297 76.5 314.944c0-89.2 48.96-166.84 121.2-206.97 22.583-12.547 47.439-21.43 73.792-25.849a231 231 0 0 1 24.012-2.75q7.206-.452 14.52-.45c129.171 0 233.53 105.873 233.53 236.02" class="st203"/><path d="M403.975 98.805c-10.312 16.436-30.688 35.336-54.233 45.058-16.162 6.675-34.094 9.343-51.383 6.727-12.423-1.88-25.427-7.322-31.257-18.455-3.196-6.099-3.849-13.234-3.494-20.115a75.7 75.7 0 0 1 7.884-29.895 231 231 0 0 1 24.012-2.75q7.206-.452 14.52-.45c33.422 0 65.208 7.096 93.95 19.88" class="st198"/><linearGradient id="SVGID_1_" x1="259.211" x2="193.98" y1="116.157" y2="164.829" gradientUnits="userSpaceOnUse"><stop offset="0" style="stop-color:#823b52"/><stop offset="1" style="stop-color:#4b456e"/></linearGradient><path d="M283.705 138.498a267.7 267.7 0 0 0-47.62 48.993c-4.972-10.168-10.865-20.456-20.318-26.685-4.808-3.167-11.387-5.048-16.18-1.857-2.001-7.817-10.317-13.464-18.321-12.447 4.976-4.655 10.01-9.381 13.623-15.154 3.608-5.777 5.696-12.821 4.208-19.467a17.3 17.3 0 0 0-1.396-3.906 230.2 230.2 0 0 1 97.803-28.6c-14.27 15.567-19.05 39.272-11.8 59.123" style="fill:url(#SVGID_1_)"/><path d="M329.391 527.307c-9.5 8.935-22.658 16.32-35.96 23.076a232 232 0 0 1-29.237-3.958c2.413-2.232 4.175-4.067 11.89-11.387 6.531-6.186 13.518-11.978 19.113-18.935-1.017-.528-2.04-1.114-2.855-1.963-.014-.014-20.135 18.542-33.734 31.09-51.459-11.685-96.493-40.543-128.902-80.303 4.424-7.505 9.15-14.847 15.115-21.171 7.52-7.966 17.308-14.29 28.187-15.548 12.591-1.458 25.077 3.978 35.36 11.382 10.283 7.405 18.978 16.781 28.796 24.794 8.53 6.972 11.137 8.434 92.227 62.923" class="st198"/><path d="m250.73 485.994-25.984 32.04 37.945-28.133" class="st203"/><path d="m274.098 277.847-75.188 49.031c-18.325 7.98-36.137 17.75-50.744 31.392-14.612 13.637-25.888 31.483-29.002 51.224-1.042 6.598-1.166 13.306-1.018 19.981.168 7.582.691 15.187 1.848 22.678a236 236 0 0 1-35.418-75.462c1.017-12.058 4.515-23.997 10.048-34.885 8.407-16.545 23.95-30.35 42.37-32.625-8.963-14.165-11.204-32.385-5.94-48.297 5.269-15.912 17.932-29.203 33.57-35.226 20.265-7.807 43.74-3.263 62.54 7.61 18.796 10.87 33.613 27.429 46.934 44.579" class="st198"/><path d="M550.116 376.968c-14.64 45.308-39.876 83.447-70.769 111.196-47.428 42.592-108.178 60.673-164.335 42.53-14.117-4.56-20.596-8.693-45.053-20.212l-18.575-14.961s.677-2.217 1.454-4.468c-48.475-51.33-65.98-137.65-38.542-222.584 34.77-107.611 129.359-174.814 217.421-158.226l-5.077-8.335s45.855 22.615 46.244 22.788c76.589 40.778 111.052 147.579 77.232 252.272" class="st159"/><path d="M479.347 488.164c-47.428 42.592-108.178 60.673-164.335 42.53-14.117-4.56-20.596-8.693-45.053-20.212l-11.204-9.026c-3.703-30.739 8.212-55.2 26.42-67.856l138.341 46.868c4.573 3.992 9.151 7.984 13.724 11.977 7.29-6.003 16.22-10.135 22.241-17.41 6.459 4.627 12.932 9.262 19.866 13.13" class="st197"/><path d="M192.76 420.083c-29.998-78.103-12.502-173.016 37.779-240.327 47.287-63.305 123.547-100.875 196.55-77.29 95.075 30.718 137.589 150.433 101.178 263.128-16.972 52.532-50.294 101.024-96.982 131.552-92.619 60.56-199.195 25.335-238.524-77.063m189.262-323.26c-31.36 0-63.336 9.977-93.17 29.485-44.268 28.945-78.504 75.394-96.401 130.79-36.928 114.3 8.044 231.525 100.251 261.316 47.497 15.346 96.527 4.512 137.795-22.472 44.267-28.946 78.503-75.394 96.4-130.79 43.744-135.392-27.633-268.33-144.875-268.33" class="st196"/><ellipse cx="344.956" cy="304.329" class="st196" rx="218.559" ry="176.454" transform="rotate(-72.095 344.956 304.33)"/><path d="M522.867 239.426c-13.843-61.566-52.347-111.081-108.028-129.07-92.732-29.958-197.992 38.867-235.104 153.729-13.152 40.715-15.979 81.752-10.014 119.1-9.204-40.951-7.495-87.228 7.327-133.102 37.107-114.862 142.367-183.687 235.099-153.73 59.847 19.338 99.852 75.087 110.72 143.073" class="st140"/><ellipse cx="346.621" cy="306.832" class="st205" rx="182.936" ry="147.694" transform="rotate(-72.095 346.621 306.832)"/><path d="M560.366 283.59c-15.537 0-28.133 12.189-28.133 27.222s12.596 27.217 28.133 27.217c15.538 0 28.134-12.183 28.134-27.217s-12.596-27.222-28.134-27.222m0 47.976c-11.847 0-21.454-9.295-21.454-20.754 0-11.463 9.607-20.753 21.454-20.753s21.45 9.29 21.45 20.753c0 11.46-9.602 20.754-21.45 20.754" class="st197"/><path d="M556.015 281.612c-15.538 0-28.134 12.189-28.134 27.222s12.596 27.217 28.134 27.217 28.134-12.183 28.134-27.217-12.596-27.222-28.134-27.222m0 47.976c-11.847 0-21.454-9.295-21.454-20.754 0-11.463 9.607-20.753 21.454-20.753s21.45 9.29 21.45 20.753c0 11.46-9.602 20.754-21.45 20.754" class="st203"/><path d="M543.897 317.899c-10.725 3.09-21.69.739-32.462-.62a387 387 0 0 1-9.137-1.261c-2.413-.36-4.976.163-7.284-.71-4.438-1.675-2.764-7.222-2.077-10.879l.71-1.66c8.228-1.568 16.663-2.734 25.178-3.58 8.032-.806 16.031-4.026 24.184-2.788 4.559.691 11.037 3.662 12.438 8.48 1.97 6.78-4.772 11.062-11.55 13.018" class="st203"/><path d="M553.412 312.74c-2.433 2.558-6.305 4.233-9.515 5.159-10.725 3.09-21.69.739-32.462-.62a387 387 0 0 1-9.137-1.261c-2.413-.36-4.976.163-7.284-.71-4.438-1.675-2.764-7.222-2.077-10.879l.71-1.66c1.636-.312 3.272-.61 4.913-.883 2.035 2.889 3.22 6.368 3.34 9.895 16.602 5.091 34.25 4.283 51.512.96" class="st197"/><path d="M443.749 309.547a350 350 0 0 1 11.395-6.595c1.21-.67 1.711-.723 3.128.058a95 95 0 0 1 12.528 8.26c-6.755 6.371-13.22 14.585-22.448 17.902" class="st196"/><path d="M91.965 515.602c.043.696.091 1.392.154 2.092a56 56 0 0 0-.586 2.352zm42.755-10.772c-.49.988-1.267 1.804-2.04 2.6-5.2 5.337-10.826 10.494-16.382 15.457-4.457 4.007-5.615 5.073-7.034 5.907-2.349 1.396-6.468 2.437-9.295 1.746-2.946-.72-5.202-3.23-6.377-6.027-.907-2.154-1.267-4.482-1.473-6.819.436-1.573.993-3.109 1.838-4.496 1.261-2.077 3.411-3.862 5.82-4.208 8.986-7.712 17.253-16.27 26.363-22.99.38-.278 5.907 8.906 6.3 9.65 1.335 2.539 3.72 6.277 2.28 9.18" class="st140"/><path d="M116.298 522.887c-4.457 4.007-5.615 5.073-7.034 5.907-2.349 1.396-6.468 2.437-9.295 1.746-2.946-.72-5.202-3.23-6.377-6.027-.907-2.154-1.267-4.482-1.473-6.819.436-1.573.993-3.109 1.838-4.496 1.261-2.077 3.411-3.862 5.82-4.208a260 260 0 0 0 5.182-4.583 88 88 0 0 0 11.34 18.48" class="st106"/><path d="M134.72 504.83c-.49.988-1.267 1.804-2.04 2.6a239 239 0 0 1-7.303 7.16c-4.604-4.204-8.983-12.876-11.358-18.474 3.954-3.575 7.97-7.054 12.121-10.116.38-.278 5.907 8.906 6.3 9.65 1.335 2.539 3.72 6.277 2.28 9.18" class="st200"/><path d="M87.257 509.482a39.4 39.4 0 0 0-9.591 9.128c-.246.33-.494.68-.556 1.087-.16 1.056 2.451 11.098 4.836 18.084a29 29 0 0 1 4.17-2.18c2.224 8.432 1.315 10.597 2.062 14.228.572 2.781 1.16 5.607 2.498 8.11 1.815 3.395 4.488 6.27 7.49 8.652 6.293 4.994 6.358 4.04 11.709 4.437 4.13.306 8.337.39 12.485.195 1.96-.092 4.532-.226 5.824-1.702 4.125-4.714-6.641-10.554-9.705-12.709-8.497-5.98-15.176-14.508-18.944-24.192-2.474-6.359-3.751-13.251-7.314-19.07" class="st197"/><path d="M128.885 565.939c-2.946.53-7.648.52-12.15.605-8.964.164-17.356-5.202-20.782-13.85-2.61-6.602-4.022-13.742-5.835-20.594-1.545-5.822-3.113-11.8-3.388-17.884-.053-1.234-.49-3.623.413-4.655.115-.134.278-.22.436-.307 4.127-2.145 9.089-2.577 13.522-1.18-3.678 3.771-3.61 3.664-3.723 3.906-.213.448-.21 3.293-.178 3.92.226 4.443 2.308 8.719 4.257 12.625-.148-.296 1.102-2.068 2.759-3.177 3.163-2.1 7.073-1.595 10.667-.35.432.149.868.317 1.219.604 2.104 1.797 1.582 4.902 1.655 7.433.187 6.304.466 9.457.466 9.804.072 1.113-.058 2.553.297 3.618.302.888.955 1.795 1.368 2.644 5.607 11.48 5.998 8.408 8.997 16.838" class="st203"/><path d="M118.218 542.772a33.4 33.4 0 0 0-13.066 3.651c-.223-5.246-.251-5.05-.135-5.25.086-.158.254-.244.413-.32a57 57 0 0 1 8.052-3.25c-3.417 0-7.37.08-9.655 2.961.12-1.813.245-3.623.365-5.436a28 28 0 0 1 9.558-2.347c.874-.053 1.785-.082 2.544-.518a56 56 0 0 0-8.379-.504c-1.314.02-2.672.091-3.862.652a9 9 0 0 1-.096-3.027 30.3 30.3 0 0 1 13.805 1.012c.023 1.447-.144 2.945.456 12.376" class="st197"/><ellipse cx="324.378" cy="572.907" class="st196" rx="143.908" ry="13.168"/><path d="M420.922 549.782c-2.02 4.185-6.684 6.579-11.295 7.126-4.247.504-10.197.374-13.234-3.172-1.796-2.102-3.078-4.618-3.71-6.991-.033-.12.024-.235.015-.365-.373-3.988-1.353-6.672-6.79-25.135a260 260 0 0 1 25.346-4.904c2.732 11.268 6.032 21.802 9.707 31.498.3.817.359 1.135-.039 1.943" class="st140"/><path d="M420.922 549.782c-2.02 4.185-6.684 6.579-11.295 7.126-4.247.504-10.197.374-13.234-3.172a18.2 18.2 0 0 1-3.585-6.564 58.6 58.6 0 0 0 25.519-6.632 245 245 0 0 0 2.634 7.299c.3.817.359 1.135-.039 1.943" class="st106"/><path d="M414.008 526.807c-6.917 4.035-16.857 8.007-24.098 8.023l-4.002-13.585a260 260 0 0 1 25.346-4.904 271 271 0 0 0 2.754 10.466" class="st200"/><path d="M389.242 563.326a36 36 0 0 0-.854 5.268c-.412 4.718 4.836 4.655 8.234 5.138 4.524.644 9.079 1.07 13.644 1.274 1.02.046 1.725-.04 2.587-2.063.18-.422 6.203 1.562 6.813 1.743 9.79 2.908 12.49 2.73 35.034-.106.434-.055.581-.133.776-.584.634-1.472.913-3.103.809-4.702-.095-1.462-.662-2.03-1.644-3.028-2.225-2.258-5.137-3.34-8.155-4.116-11.312-2.906-31.3-4.36-42.925-4.77" class="st197"/><path d="M455.539 567.206c-.178 1.602-1.977 1.612-3.205 1.914-5.344 1.32-16.87 2.88-21.987 2.308-3.906-.436-7.591-1.967-11.373-3.028-9.678-2.706-20.014-2.303-29.698-4.99 1.368-5.893 2.687-11.881 3.378-17.889q.62 1.793 1.234 3.585c3.307 1.816 10.052 3.465 16.708 2.917-.01-2.107 1.113-3.891 2.577-5.307 1.598-1.545 3.858-2.294 5.878-3.196.355-.163.73-.321 1.123-.297 1.008.072 1.574 1.166 2.164 1.895.263.342 2.937 3.167 3.11 3.35 4.816 5.088 6.036 5.135 11.785 6.99 2.6.84 5.302 1.296 7.975 1.853 5.906 1.238 7.538 2.656 9.784 7.654.317.71.629 1.463.547 2.24" class="st203"/><path d="M431.34 553.352c-3.205 1.723-6.3 3.628-9.074 5.97a955 955 0 0 0-3.186-3.115 84 84 0 0 1 5.518-5.849 23.2 23.2 0 0 0-6.77 4.204c-.586-.735-1.171-1.474-1.757-2.208a58 58 0 0 1 6.507-4.822 32.5 32.5 0 0 0-8.498 4.693q-.808-1.079-1.608-2.164a27.7 27.7 0 0 1 9.866-4.943c.263.342 2.937 3.167 3.11 3.35 1.699 1.795 3.628 3.787 5.892 4.884m-88.932-241.407c-1.7-1.12-2.71-.78-4.207.252-7.63 5.264-14.07 12.13-19.458 19.673-3.753 5.254-7.062 10.96-8.542 17.244s-.964 13.241 2.499 18.69c1.696 2.67 4.023 4.884 6.508 6.839 2.549 2.005 5.413 3.813 8.63 4.227s6.838-.904 8.287-3.805c8.619-17.258 7.572-14.869 9.531-31.37 1.096-9.228 4.56-26.605-3.248-31.75" class="st197"/><path d="M439.608 341.872c-5.331 4.108-10.989 7.97-17.376 10.101-11.997 4.012-19.537 4.429-36.905-2.126-13.45-5.081-26.824-12.442-36.699-23.057-1.8-1.94-1.972-2.744-1.78-5.12 1.103-13.781 2.212-27.557 3.32-41.339l9.32-5.345c2.794 2.714 32.852 31.898 35.791 34.76 2.361 2.294 4.338 5.691 7.587 6.828 3.738 1.315 8.013-.22 11.65-1.108l30.677-7.471a47.4 47.4 0 0 0 13.743 15.945c.682.658-18.244 17.102-19.328 17.932" class="st203"/><path d="M439.608 341.872c-5.331 4.108-10.989 7.97-17.376 10.101-11.997 4.012-19.537 4.429-36.905-2.126-13.45-5.081-26.824-12.442-36.699-23.057-1.8-1.94-1.972-2.744-1.78-5.12 1.103-13.781 2.212-27.557 3.32-41.339l9.32-5.345 33.066 32.111a82 82 0 0 0-14.636-3.642c-3.498-.532-7.198-.816-10.465.542-4.271 1.776-7.083 6.258-7.51 10.864-.422 4.602 1.3 9.238 4.084 12.932 9.1 12.113 23.629 9.578 36.53 1.483-5.398 5.605-13.1 8.925-20.883 8.997 23.662 10.663 53.677 5.12 71.969-13.292a261 261 0 0 1-9.434-16.257c.993-.245 1.991-.49 2.984-.73a47.4 47.4 0 0 0 13.743 15.946c.682.658-18.244 17.102-19.328 17.932" style="fill:#1f456f"/><path d="M421.598 520.44a309 309 0 0 1-49.478 9.44 558 558 0 0 1-13.892-65.41c-.595-3.953-1.8-8.387-1.458-12.384.096-1.133 1.036-3.225.278-4.247-.73-.984-4.9-1.43-6.123-1.79-14.828-4.362-25.718-8.81-37.476-13.047-15.84-5.955-31.836-12.03-45.054-22.462l-5.705-21.04a103.3 103.3 0 0 1 11.982-20.648c7.15-9.61 19.898-22.482 31.032-26.786 4.654-1.804 9.549-2.51 14.376-1.228a86.6 86.6 0 0 0-1.401 18.018c.06 2.318.449 2.898 1.943 4.074 4.317 3.401 9.437 7.85 14.012 11.584 16.24 13.168 17.065 9.899 41.709 29.319 4.481 3.527 10.446 7.102 14.074 11.507 2.98 3.618 5.302 8.268 7.52 12.394 3.137 5.845 4.212 13.72 5.858 20.178 1.93 7.548 3.714 15.135 5.715 22.663 4.41 16.57 6.867 33.456 12.088 49.866" class="st196"/><path d="M399.713 525.65a309 309 0 0 1-27.591 4.228 558 558 0 0 1-13.892-65.409c-.595-3.953-1.8-8.387-1.459-12.385.096-1.132 1.037-3.224.278-4.246-.729-.984-4.899-1.43-6.122-1.79-14.84-4.365-25.67-8.793-37.477-13.047-15.773-5.931-31.828-12.02-45.053-22.462l-5.706-21.041a103 103 0 0 1 7.774-14.574l18.954-2.658c2.29 9.328 1.176 19.453-3.085 28.062a145 145 0 0 1 20.974-8.283L293.45 402.05a447 447 0 0 1 32.395-3.373 265 265 0 0 1-28.935 6.871c17.644 5.893 32.764 17.395 49.141 26.224 13.244 7.136 27.357 12.544 40.716 19.463-8-1.06-16.272-1.612-24.146-3.306 5.916 28.316 20.47 53.84 37.092 77.721" class="st159"/><path d="M297.557 348.163c-1.468 7.985-3.061 16.022-5.24 23.853-7.812 28.002-18.557 37.495-36.67 58-4.63 5.245-9.14 10.624-13.004 16.469-3.843 5.815-6.444 11.147-11.329 16.175-19.598 20.168-50.985 32.576-65.236 45.116-7.049 6.195-13.868 12.745-21.21 18.705-.806.664-1.275.814-2.413.201-4.218-2.231-7.562-5.806-10.518-9.554a87.2 87.2 0 0 1-14.904-28.618c-.35-1.166-.27-1.573.6-2.48 13.78-14.44 30.892-25.97 48.781-35.174 12.468-6.474 15.184-6.74 17.092-8.512 1.709-1.565 1.877-3.537 2.86-6.603 1.1-3.425 8.425-20.007 11.891-28.235 9.353-22.258 16.058-34.202 38.403-63.01a1028 1028 0 0 1 10.667-13.493c4.016-.47 9.429-.292 14.112.336a48 48 0 0 1 4.458.787c6.483 1.493 12.562 4.329 18.594 7.145 4.924 2.3 10.225 4.3 13.066 8.892" class="st196"/><path d="m261.44 331.34-7.079 6.679c-12.801 16.275-41.36 54.11-51.632 71.944-10.566 18.36-17.145 38.71-23.1 59.041 1.18-8.892 2.4-17.802 3.877-26.66 1.709-1.565 1.877-3.537 2.86-6.603 1.1-3.425 8.425-20.007 11.891-28.235 5.206-12.39 11.027-24.611 18.551-35.787 9.482-14.074 19.9-27.486 30.519-40.716 4.016-.47 9.429-.292 14.112.336" class="st159"/><path d="M323.196 364.996c-8.307 4.81-18.982 7.56-30.879 7.02-21.488-.965-40.48-12.28-55.657-27.52a1028 1028 0 0 1 10.667-13.493c4.016-.47 9.429-.292 14.112.336a48 48 0 0 1 4.458.787c6.483 1.493 12.562 4.329 18.594 7.145 4.43 2.068 9.314 3.954 12.26 7.736 6.878-4.84 15.163-8.339 23.33-6.171a86.6 86.6 0 0 0-1.4 18.018c.081 3.165.687 3.002 4.515 6.142" class="st197"/><path d="M352.201 290.155c-3.225 31.606-19.274 48.654-33.46 68.85-19.801 1.137-29.917 1.209-46.708-5.418-8.832-3.485-17.52-7.975-24.046-14.871-.892-.945-1.775-1.982-2.106-3.244-1.128-4.242 3.829-9.198 5.936-12.466a1019 1019 0 0 1 38.565-55.682c5.445-7.324 9.48-17.233 16.008-23.283 4.417-4.24 5.66-1.417 9.458.37 2.342 1.108 4.506 2.553 6.655 3.983 1.248.83 2.644 1.583 3.772 2.572 2.317 2.027.59 1.19 11.214 5.556 1.646.682 3.297 1.377 4.789 2.347 4.261 2.77 7.1 7.83 8.729 12.682 1.108 3.25 1.157 5.197 1.137 8.623-.024 3.412.403 6.574.057 9.981" class="st212"/><path d="M290.885 357.998c-.878-1.314 3.918-.501 14.68-16.733a196.6 196.6 0 0 0 27.545-63.584.48.48 0 0 1 .934.221 197.6 197.6 0 0 1-27.68 63.893c-3.983 6.008-8.535 12.146-14.814 16.336a.48.48 0 0 1-.665-.133" class="st140"/><path d="M351.007 271.551c-2.975 5.792-7.246 10.922-12.438 14.847a26 26 0 0 0-4.99-9.132 38.8 38.8 0 0 1-8.201 12.13c-8.033-12.038-10.754-26.832-11.891-41.266l-7.294-3.897c4.547-4.547 5.936-1.572 9.655.178 2.342 1.108 4.506 2.553 6.655 3.983 1.248.83 2.644 1.583 3.772 2.572 2.317 2.027.59 1.19 11.214 5.556 1.646.682 3.297 1.377 4.789 2.347 4.261 2.77 7.1 7.83 8.729 12.682m-58.763 28.542c-6.599 18.075-19.274 34.174-33.594 47.04-3.902-2.352-7.53-5.106-10.663-8.417-.892-.945-1.775-1.982-2.106-3.244-1.128-4.242 3.829-9.198 5.936-12.466a1019 1019 0 0 1 20.21-30.164z" class="st140"/><path d="M304.16 244.338c-1.433 7.932-4.118 16.163-7.999 23.901-4.247 8.46-8.054 10.04-14.467 9.722-17.554-.838-32.927-12.786-50.351-15.183-36.708-32.324 10.712 9.434-24.852-21.886 4.961-5.44 12.557-7.126 19.837-8.555 15.426-3.043 19.513-3.152 34.276-1.358 14.65 1.784 29.487 3.728 43.105 9.405.322.129.662.287.816.595.159.306.153.591-.365 3.359" class="st203"/><path d="M303.498 247.596a89.2 89.2 0 0 1-7.337 20.643c-4.247 8.46-8.054 10.04-14.467 9.722-17.587-.845-32.909-12.783-50.351-15.183l-14.664-12.917 6.08-12.481c11.506-.293 22.912 2.946 33.239 8.037 9.77 4.813 15.284 10.898 24.022 17.323 6.56-7.28 15.199-13.947 21.758-21.227.509 1.934 1.605 4.086 1.72 6.083" class="st197"/><path d="M304.16 244.338c-24.772-4.227-58.63-16.552-88.393-5.6-5.257 1.927-10.497 4.772-14.021 9.093.988-3.617 3.128-6.73 6.482-8.613 4.885-4.137 11.7-5.624 18.1-6.881 15.426-3.043 19.513-3.152 34.276-1.358 14.65 1.784 29.487 3.728 43.105 9.405.322.129.662.287.816.595.159.306.153.591-.365 3.359" class="st1080"/><path d="M314.797 248.48v.005c-1.07 2.227-2.484 5.197-3.095 7.596-1.262 4.985-1.948 10.096-3.234 15.077-4.412 17.081-16.23 31.567-30.245 42.4-13.983 10.815-30.14 18.411-46.148 25.916-6.9-13.096-20.717-20.747-33.786-27.687 21.194-11.141 40.681-11.308 67.549-31.037a133.5 133.5 0 0 0 22.524-20.945c4.867-5.704 9.098-12.045 12.764-18.72.36-.657.5-1.468 1.29-1.607.932-.173 2.347.264 3.273.446 3.762.725 8.024 1.814 11.19 4.045.1.067.18-.162-2.082 4.511" class="st203"/><path d="M259.985 287.318c-5.81 7.049-14.63 10.782-23.172 14.035-11.57 4.41-23.282 8.412-35.034 12.294-1.166-.628-2.332-1.247-3.488-1.862 19.258-10.119 36.332-10.983 59.554-25.6z" class="st1080"/><path d="M290.873 302.02c-15.942 17.306-37.627 27.528-58.796 37.453-6.895-13.09-20.72-20.754-33.786-27.688l.854-.446 5.086 1.57c12.208-1.632 24.482 1.799 36.786 2.245 17.385.633 34.563-4.76 49.856-13.134" class="st197"/><path d="M316.924 243.997c.039.024-1.238 2.653-2.125 4.487-5.106-1.315-10.101-3.115-15.063-4.933q.707-1.223 1.392-2.467c.36-.657.499-1.468 1.29-1.607.931-.173 2.347.264 3.273.446 3.776.73 8.061 1.823 11.233 4.074" class="st1080"/><path d="M360.21 276.388c-.933 8.01-2.186 11.64-2.817 14.544-1.954 8.99-4.558 18.07-5.513 27.223-1.987 19.098 2.76 34.365-12.716 55.835-.613.853-1.385 1.86-2.395 2.236a237 237 0 0 1-2.135-1.713c3.382-5.673 5.17-12.366 6.152-18.877 1.847-11.685.714-24.25 2.855-55.476 1.695-24.885 2.592-22.781 2.154-27.697-.34-3.863-.556-7.774.087-11.617 0 .235 1.593 1.391 1.809 1.578l10.125 8.873c2.589 2.275 2.618 3.201 2.394 5.091" class="st198"/><path d="M351.443 324.273c-.74 16.934 1.373 30.778-12.28 49.717-.612.853-1.384 1.86-2.394 2.236a237 237 0 0 1-2.135-1.713c4.194-7.203 5.945-15.38 6.742-23.791a24 24 0 0 0 2.946-.23 260 260 0 0 1 7.121-26.22" class="st203"/><path d="M332.963 273.027a119 119 0 0 1 7.027 9.774c3.132-3.926 4.9-8.741 6.527-13.492.483-1.412.96-2.832 1.24-4.298.65-3.42.202-7.377-.578-10.769-.46-2-1.067-2.495-2.495-2.879-2.14-.576-3.565-.332-5.603 1.754-2.278 2.332-3.906 5.207-5.508 8.046" class="st205"/><path d="M357.213 249.347c-2.073 2.707-4.842 4.78-7.323 7.112-6.475 6.081-14.249 17.83-19.218 17.538-1.123-.062-2.12-.638-3.013-1.281-.999-.715-1.387-1.497-1.939-2.586-4.879-9.61-7.4-20.37-7.318-21.387.024-.365.197-.7.37-1.027a99 99 0 0 1 5.801-9.55c1.18-1.722 2.294-3.589 3.724-5.08 3.004-3.15 7.748-4.044 11.401-2.952l-2.409 3.992c6.042 5.84 12.25 11.795 19.924 15.221" class="st140"/><path d="M330.407 277.823c-1.637 2.726-2.27 5.82-3.854 8.522-4.29-5.321-10.466-20.876-11.756-37.86v-.005c2.279-4.706 2.183-4.444 2.082-4.51 1.234.287 2.611.858 3.235 1.08.277.101.355.187.355.55a29.8 29.8 0 0 0 1.29 8.518c.807 2.644 2.27 5.053 3.619 7.467a154 154 0 0 0 7.442 12.006c.336.508-2.092 3.7-2.413 4.232" class="st205"/><path d="M357.213 249.347c-2.073 2.707-4.842 4.78-7.323 7.112-1.977 1.857-3.781 3.891-5.566 5.945-1.704-1.29-3.114-2.975-4.328-4.746-5.722-8.366-6.289-16.883-6.963-18.292-.629-1.322-2.503-2.252-4.736-6.28 3.004-3.15 7.748-4.044 11.401-2.952l-2.409 3.992c6.042 5.84 12.25 11.795 19.924 15.221" class="st196"/><path d="M364.468 209.112c-.638 1.094-1.128 2.073-2.01 3.032-7.118 7.79-12.394 3.05-15.514 12.831-.682 2.117-1.152 4.324-2.203 6.287-1.05 1.957-2.836 3.695-5.043 3.963-1.747.216-3.455-.499-5.067-1.195l-4.823-1.76c.154 2.465.293 2.474-.235 2.855a156 156 0 0 1-5.518 3.771c-.312-2.366-1.334-4.616-2.212-6.819-2.25-5.653-5.52-10.217-5.59-10.873-.043-.546 1.872-4.67 4.659-7.467-.298.312-1.939.087-2.337.077a20.85 20.85 0 0 1-8.023-1.857c1.084-1.88 2.716-3.402 4.54-4.573 9.06-5.811 11.294-.838 13.34-2.922.858-.873 1.866-1.574 2.897-2.227 9.496-6.027 20.316-7.396 22.678-6.55.965.346 1.814 1.195 1.862 2.217.06 1.41-1.704 3.835-2.687 4.876-.043.048-.091.09-.134.139a17.3 17.3 0 0 1 9.203.105c1.287.366 2.684 1.06 3.11 2.323.436 1.3-.255 2.673-.893 3.767" class="st197"/><path d="M352.798 199.414a7.44 7.44 0 0 1-3.772 2.797c-2.879.931-6.027.03-9.02.456-4.269.62-7.374 3.706-14.972 3.187 1.08.364 2.154.724 3.234 1.084a23.7 23.7 0 0 0-10.25 3.532 17.2 17.2 0 0 1 6.66.513 24.7 24.7 0 0 0-3.862 2.86q.044-.056.096-.106c-.298.312-1.939.087-2.337.077a20.85 20.85 0 0 1-8.023-1.857c1.084-1.88 2.716-3.402 4.54-4.573 9.06-5.811 11.294-.838 13.34-2.922.858-.873 1.866-1.574 2.897-2.227a44.8 44.8 0 0 1 19.132-6.689c-2.025 2.092-5.297 2.817-8.292 3.114a15.32 15.32 0 0 0 10.629.754" class="st203"/><path d="M363.604 203.545c-6.48 8.988-21.17 2.772-32.726 4.093 6.944-3.215 15.47-1.43 22.304-4.86-.043.048-.091.09-.134.139 4.006-1.065 8.428-.46 10.556.628" class="st203"/><path d="M363.043 240.58c-.593 8.072-.62 9.479-1.205 11.061-.326.892-.911 1.92-1.746 2.433-.643.398-1.512.393-2.246.542-2.231.46-4.496.274-6.747.062-6.096-.59-9.53-3.19-13.35-8.066-1.967-2.514-2.566-5.94-3.68-8.877-.194-.529-.3-.629-.763-.922-3.402-2.192-5.446-6.314-5.403-10.336.01-.892-.072-1.866.346-2.682.945-1.876 2.95-2.5 4.813-1.473 2.838 1.569 4.759 6.716 5.983 9.39.024.054 1.838-.417 1.958-.465.984-.408 1.056-1.339 1.109-2.294.172-3.109.441-6.593-.255-9.625-.372-1.593-.216-1.736-2.053-3.863a19.7 19.7 0 0 0-3.575-3.234c.763.086 1.497.34 2.236.566 7.527 2.289 13.987 1.356 20.792-.034.96-.201 1.862-.667 2.807-.955.027 3.406 1.027 5.274 1.828 11.877.65 5.036.096 3.86-.85 16.895" class="st140"/><path d="M349.09 225.29c-.709.2-1.405.548-2.138.488-.73-.06-.056-1.088.153-1.363.27-.355.616-.642.965-.916 1.988-1.556 5.009-2.374 6.934-.893.886.68 1.494 1.405.414 1.67-2.03.498-4.956.629-6.329 1.014" class="st197"/><ellipse cx="351.873" cy="228.426" class="st197" rx="1.213" ry="1.722"/><path d="M363.892 223.685c-.468.085-2.864.52-3.31.34-.639-.25.124-1.338.359-1.674.585-.828 1.547-1.361 2.548-1.584.138.94.314 2.18.403 2.918" class="st197"/><ellipse cx="363.057" cy="228.797" class="st197" rx="1.213" ry="1.722"/><path d="M359.74 227.169c.657 1.68 1.195 4.025 1.493 5.732.12.77.33 1.595.098 2.378-.198.708-.877 1.354-1.97 1.468-.53.043-1.03-.025-1.52-.134.88-.183 1.904-.278 2.461-1.037.579-.751-.015-1.5-.42-5.435-.1-.982-.167-1.969-.142-2.972" class="st159"/><path d="M330.014 225.41c.101-.165.257-.292.425-.388 2.938-1.683 7.679 5.126 3.894 7.623.507-1.06.702-2.304-.038-3.205-.688-.838-1.796-.981-2.795-1.177-1.366-.269-1.955-2.08-1.486-2.853" class="st196"/><path d="M361.521 241.267a11.23 11.23 0 0 1-7.914-1.85c-.048.4-.106.852.052 1.222 1.218 2.84 4.646 3.918 6.287 3.152.909-.425 1.196-1.595 1.575-2.524" class="st159"/><path d="M223.526 236.42c-7.833 1.833-16.72 5.208-21.78 11.41.815-2.984 2.466-5.714 4.913-7.58 4.34-3.297 11.416-4.214 16.867-3.83" class="st1080"/><path d="M211.04 479.086c-15.999 10.676-35.598 20.45-44.962 28.69-7.049 6.195-13.868 12.745-21.21 18.705-.806.664-1.275.814-2.413.201-5.319-2.813-9.677-8.146-13.22-13.177 10.303-8.666 22.232-15.302 34.266-21.42 15.048-7.655 30.785-14.621 47.54-13" class="st159"/><path d="m166.716 491.13-.259 7.318c-6.243-15.034-6.228-32.544-.043-47.592a192 192 0 0 1 2.61-1.33c-5.551 13.038-6.42 28.034-2.308 41.604" class="st159"/><path d="M499.232 310.245a6.61 6.61 0 0 1-6.377 4.9c-.804 0 7.382.923-193.275-23.326l4.828-8.882 189.1 19.016a6.616 6.616 0 0 1 5.724 8.292" class="st196"/><path d="M499.232 310.245a6.61 6.61 0 0 1-7.183 4.851L299.58 291.82l2.428-4.463z" class="st159"/><path d="M309.84 289.766c-.23.581-.653 1.133-1.252 1.3-1.507.428-2.702-2.22-2.702-3.41-.105 2.46.552 5.421-.672 7.686-.864 1.603-2.284 1.14-2.696-.532-.188-.74-.255-1.58-.811-2.102-.077 1.166.105 2.36-.207 3.484-.312 1.127-1.382 2.188-2.519 1.92-.653-.15-1.152-.706-1.41-1.325-.26-.62-.322-1.3-.375-1.968a8.9 8.9 0 0 1-1.742 4.52c-.854 1.148-1.72 1.014-2.27-.033-.825-1.57-.532-3.513-1.175-5.163-.068-.137-.136-.388-.37-.533-.283-.173-.643-.057-.969.014-2.8.593-4.902-2.535-6.732-3.843-4.473-3.186-11.027-1.056-15.874-3.637 3.94-23.634 2.58-15.483 2.875-17.246 5.09 2.293 13.006 3.508 15.336 3.344 3.546-.254 6.698-2.298 10.043-3.268 3.724-1.08 5.902 1.478 7.812 4.329a42.1 42.1 0 0 1 5.537 12.02c.408 1.454.73 3.042.173 4.443" class="st140"/><path d="M292.009 294.143c-.068-.137-.136-.388-.37-.533-.283-.173-.643-.057-.969.014-2.8.593-4.902-2.535-6.732-3.843-4.473-3.186-11.027-1.056-15.874-3.637l.533-3.206c2.178.686 4.376 1.363 6.655 1.588 2.678.264 5.572-.072 7.899 1.291 1.87 1.1 3.338 3.38 5.662 3.167.83-.072 1.79-.47 2.409.087.269.24.384.604.475.955.34 1.338.437 2.74.312 4.117" class="st196"/><path d="M269.618 264.486a126 126 0 0 0 8.135 5.333 188 188 0 0 0-9.203 20.254 61 61 0 0 1-9.86-2.602c-.447-.159-.629-.288-.75-.894-.344-1.703.001-3.462.372-5.158 1.045-4.778 2.304-9.506 3.563-14.232" class="st212"/><path d="M271.933 266.382a94.8 94.8 0 0 0-9.126 18.503c-.653 1.795-1.262 3.728-.826 5.595-18.32-.365-36.872-6.425-50.802-18.445-1.77-1.531-3.488-3.158-4.846-5.068-2.802-3.94-5.067-9.304-5.197-14.16-.124-4.746 1.749-9.679 5.523-12.558 4.345-3.3 11.423-4.213 16.867-3.829 6.137.43 9.644 2.076 15.326 4.62 12.06 5.395 24.046 13.59 32.885 23.542.666.755.647 1.105.196 1.8" class="st203"/><path d="M261.981 290.48c-18.32-.365-36.872-6.425-50.802-18.445-1.77-1.531-3.488-3.158-4.846-5.068-3.306-4.648-5.837-11.09-5.043-16.92 4.467 9.392 12.83 16.714 22.14 21.512 12.069 6.219 26.25 8.825 40.159 11.253-1.06 2.704-2.154 5.333-1.608 7.668" class="st197"/><path d="M296.94 295.316c-.475-5.225-1.48-7.981-3.3-12.01 2.294 3.1 3.705 7.857 3.3 12.01m4.74-2.018c-.363-5.592-1.317-8.594-3.1-13.042 2.3 3.513 3.586 8.642 3.1 13.042m4.15-5.121c-.818-3.935-1.735-6.563-3.595-10.213 2.227 2.757 3.601 6.728 3.595 10.213" class="st196"/><path d="M490.31 305.149c.434 2.05.382 4.252.187 6.325-.114 1.207-.32 2.436-.944 3.506s-1.74 1.967-3.062 2.112c-1.208.132-2.44-.362-3.63-.136-.575.108-1.105.38-1.686.458-.81.108-1.614-.172-2.407-.362-4.3-1.032-6.373.718-9.042.778-7.858.177-8.079-10.891-7.34-15.626.143-.915.358-1.843.888-2.631.53-.789 1.427-1.423 2.441-1.47 1.015-.048 2.077.629 2.168 1.549-.204-1.7 1.22-3.396 3.05-3.783 1.831-.386 3.856.487 4.809 1.96-.026-1.507 1.78-2.708 3.416-2.466s2.877 1.648 3.1 3.142c1.357-2.374 4.752-2.67 6.309-.796 1.357 1.636 1.286 5.277 1.744 7.44" class="st140"/><path d="M555.668 308.729c-11.07 1.071-32.457.809-53.931-2.332.14-1.632.1-3.278-.1-4.9a305 305 0 0 1 17.188-2.188c8.032-.806 16.031-4.026 24.184-2.788 4.559.691 11.037 3.662 12.438 8.48.393 1.353.436 2.595.22 3.728" class="st1080"/><path d="M482.028 298.438c.167 2.794.084 3.271.63 10.156l.299 3.386c-.983-3.683-1.423-9.34-.929-13.542m-6.318-.554c.007.102.56 12.264.574 13.274-.74-3.474-1.053-9.167-.573-13.274m-8.063 1.478c.408 2.144 1.958 11.957 2.153 13.642-1.05-3.348-2.08-9.233-2.153-13.642" class="st196"/><ellipse cx="361.781" cy="151.804" class="st197" rx="16.389" ry="12.62" transform="rotate(-62.699 361.78 151.804)"/><ellipse cx="357.568" cy="148.478" class="st196" rx="16.389" ry="12.62" transform="rotate(-62.699 357.568 148.478)"/><path d="m410.806 178.522 17.47-24.975c1.899-2.709 5.994.156 4.097 2.866l-17.47 24.974c-1.883 2.691-6.01-.132-4.097-2.865" class="st196"/><path d="m189.859 198.758-67.488 28.897c-.678-3.648-2.298-8.137.182-10.896 2.176-2.42 5.933-2.704 9.085-1.896-3.814-6.474-3.17-14.737-.622-21.806 1.06-2.94 2.483-5.853 4.826-7.921 4.174-3.683 10.597-3.921 15.741-1.794s9.207 6.234 12.685 10.58c-.24-2.485 2.4-4.565 4.89-4.414 2.491.15 4.616 1.954 5.961 4.057.195-2.662 2.575-4.886 5.218-5.254 4.652-.646 9.472 3.466 9.522 10.447" class="st205"/><path d="m454.749 231.859 30.597-14.407c2.989-1.41 5.125 3.113 2.13 4.523l-30.597 14.407c-2.97 1.4-5.148-3.103-2.13-4.523m-3.125 171.351-24.703-21.103c-2.515-2.148.73-5.95 3.248-3.8l24.703 21.103c2.518 2.15-.755 5.928-3.248 3.8m-124.221 72.1 3.302-30.532c.355-3.296 5.326-2.748 4.97.537l-3.301 30.532c-.355 3.288-5.327 2.752-4.97-.537m-78.492-24.65 21.175-28.98c1.952-2.672 5.99.278 4.037 2.948L252.95 453.61c-1.931 2.644-6.01-.251-4.037-2.95m44.867-266.622-12.916-23.907c-1.573-2.91 2.826-5.286 4.4-2.377l12.916 23.907c1.57 2.908-2.825 5.288-4.4 2.377" class="st196"/></g></svg>