<svg xmlns="http://www.w3.org/2000/svg" xml:space="preserve" id="Layer_1" x="0" y="0" version="1.1" viewBox="0 0 665 665"><style>.st140{fill:#f39f86}.st154{fill:#fdeda7}.st159{fill:#791c30}.st196{fill:#e64847}.st197{fill:#1e1936}.st198{fill:#2cb4d9}.st200{fill:#82354e}.st203{fill:#3861a5}.st205{fill:#fdfdfd}.st212{fill:#fbf1dd}</style><g id="Office_Files"><path d="M331.942 567.49c-128.087 0-231.74-102.498-231.74-228.716 0-82.06 44.014-155.739 112.98-196.437 35.5-20.974 76.311-32.278 118.76-32.278 121.674 0 221.45 92.553 230.992 210.218 10.864 133.238-95.64 247.212-230.992 247.212" class="st140"/><path d="M351.768 129.168v13.17H213.183a231 231 0 0 1 25.881-13.17zM214.721 290.004v13.169H102.996a219 219 0 0 1 2.487-13.17z" class="st212"/><path d="M532.032 454.226c-18.575 31.294-44.473 57.835-75.37 77.343a232 232 0 0 1-51.308 24.201c-23.072 7.606-47.755 11.72-73.412 11.72-96.802 0-179.842-58.608-214.495-141.978 8.49-10.635 18.288-20.282 28.405-29.415 54.966-49.62 110.449-77.746 243.376-74.83 57.95 1.277 116.446 6.647 173.706-.99 3.8 46.612-6.736 93.242-30.902 133.949" class="st154"/><path d="M359.52 509.806c-4.767 1.69-10.478 1.612-14.471-1.503-.779-.598-.878-.933-.98-1.879-1.048-10.807-2.907-22.856-5.746-35.45a283 283 0 0 1 27.123-7.463c4.726 26.914 2.036 12.277 5.637 28.305 2.139 9.57-2.272 14.685-11.562 17.99" class="st140"/><path d="M369.334 484.515c-8.756 3.318-18.627 3.952-27.907 2.156a292 292 0 0 0-3.104-15.696 283 283 0 0 1 27.123-7.464c2.945 16.773 2.8 16.43 3.888 21.004" class="st196"/><path d="M376.336 512.519c.524 1.868.91 3.774 1.155 5.699.65 5.12-5.066 5.275-8.746 5.947-4.898.895-9.84 1.553-14.801 1.97-1.11.094-1.88.031-2.906-2.136-.213-.451-6.687 1.967-7.344 2.19-10.593 3.605-13.502 3.505-38.15 1.383-.476-.04-.64-.12-.87-.603a11.2 11.2 0 0 1-1.083-5.084c.04-1.596.633-2.24 1.661-3.368 2.325-2.553 5.45-3.857 8.703-4.83 12.193-3.648 33.895-6.086 46.536-7.03" class="st197"/><path d="M304.314 519.579c.262 1.737 2.222 1.67 3.572 1.947 5.874 1.209 18.491 2.415 24.04 1.573 4.234-.643 8.18-2.467 12.253-3.784 10.423-3.36 21.694-3.363 32.123-6.704-1.74-6.357-2.854-13.342-4.991-19.654-.399 1.318-.249 2.958-.642 4.276-3.523 2.12-10.797 4.204-18.068 3.892-.08-2.295-1.379-4.19-3.033-5.669-1.806-1.614-4.299-2.332-6.537-3.228-.394-.163-.808-.32-1.235-.276-1.095.121-1.664 1.337-2.276 2.156-.27.384-3.062 3.574-3.242 3.78-4.95 5.66-6.176 5.785-12.533 8.117-4.934 1.81-10.094 2.291-13.428 4.007-2.951 1.509-4.164 3.78-5.503 7.103-.315.787-.622 1.62-.5 2.464" class="st203"/><path d="M330.07 503.46c3.564 1.738 7.016 3.68 10.136 6.11q1.663-1.766 3.336-3.526a91 91 0 0 0-6.259-6.133 25.3 25.3 0 0 1 7.553 4.287c.606-.824 1.211-1.654 1.818-2.479a63 63 0 0 0-7.292-4.972 35.4 35.4 0 0 1 9.454 4.746q.834-1.209 1.658-2.425a30.2 30.2 0 0 0-10.954-4.96c-.27.384-3.062 3.574-3.242 3.78-1.774 2.028-3.789 4.28-6.207 5.571" class="st197"/><path d="m508.662 165.819-138.518 78.987-93.353 21.648-122.408-60.11 198.034-96.285z" class="st159"/><path d="m423.85 214.181-3.757-22.382-118.011-41.663-9.912 3.564 113.555 67.382 14.914-6.107" class="st205"/><path d="m429.61 208.552.12-20.6-123.89-45.73s13.866-4.308 14.499-4.726c.638-.419 117.88 44.248 117.88 44.248l.508 20.455z" class="st198"/><path d="m438.727 202.199-9.118 6.353.12-20.6 8.49-6.208z" class="st203"/><path d="m429.608 208.555.12-20.601-123.885-45.73-.512 9.803 117.094 41.753 2.454 16.94z" class="st205"/><path d="M425.81 192.458v17.89l-4.858 2.507-2.575-16.226L297.9 152.161l8.526-4.134z" class="st212"/><path d="M425.81 192.458v17.89l-4.858 2.507-2.575-16.226 7.411-4.176z" class="st140"/><path d="m273.014 159.313-4.925 4.802 121.165 53.974 5.546 13.738 10.24-7.556 4.053-18.475L281.348 153.7z" class="st205"/><path d="m411.908 198.503-.618 20.837-9.782 3.71v-19.014L273.013 159.31l11.792-7.94z" class="st198"/><path d="m411.908 198.503-.618 20.837-9.782 3.71v-19.014z" class="st203"/><path d="M286.081 167.283 258.32 156.8l-12.804 7.406 36.578 14.344" class="st196"/><path d="m396.56 228.365-.317-20.3-119.93-37.544 3.242 25.999 92.566 56.84z" class="st198"/><path d="M275.379 221.863c-.974 2.02-36.491 27.185-41.715 29.394-5.218 2.214-34.419 1.45-39.067.539-4.644-.91-23.991-15.743-24.228-17.163-.466-2.501 6.804-22.06 6.804-22.06 84.032-34.035 67.154-27.2 69.46-28.134l8.857 6.067 14.032-5.26c7.155 4.713 13.946 9.051 14.357 8.934.58-.173-7.532 25.667-8.5 27.683" class="st205"/><path d="M258.515 232.64c-7.207 4.904-54.79 18.496-67.189 14.367-6.197-2.063-14.2-6.888-20.957-12.374-.466-2.501 6.804-22.06 6.804-22.06l6.197-2.508 14.588 7.118 76.563-32.744s7.343-.79 9.358 2.44c2.018 3.213-18.154 40.86-25.364 45.76" style="fill:#8cd4dd"/><path d="M176.543 219.068c0 .027.63-6.496.63-6.496l21.468 9.908 80.4-36.907s4.818 8.514 4.837 8.608-13.757 19.782-13.798 20-49.671 30.71-50.297 31.041-22.43-.84-24.991-1.425-16.259-18.146-16.259-18.146z" class="st212"/><path d="M278.56 198.505c.022-.002-5.403-5.354-5.403-5.354l-66.504 31.17.244 28.14 38.116 7.009 25.466-29.226 16.87-18.9z" class="st198"/><path d="m310.723 384.895-47.126 35.712c-26.523-23.6-27.889-24.342-29.727-27.953-3.04-5.97-.773-13.158 1.623-19.414 6.288-16.415 13.29-32.678 22.954-47.362 9.663-14.685 22.152-27.814 37.57-36.257 17.65-9.665 27.79-6.71 45.12 2.35 7.413 3.874 13.419 8.592 18.562 15.188s7.74 15.777 4.532 23.505c-4.477 10.781-11.763 24.038-20.76 31.524-10.233 8.514-22.155 14.68-32.748 22.707" class="st197"/><path d="m336.892 291.255-.895-.047c-.372-.46.66-.419.895.047" class="st197"/><path d="M392.906 347.688c-.717 6.867-7.385 13.702-11.337 19.23a418 418 0 0 1-29.577 36.8c11.112 22.642 17.078 47.388 22.967 71.91-12.235 4.45-23.886 8.37-36.853 9.709-1.905.198-10.384-18.032-11.536-20.235-3.59-6.867-6.212-14.425-9.295-21.58-3.868-8.997-7.757-18.03-10.254-27.5-2.768-10.478-5.752-24.782.377-34.554 23.846-38.03 26.226-40.582 26.578-45.86 3.169-47.36 2.997-44.177 2.916-44.353l40.197 2.214a182.3 182.3 0 0 1 12.546 31.545c2.12 7.223 4.066 15.084 3.271 22.674" class="st197"/><path d="M360.12 325.511c-1.36.686-2.889 3.942-3.763 5.203a181 181 0 0 0-4.182 6.323c-2.549 4.03-5.412 8.238-7.338 12.608-3.8 8.615-9.903 16.534-15.043 24.49-1.978 3.062-3.972 6.16-5.192 9.594-1.224 3.433-1.617 7.286-.356 10.709.974 2.638 2.853 4.841 4.842 6.83a56.6 56.6 0 0 0 16.398 11.395c-8.312 1.345-17.084-.398-24.244-4.82 6.715 10.844 16.335 19.925 27.505 26.085-12.274-.832-24.25-5.616-33.718-13.472 5.805 9.306 8.385 20.208 12.504 30.378 4.69 11.562 11.416 22.287 16.268 33.739a94 94 0 0 1-5.695.764c-1.905.198-10.384-18.032-11.536-20.235-3.59-6.867-6.212-14.425-9.295-21.58-3.868-8.997-7.757-18.03-10.254-27.5-2.768-10.478-5.752-24.782.377-34.554 6.459-10.3 13.043-20.517 19.408-30.875a116.4 116.4 0 0 1 33.314-25.082" class="st203"/><path d="M281.846 233.215c-3.036 7.313-4.85 8.797-6.605 11.552-3.106 4.86-6.42 13.257-9.704 14.964-2.371 1.235-4.24-.31-6.564-.257-1.618.034-2.455.908-6.642 0-2.737-.586-5.323-1.701-7.893-2.81-1.413-.613-2.957-1.56-4.464-1.874-1.754-.361-4.195-.09-8.448-6.313-2.161-3.156-4.124-6.93-3.23-10.65.807-3.35 3.701-5.716 6.423-7.82 21.513-16.645 23.49-18.079 26.903-21.214 4.789-4.396 9.091-9.63 15.037-12.273z" class="st205"/><path d="M281.846 233.215c-3.036 7.313-4.85 8.797-6.605 11.552-3.106 4.86-6.42 13.257-9.704 14.964-2.371 1.235-4.24-.31-6.564-.257-1.618.034-2.455.908-6.642 0-2.737-.586-5.323-1.701-7.893-2.81-1.413-.613-2.957-1.56-4.464-1.874-.534-.11-1.01-.168-1.466-.257 2.49-7.695 17.215-7.904 24.715-15.142 2.649-2.549 2.633-5.846 2.931-9.321a52.2 52.2 0 0 1 4.695-17.498l9.845 12.499z" class="st212"/><path d="M378.554 290.187c-.026 1.973-.026 3.968-.534 5.873-.842 3.182-2.648 3.983-5.202 5.443-2.978 1.696-5.726 3.585-8.893 4.972-6.258 2.73-13.029 4.232-19.805 4.266-4.098.026-8.18-.45-12.253-.926-19.707-2.3-40.155-4.897-56.747-15.739-2.968-1.937-5.815-4.166-7.84-7.071-5.674-8.128-2.324-21.36-1-30.373.754-5.166 2.03-10.185 1.963-15.409-.186-13.942.533-28.24 6.066-41.233.55-1.293 1.178-2.607 2.245-3.517 8.495.429 16.116-1.204 24.584-1.974 22.049-2.003 27.302 5.753 35.32 12.598 7.798 6.658 16.685 12.164 24.557 18.837 4.376 3.712 8.657 7.627 12.19 12.17 3.596 4.616 4.596 9.321 5.318 15.131 1.518 12.269.199 24.647.031 36.952" class="st205"/><path d="M306.153 252.989c6.472 4.21 11.154 10.636 17.067 15.599 5.713-8.038 10.142-17.22 11.25-27.018 1.107-9.798-2.527-19.332-9.195-26.595m-48.785 6.889c-3.683 9.467-3.693 20.31-.026 29.782.815 2.106 1.728 4.005 4.379 9.743.255.552 7.88-3.05 8.637-3.303 2.968-.998 6.057-1.834 9.055-2.805.67-.216.838-.36 1.116-1.07 4.445-11.363 4.622-11.329 4.28-12.314-.191-.551-.668-.945-1.117-1.317a54.1 54.1 0 0 1-10.85-12.18" class="st212"/><path d="M359.529 308.16c-10.386 3.463-17.949 2.79-27.662 1.655-8.432-.984-17.01-2.026-25.363-3.742.538.11 4.744-12.153 5.107-13.051 2.408-5.964 4.9-11.896 7.661-17.706 2.35-4.942 4.986-9.916 9.108-13.515 1.31-1.143 2.87-2.171 4.607-2.2 3.114-.05 5.745 2.462 8.893 2.738 4.557.4 9.09.614 13.608 1.437 3.297.599 4.421 1.525 5.004 5.412 1.963 12.912 1.33 26.081-.963 38.973" class="st212"/><path d="m310.085 250.613-4.308 8.647 4.051 46.289-9.117 14.487-7.637-15.508 5.093-46.158-3.324-9.285s5.287-3.209 5.815-3.381c.529-.168 7.103.214 7.71.47.607.252 2.648 2.774 2.648 2.774z" class="st198"/><path d="m310.085 250.613-4.308 8.647 1.188 13.566c-1.126-2.393-5.38-11.946-6.459-14.367q-1.177-.03-2.344-.053l.005-.036-3.324-9.285s5.287-3.209 5.815-3.381c.529-.168 7.103.214 7.71.47.607.252 2.648 2.774 2.648 2.774z" class="st203"/><path d="M304.068 248.733a278 278 0 0 1 19.942 15.016c1.058-1.86 1.84-3.864 2.587-5.87 2.489-6.672 4.665-13.531 5.352-20.62s-.197-14.474-3.546-20.76c-6.39 5.566-11.783 12.164-17.142 18.727m-34.871-17.03c-2.514 12.897-.302 26.66 6.123 38.121.318.566.55.62 1.077.426 12.07-4.439 12.843-4.654 14.35-5.52 2.273-1.308 4.064-3.331 6.307-4.693-1.591-1.12-2.91-2.581-4.134-4.093-5.411-6.681-9.218-14.524-12.29-22.554" class="st205"/><path d="M343.199 191.762c-.89 1.099-1.994 2.073-2.518 3.386-.58 1.476-.324 3.125-.33 4.71-.015 5.48-3.564 10.788-8.625 12.892-1.644.686-3.418 1.057-4.993 1.9-1.173.628-2.214 1.508-3.444 2.026-2.722 1.136-5.946.256-8.322-1.487-4.757-3.506-6.655-9.87-11.363-13.42-6.119-4.627-15.106-3.203-21.68-7.155l-2.664-5.176c-4.614-1.494-11.467-5.182-12.854-9.882-.728-2.47.25-5.58 2.648-6.511.523-.204 1.1-.298 1.57-.607 1.146-.738 1.272-2.33 1.429-3.685.22-1.894.806-3.863 2.224-5.14 1.487-1.34 3.806-1.67 5.606-.795-1.157-2.957 1.031-6.72 4.182-7.166.916-.135 1.947-.052 2.664-.643.817-.67.838-1.885 1.183-2.89.843-2.423 3.863-3.569 6.37-2.988 2.502.58 4.501 2.476 6.014 4.554.026-.021.047-.048.073-.063 2.14-1.984 5.176-2.607 8.05-3.146 1.92-.361 3.91-.638 5.715.278 1.497.764 2.157 2.528 3.853 2.92 1.046.246 2.14-.005 3.213.084 1.942.162 3.659 1.455 4.726 3.083 1.073 1.627 1.576 3.564 1.906 5.485 8.111 3.065 14.818 11.022 13.231 18.659-.172.822-.44 1.664-.256 2.481.429 1.863 2.91 2.596 3.538 4.402.466 1.34-.251 2.795-1.146 3.894" class="st159"/><path d="M343.199 191.762c-.89 1.099-1.994 2.073-2.518 3.386-.58 1.476-.324 3.125-.33 4.71-.015 5.48-3.564 10.788-8.625 12.892-1.644.686-3.418 1.057-4.993 1.9-1.173.628-2.214 1.508-3.444 2.026-2.722 1.136-5.946.256-8.322-1.487-2.766-2.038-4.583-5.07-6.396-7.73-.66-3.125-.838-6.386-.581-9.526.794-9.621 4.743-10.522 7.652-13.85 1.387-1.58 2.35-3.825 1.565-5.778-.796-1.973-3.12-3.015-3.884-5.009-.712-1.874.173-4.009-.251-5.966-.419-1.937-2.057-3.392-3.831-4.266-2.992-1.487-6.792-1.79-8.254-3.91-1.058-1.544-.665-3.606-.618-5.532 2.14-1.984 5.176-2.607 8.05-3.146 1.92-.361 3.91-.638 5.715.278 1.497.764 2.157 2.528 3.853 2.92 1.046.246 2.14-.005 3.213.084 1.942.162 3.659 1.455 4.726 3.083 1.073 1.627 1.576 3.564 1.906 5.485 8.111 3.065 14.818 11.022 13.231 18.659-.172.822-.44 1.664-.256 2.481.429 1.863 2.91 2.596 3.538 4.402.466 1.34-.251 2.795-1.146 3.894" class="st200"/><path d="M333.327 211.917c-.205 6.28-5.166 11.41-8.05 11.31-.01.12-.03.24-.04.36-.89 7.66-4.29 15.59-10.56 20.31-6 4.517-14.308 7.178-18.45 7.35-6.95.3-13.87-4.47-16.79-10.64-2.05-4.34-2.64-9.22-3.04-14.01-.54-6.52-.78-13.07-.72-19.62.06-4.562.416-8.944 1.47-13.75.12-.54.62-4.01 1.09-4.17 2.27-.78 4.79-.2 7.01.74 3.088 1.31 3.237 2.983 10.79 1.63 5.28-.93 10.45-2.46 15.39-4.55 1.974 5.311 1.939 5.21 1.95 5.67.02.95-.63 1.77-.96 2.67-.64 1.79.14 3.82 1.34 5.3.76.93 1.69 1.71 2.6 2.5 1.568 1.357 1.309 1.28 5.07 11.15.67 0 1.33.01 1.99.01 1.053-2.22 2.28-4.323 3.19-5.67.53-.8 1.14-1.63 2.03-1.99.01-.01.03-.01.04-.01 1.3-.51 2.86.2 3.67 1.34.82 1.16 1.02 2.65.98 4.07" class="st140"/><path d="M320.707 212.267c-1.61-.39-2.24-2.31-2.82-3.88-3.573-9.49-10.365-6.443-8.93-16.58-7.288 1.098-13.717 2.637-19.06.02 2.04.24 4.13-.04 6.14-.4 5.28-.93 10.45-2.46 15.39-4.55 1.974 5.311 1.939 5.21 1.95 5.67.02.95-.63 1.77-.96 2.67-.64 1.79.14 3.82 1.34 5.3.76.93 1.69 1.71 2.6 2.5 1.515 1.31 1.359 1.399 4.35 9.25" class="st196"/><path d="M303.19 217.581c-1.26.515-3.132.717-4.12.597-2.32-.285-4.746-2.64-4.06-4.983.156-.55.47-1.062.957-1.277.278-.126.592-.157.9-.173 2.22-.1 4.397.534 6.527 1.178.764.23 1.597.518 2.005 1.204.795 1.33-.808 2.873-2.209 3.454" class="st205"/><path d="M305.566 215.252c-1.455-.33-2.842-.963-4.27-1.408-1.668-.522-4.638-1.046-6.287-.649.157-.55.471-1.062.958-1.277.278-.126.592-.157.9-.173 2.22-.1 4.397.534 6.527 1.178.764.23 1.597.518 2.005 1.204.225.376.261.759.167 1.125" class="st197"/><ellipse cx="299.454" cy="215.031" class="st197" rx="2.53" ry="3.058"/><path d="M284.972 213.673c-1.26.515-3.132.717-4.12.597-2.32-.284-4.746-2.64-4.061-4.983.157-.55.471-1.062.958-1.277.277-.126.591-.157.9-.173 2.22-.1 4.397.534 6.527 1.178.764.23 1.596.518 2.005 1.204.795 1.33-.808 2.873-2.21 3.454" class="st205"/><path d="M287.348 211.344c-2.658-.602-4.581-2.024-8.756-2.182-.602-.027-1.215-.016-1.801.125.157-.55.471-1.062.958-1.277.277-.126.591-.157.9-.173 2.22-.1 4.397.534 6.527 1.178.764.23 1.596.518 2.005 1.204.225.377.261.759.167 1.125" class="st197"/><ellipse cx="281.348" cy="211.123" class="st197" rx="2.53" ry="3.058"/><path d="M286.737 205.58c-2.026-.492-4.043-1.818-6.023-2.558-1.444-.54-2.963-.696-4.401-1.231l.054-.095c3.613-.39 7.353.901 10.387 2.754.113.549.158.552-.017 1.13m8.853.29c3.46-.161 8.148-.237 11.14 1.736l-.174.22-.799-.102c-3.51-.877-6.698-.183-10.212-.434-.663-.047-.996-.085-1.456-.59.446-.627.78-.607 1.5-.83" class="st197"/><path d="M290.427 211.161c1.298 3.465-.61 8.01-1.89 11.884-.834 2.175-1.024 3.24 1.265 4.51.732.425 1.606.747 2.368 1.266-1.95-.169-4.04-.155-5.377-1.815-1.672-2.079.139-5.218.211-5.9 1.725-5.03 3.006-6.621 3.423-9.945m-.197 28.895c-.994.052-1.894-.33-2.69-.926-1.642-1.234-2.318-3.872-2.632-5.91-.12-.591-.299-1.198.55-1.366.827-.158 6.659.848 10.315 1.937 2.203.66-.978 6.013-5.542 6.265" class="st196"/><path d="M296.454 235.215c-3.906.641-7.838-.639-11.546-1.995-.12-.591-.299-1.198.55-1.366.827-.158 6.659.848 10.315 1.937.68.204.801.811.68 1.424" class="st159"/><path d="m289.484 267.152-10.44 5.705-135.866-66.514 7.356-5.228z" class="st196"/><path d="m279.044 272.857-.527 83.007 10.272-3.268.695-85.444z" class="st200"/><linearGradient id="SVGID_1_" x1="143.178" x2="279.393" y1="358.915" y2="358.915" gradientUnits="userSpaceOnUse"><stop offset="0" style="stop-color:#a11d3d"/><stop offset="1" style="stop-color:#df3e51"/></linearGradient><path d="m279.393 433.426-136.215-42.207 1.22-106.815 133.246 63.268z" style="fill:url(#SVGID_1_)"/><path d="m279.393 433.426-129.364-40.082 1.057-92.563 126.83 60.222z" class="st197"/><path d="m279.042 272.857-.524 83.006-134.12-71.46-1.22-78.06 7.354 3.602z" class="st140"/><path d="M230.999 287.403c-13.886-11.217-17.576-28.599-14.886-45.353l33.54 16.42c1.382 2.27 2.769 4.547 4.156 6.82 10.975 18.003-5.815 35.864-22.81 22.113m-68.667-80.681 190.683-92.95 154.294 56.686 7.884-4.64-162.05-60.645-202.61 95.942z" class="st196"/><path d="m481.854 180.378-.244-47.974-103.67-34.893-.576 47.342 85.972 38.567 4.928 3.304z" class="st198"/><path d="m478.148 185.573-2.186-15.052-99.457-39.35-1.613 17.443z" class="st203"/><path d="M471.748 174.432v9.85L438.727 202.2l-.508-20.455-37.721-14.069-8.338-3.11-54.094-20.17-17.162-6.402 4.03-2.837 10.782 3.978 17.974-9.966 117.006 44.861z" class="st198"/><path d="m400.498 167.675-8.338-3.11.345-2.893.963-7.972h5.255z" class="st203"/><path d="m470.696 174.029-1.371.953-5.69 3.957-64.912-25.239-6.218 7.972L341.06 142.3l-2.994 2.093-17.162-6.4 4.03-2.838 10.782 3.978 17.974-9.966z" class="st205"/><path d="M237.071 237.77c3.58.935 6.69 3.122 9.602 5.404 2.728 2.14 5.398 4.443 7.3 7.34.602.918 1.134 2.08.67 3.074-.4.853-1.412 1.252-2.353 1.3-1.717.09-3.3-.632-7.735-2.202 2.713 2.93 6.976 11.071 8.769 14.635 1.455 2.892 3.747 7.902 2.466 10.895-.947 2.213-3.44 2.45-4.496.818 1.057 1.753 2.128 3.966 1.085 5.727a8.6 8.6 0 0 1-4.63-1.88c1.323.937 1.854 2.842 1.207 4.326-.084.193-.193.387-.372.499-.545.34-3.8.052-6.335-1.916 1.246 1.31.983 3.352.404 3.673-.198.11-.443.078-.666.034-2.556-.506-4.737-2.136-6.679-3.874-10.28-9.201-19.63-25.19-13.652-39.087 2.694-6.263 8.395-10.598 15.415-8.766" class="st140"/><path d="M251.793 279.778c-5.267-7.01-9.975-16.28-12.381-23.342 2.285 4.705 4.062 9.667 12.381 23.342m-3.889 3.388c-5.345-5.01-9.903-12.1-12.27-20.286 3.123 7.49 6.06 13.05 12.27 20.286m-5.334 3.402c-5.434-5.154-10.084-12.546-12.433-20.768 2.99 7.285 5.754 12.931 12.432 20.768" class="st196"/><linearGradient id="SVGID_2_" x1="370.144" x2="507.309" y1="206.045" y2="206.045" gradientUnits="userSpaceOnUse"><stop offset="0" style="stop-color:#eb5657"/><stop offset="1" style="stop-color:#e88169"/></linearGradient><path d="m498.666 167.283-128.522 71.609 10.817 5.914 126.348-74.348z" style="fill:url(#SVGID_2_)"/><path d="m380.961 244.806-1.178 143.398-10.961-2.102 1.322-147.21z" class="st196"/><path d="m515.194 165.817-.11 144.327-135.304 78.06.105-12.912 1.078-130.484z" class="st196"/><path d="M509.955 291.255h-2.646l.472-116.735 2.174-1.497z" class="st159"/><path d="M150.532 209.945v77.725l-6.135-3.266-1.22-78.06z" class="st196"/><path d="m478.148 315.562-98.263 59.73 1.078-130.484 75.553-44.457z" class="st159"/><path d="m273.422 354.482-89.543 50.89-84.105-49.995-5.443-3.234 78.64-35.037z" class="st198"/><path d="M176.928 343.166s-4.83 23.391-8.536 25.657c-2.026 1.236-14.802 6.852-26.652 11.5l-41.966-24.946 37.947-19.057z" style="fill:#048dac"/><path d="m87.579 312.668.084.036c-.157.068-.189.058-.084-.036m185.843 41.814-20.433 11.615-70.12-26.092-41.516 12.661-5.805-18.89 37.424-16.67z" class="st196"/><path d="m252.989 366.097-69.11 39.275-71.072-42.248 60.165-26.804c172.433 64.164.1-.017 80.017 29.777" class="st196"/><path d="m206.17 348.673-56.678 36.26-12.975-7.714c5.652-6.49 34.162-31.169 34.162-31.169l16.963-4.27z" class="st200"/><path d="m241.553 361.841-63.039 40.344c-.1-.06-59.144-35.158-55.386-32.922a471 471 0 0 1 5.747-8.537l40.763-22.92 3.334-1.486c43.276 16.108 10.535 3.92 30.142 11.217-8.442 5.28-52.371 32.053-52.371 32.053l8.479 4.7 54.648-32.75 7.998 2.979c4.536 1.688 17.311 6.442 16.513 6.144z" class="st212"/><path d="m241.553 361.841-63.039 40.344-2.245-1.335 1.282-6.092 57.339-35.393z" class="st198"/><path d="m241.553 361.841-63.039 40.344-2.214-1.314 2.256-2.648 59.825-37.56z" class="st203"/><path d="M225.788 355.98c-.431.297 5.849-4.05-60.003 41.536l-2.936-5.852 54.847-38.7z" class="st154"/><path d="M221.868 354.519c-13.609 8.74-55.528 35.685-55.92 35.984l-13.2 1.161 2.978-9.31 3.496 1.936 54.648-32.75zm-71.125 25.071 3.658 2.03-2.946 1.822-13.106-5.135 55.449-34.235 9.316 3.465c-8.442 5.28-52.371 32.053-52.371 32.053m32.126-39.585-58.097 28.818-1.419.57-10.546-6.27 60.165-26.803z" class="st205"/><path d="m285.871 344.641 4.04 98.71-100.665 51.159 1.042-93.951z" class="st200"/><path d="m190.288 400.559-9.035 5.492L76.5 343.164l9.062-4.094z" class="st198"/><path d="m76.5 343.164 2.703 76.16 100.765 69.34 1.285-82.613z" class="st198"/><path d="M136.956 418.583 113.69 405.46a1.83 1.83 0 0 1-.932-1.595v-15.227c0-2.423 3.664-2.425 3.664 0v14.157l20.824 11.744 6.304-9.855c1.305-2.041 4.393-.07 3.086 1.974l-7.237 11.315a1.83 1.83 0 0 1-2.443.609m43.012 70.083 9.278 5.845 1.042-93.951-9.035 5.492z" class="st203"/><path d="m135.104 415.22-23.266-13.12a1.83 1.83 0 0 1-.932-1.597v-15.227c0-2.423 3.664-2.425 3.664 0v14.158l20.824 11.744 6.304-9.856c1.306-2.04 4.394-.068 3.087 1.974l-7.238 11.316a1.83 1.83 0 0 1-2.443.608" class="st205"/><path d="M338.463 314.755c-3.12 10.024-6.29 20.162-11.687 29.17-3.865 6.474-6.902 8.171-15.137 10.044-22.208 5.052-34.073 5.06-40.092 5.862-4.03.528-8.176.36-12.2 1.099-3.418.628-6.68 1.868-10.008 2.858-4.064 1.2-6.698 1.698-24.542 5.537-3.397.728-7.485 1.267-9.872-1.261-.76-.818-.588-1.376.236-1.963a22.2 22.2 0 0 1 7.888-3.517c-4.926-.566-10.055 1.13-14.807-.273-2.62-.78-3.216-3.013.345-4.407l9.877-3.83c-13.804 0-14.64.157-16.32-.608-1.282-.586-2.345-1.92-2.146-3.318.272-1.932 2.533-2.8 4.449-3.183 5.71-1.14 11.567-1.35 17.392-1.56-3.951-.601-7.908-1.203-11.755-2.276-1.136-.32-2.319-.712-3.099-1.602-.774-.884-.947-2.407-.047-3.172.597-.507 1.455-.539 2.24-.549l25.36-.204c-1.263-5.19-2.252-11.293-1.194-16.576.173-.927.429-1.869.99-2.628 1.285-1.742 3.501-1.662 4.631.492.45.864.628 1.838.859 2.78 1.277 5.197 4.694 9.211 7.898 13.346 1.936 2.502 4.365 4.868 7.447 5.559 4.753 1.062 9.265-.382 13.892-1.335 8.692-1.784 10.198-2.926 16.576-6.03a90.7 90.7 0 0 1 21.914-7.358c.021-.1 2.283-10.62 3.58-16.597z" class="st140"/><path d="M360.298 279.892c-2.713 12.32-6.698 24.656-13.119 35.637-1.243 2.126-3.396 7.913-6.372 7.913-.522 0-1.027-.167-1.522-.332a536 536 0 0 1-31.362-11.577 347 347 0 0 1 16.085-42.064c3.121-6.797 7.019-14.053 13.96-16.84 7.455-2.993 17.136.464 20.825 5.002 4.576 5.628 3.04 15.291 1.505 22.261" class="st205"/><path d="m588.5 276.13-91.152 59.322.174 73.94 88.825-60.56z" class="st203"/><path d="m588.5 276.13-6.37-2.587-90.532 60.432-.054 72.851 5.978 2.566-.174-73.94z" class="st198"/><linearGradient id="SVGID_3_" x1="530.995" x2="565.189" y1="336.892" y2="336.892" gradientUnits="userSpaceOnUse"><stop offset="0" style="stop-color:#0c2856"/><stop offset="1" style="stop-color:#144073"/></linearGradient><path d="m540.991 352.655 23.266-13.121c.576-.325.932-.935.932-1.596v-15.227c0-2.423-3.663-2.425-3.663 0v14.157L540.7 348.612l-6.304-9.855c-1.305-2.04-4.393-.069-3.086 1.974l7.237 11.315a1.83 1.83 0 0 0 2.443.609" style="fill:url(#SVGID_3_)"/><path d="m538.181 350.779 23.266-13.121c.576-.325.932-.935.932-1.596v-15.227c0-2.423-3.663-2.425-3.663 0v14.157l-20.825 11.744-6.304-9.855c-1.305-2.04-4.393-.069-3.086 1.974l7.237 11.315a1.83 1.83 0 0 0 2.443.609" class="st205"/><path d="m412.113 296.182 79.485 37.793-.054 72.851-79.488-37.014z" class="st140"/><path d="m571.77 281.067-80.17 52.911-71.59-34.042-7.898-3.753 78.033-41.552z" class="st140"/><path d="m563.68 286.404-72.077 47.572-51.068-24.286-8.27-3.93-12.253-5.826c14.452-7.696 55.837-29.736 70.136-37.345z" class="st200"/><path d="M548.106 283.985v12.698l-14.017 9.254-54.905-27.092-.319-9.143-.277-8.134-.1-2.863z" class="st212"/><path d="M536.018 304.66c-62.987 41.574 11.353-7.49-44.415 29.316l-51.068-24.286-8.27-3.93 5.265-46.557z" class="st198"/><path d="M531.577 307.596c-47.114 31.091 17.773-11.734-39.972 26.379l-51.068-24.286c.047-.476.235-.927.57-1.34 3.635-4.444 5.855-10.768 6.977-16.382.215-1.1.304-1.775.304-1.816 0-.168 12.954 5.26 12.954 5.26.218-.551 7.134-17.918 7.134-18.445 0-.492 53.329 25.804 63.1 30.63" class="st212"/><path d="m523.333 313.033-5.857 3.868-53.292-28.666c.56-1.429 1.151-2.92 1.7-4.34zm-6.903 4.559-1.529 1.005-52.282-26.405c.21-.524.434-1.1.67-1.701zm-4.345 2.863-2.936 1.942-61.463-28.598c.163-.691.293-1.309.398-1.832zm-16.482-.402-.868 1.214-48.043-23.883q.339-1.06.591-2.02z" class="st154"/><path d="M433.207 319.266c1.716.938 3.421 1.92 5.167 2.8-.878 10.6-.038 21.414-.441 32.049-3.027-.793-9.106-3.649-10.837-6.25-.16-.733-.098-1.132.057-1.846 1.41.651 2.89 1.102 4.364 1.583.175-4.182 1.63-27.226 1.69-28.336" class="st196"/><path d="m544.573 285.425-.534 1.79-65.362-23.072-.09-2.575zm-1.131 4.725-.518 5.68-64.059-26.128-.125-3.607zm-2.502 7.24-61.86-21.607-.11-3.093z" class="st154"/><linearGradient id="SVGID_4_" x1="277.699" x2="335.077" y1="484.844" y2="484.844" gradientUnits="userSpaceOnUse"><stop offset="0" style="stop-color:#5f203d"/><stop offset="1" style="stop-color:#812c44"/></linearGradient><path d="m335.077 498.052-57.34 26.701-.038-52.553 57.337-27.264z" style="fill:url(#SVGID_4_)"/><path d="m219.863 434.034 57.832 38.168 57.341-27.264-56.291-29.975z" class="st140"/><path d="m225.699 437.883 51.995 34.317 51.643-24.556-50.594-26.94z" class="st200"/><path d="M236.934 436.139v9.16l10.111 6.675 39.607-19.543.502-14.53z" class="st212"/><path d="m245.653 451.053 32.04 21.147c1.21-.574 41.185-19.584 42.805-20.354L316.7 418.26z" class="st198"/><path d="m248.858 453.17 28.834 19.03 36.84-17.52a1.8 1.8 0 0 0-.412-.966c-2.62-3.203-4.224-7.774-5.033-11.818a18 18 0 0 1-.219-1.31c0-.12-9.345 3.795-9.345 3.795-.165-.417-5.146-12.926-5.146-13.306 0-.355-38.47 18.614-45.52 22.096" class="st212"/><path d="m254.019 457.494 3.79 3.047 39.664-21.337c-.404-1.03-.83-2.106-1.227-3.13zm4.606 3.477 1.291.627 38.686-19.54c-.151-.377-.313-.792-.483-1.226zm2.979 2.062 1.843 1.555 45.927-21.37a41 41 0 0 1-.287-1.322zm13.204-.876.626.876 34.657-17.229q-.244-.766-.426-1.457zm-35.325-24.98.385 1.291 47.15-16.643.064-1.858zm.815 3.409.374 4.097 46.21-18.848c.004-.103.097-2.767.09-2.602zm1.805 5.222 44.625-15.586.079-2.231z" class="st154"/><path d="m335.077 498.052-32.697 15.223c6.898-21.192 15.84-48.162 20.65-62.63l12.006-5.71z" class="st200"/><path d="m207.795 430.471 65.754 42.794-.126 53.339-64.076-43.686z" class="st140"/><path d="m207.795 430.471 4.595-1.866 65.307 43.595.039 52.553-4.313 1.85.126-53.338z" class="st196"/><path d="m245.429 486.747-16.784-9.465a1.32 1.32 0 0 1-.672-1.151v-10.985c0-1.747 2.643-1.749 2.643 0v10.213l15.022 8.472 4.548-7.11c.941-1.471 3.169-.049 2.226 1.425l-5.22 8.162a1.32 1.32 0 0 1-1.763.44" class="st196"/><path d="m244.093 484.322-16.783-9.466a1.32 1.32 0 0 1-.673-1.15V462.72c0-1.748 2.643-1.75 2.643 0v10.213l15.023 8.472 4.547-7.11c.942-1.472 3.17-.05 2.226 1.424l-5.22 8.163a1.32 1.32 0 0 1-1.763.439" class="st205"/><path d="M310.797 330.986c-22.373 3.228-43.813 18.978-59.406 11.416-6.977-3.382-10.992-10.694-14.85-17.42-.795-1.386-1.91-2.91-3.265-3.558.168-1.054.424-2.168 1.057-3.026 1.286-1.742 3.502-1.662 4.632.492.45.864.628 1.838.859 2.78 1.277 5.197 4.694 9.211 7.898 13.346 1.936 2.502 4.365 4.868 7.447 5.559 4.753 1.062 9.265-.382 13.892-1.335 8.692-1.784 10.198-2.926 16.576-6.03a90.7 90.7 0 0 1 21.914-7.358q.046-.228.1-.456a196 196 0 0 1 3.146 5.59m64.294-217.599-21.947-8.214-202.61 95.942 11.798 5.607 190.683-92.95 22.076 8.11z" class="st196"/><path d="m470.696 174.029-1.371.953-67.121-24.846-3.48 3.564-6.219 7.972L341.06 142.3l-2.994 2.093-17.162-6.4 4.03-2.838 10.782 3.978 17.974-9.966z" class="st212"/><path d="M418.952 303.39v62.873l69.512 31.524v3.414l-73.275-32.424v-66.97zm-90.777-90.425c.303.086.629.114.904.268.464.26.678.824.706 1.355.079 1.45-1.116 2.852-2.559 3.006 1.822.903 5.55-1.728 4.444-6.488-.335-1.442-.994-2.106-2.497-2.16-3.014-.108-3.347 3.356-.998 4.02" class="st196"/></g></svg>