<svg xmlns="http://www.w3.org/2000/svg" xml:space="preserve" id="Layer_1" x="0" y="0" version="1.1" viewBox="0 0 665 665"><style>.st0{fill:#fcd7c8}.st2{fill:#791e2f}.st3{fill:#ec7b5c}.st4{fill:#0f6445}.st5{fill:#fdfefe}.st7{fill:#278d62}.st8{fill:#1e1a37}.st10{fill:#f29e87}.st75{fill:#fff}.st1052{fill:#b53e40}</style><g id="Chasing_Deadline"><path d="M565.273 335.136c0 99.944-61.626 187.568-152.166 224.112-50.464 20.262-104.483 22.688-153.5 10.14C154.429 542.48 76.503 447.926 76.503 335.136c0-72.4 32.176-137.64 83.468-182.068 42.989-37.27 99.288-59.852 160.917-59.852 132.76 0 241.538 105.103 244.325 236.722.044 1.728.06 3.46.06 5.198" style="fill:#fbf1de"/><path d="M259.607 569.39a244.4 244.4 0 0 1-89.071-43.522c2.11-8.267 7.168-15.864 12.521-22.682l26.226-5.398 13.387 12.388c-.605-12.51 2.588-27.952 15.048-33.788 1.638-.766 3.387-1.344 5.192-1.466 10.933-.76 14.748 13.01 16.575 21.323 2.77 12.61 3.726 25.559 3.52 38.446-.183 11.49 1.377 23.883-3.398 34.7" class="st4"/><path d="M413.178 559.27c-57.267 23.123-123.255 24.18-182.784.655-4.926-13.733-4.16-33.037 6.82-42.434 5.74-4.92 14.797-6.368 20.95-1.976 3.02 2.154 5.208 5.363 7.396 8.3-1.232-1.66 3.307-9.17 8.107-14.503 12.068-13.4 28.828-22.344 46.404-24.832 5.475-.771 12.449-.105 14.498 5.031 2.033 5.117-2.762 11.712-2.116 14.237 1.321 5.207 15.835-.918 27.408-.433 7.535.322 15.753 4.27 17.663 11.566 1.622 6.192-1.71 12.455-4.492 18.22a124 124 0 0 0-5.408 13.07c-.633 1.821-.977 4.331.727 5.236.644.345 1.422.322 2.15.256 10.88-.986 18.676-9.729 37.896 3.73 1.65 1.156 3.293 2.45 4.781 3.877" class="st8"/><path d="M543.916 434.177c-27.937 61.568-80.08 107.416-140.616 128.778 7.83-18.302 13.536-24.706 23.077-31.94 5.358-4.07 11.41-7.745 18.124-8.2-5.886-8.574-9.362-18.786-9.923-29.17 34.527-24.07 69.675-47.008 106.29-67.758a53.6 53.6 0 0 1 3.048 8.29" class="st4"/><path d="m418.164 312.023 96.628-21.706-12.049 51.596-90.176 21.761L231.2 396.451l-86.305 22.406-17.88 63.584C63.91 401.19 60.955 291.88 112.404 208.848l206.922-63.845-4.942-23.394-154.415 31.457c42.99-37.27 99.288-59.853 160.917-59.853 99.932 0 185.86 59.38 223.73 144.442l-151.878 40.352z" class="st7"/><path d="M202.837 450.982c-.677 8.012-12.842 32.943-15.281 37.991q-8.796 18.218-17.591 36.443c-21.769-16.917-40.493-37.433-55.205-60.27-7.085-34.954-6.125-74.128-3.27-107.588.736-8.616 2.455-23.029 10.655-25.976 3.593-1.288 7.718.04 10.672 2.454 2.954 2.421 4.959 5.78 6.813 9.118 10.316 18.52 18.038 38.597 22.839 59.62 1.071 4.714.8 15.025 5.586 17.618 3.238-15.239 2.55-18.081 4.47-21.306 1.132-1.888 3.303-3.343 5.463-2.92 1.516.294 2.716 1.416 3.782 2.532 11.927 12.454 17.952 29.535 20.661 46.57.3 1.888.567 3.804.406 5.714" class="st4"/><path d="M565.27 335.136c0 43.154-11.422 84.15-32.094 119.916-15.964 4.16-33.072 3.882-49.714 3.47l-25.148-22.172a101.95 101.95 0 0 1-15.225-41.384c-.567-4.192-.855-8.546.41-12.582 1.267-4.037 4.382-7.73 8.524-8.596 2.599-.544 5.297.056 7.846.805 19.329 5.686 34.888 19.857 48.897 34.333 7.554-32.541 30.659-57.966 56.443-78.988.045 1.728.061 3.46.061 5.198" class="st7"/><path d="M490.99 427.112c-2.11-3.356-3.105-7.275-4.03-11.13-7.016-29.24-11.716-60.078-4.194-89.193 6.899-26.7 23.631-49.915 42.966-69.578 9.207 29.65 7.36 61.463 5.086 92.427-2.034 27.695-4.382 55.614-12.366 82.212-.828 2.76-1.566 3.316-4.12 3.856l-25.342 5.365M246.773 172.774a2.777 2.777 0 0 1 5.551.111c-.08 4.047 1.343 8.485 4.23 11.31 1.798 1.76 3.848 2.553 5.771 2.231a2.776 2.776 0 0 1 .913 5.478c-9.494 1.582-16.669-8.946-16.465-19.13m-40.245 12.073a2.776 2.776 0 1 1 5.459 1.015c-1.618 8.696 4.307 16.959 9.748 16.048a2.776 2.776 0 1 1 .913 5.477c-9.624 1.604-18.391-10.328-16.12-22.54m-40.31 14.633a2.776 2.776 0 0 1 5.53.497c-.759 8.427 4.913 15.49 9.94 14.65a2.777 2.777 0 0 1 .913 5.477c-8.814 1.469-17.465-8.626-16.383-20.625" class="st4"/><path d="M309.454 150.363a42.7 42.7 0 0 1-3.787-18.971c.08-2.465.402-5.005 1.658-7.126 3.012-5.085 10.247-5.894 15.888-4.132 2.8-11.793 14.828-19.022 26.563-15.942 4.29 1.126 8.224 3.564 12.627 4.098 10.727 1.301 19.492-8.656 30.197-6.538 9.616 1.903 17.803 8.914 27.723 9.202 4.893.143 10.104-1.736 12.788-5.83 3.485-5.314 1.498-13.036-3.416-17.067 5.685-1.017 11.567 3.15 13.266 8.671 1.7 5.52-.39 11.791-4.486 15.864-4.095 4.073-9.91 6.108-15.677 6.445 10.161 6.06 23.07 7.284 34.188 3.24a35.8 35.8 0 0 1-18.33 7.155c.622-.058 2.129 1.02 2.75 1.275 4.775 1.961 6.61 1.786 10.197 2.18 5.376.592 10.836 1.006 16.212.177 6.3-.97 12.568-3.86 16.267-9.052 3.7-5.192 4.164-12.905.02-17.75 6.282 1.89 10.462 8.402 10.886 14.949.425 6.547-2.364 12.972-6.361 18.175-9.382 12.211-25.222 18.386-40.62 18.424-8.877.022-17.943-1.769-26.515.537-9.264 2.491-16.958 9.546-26.418 11.145a21.27 21.27 0 0 0 13.737 2.165c8.019-1.459 15.312-7.53 23.362-6.256 6.143.972 10.732 5.965 16.095 9.115a28.87 28.87 0 0 0 16.95 3.84c-7.76 4.066-17.081 5.055-25.522 2.71-5.953-1.655-12.501-4.84-17.888-1.816-1.666.936-2.977 2.378-4.362 3.694-9.385 8.922-23.553 12.48-36.04 9.05 9.146 6.124 21.604 6.916 31.452 2 2.904-1.45 5.595-3.357 8.656-4.438 5.633-1.989 11.828-.978 17.712.055-16.031-.883-30.68 12.753-46.535 10.227-4.903-.781-9.452-3.084-14.334-3.985-12.096-2.233-26.415 4.612-34.814-.276-5.938-3.456-7.138-11.283-9.443-17.756-2.857-8.023-8.336-15.089-15.396-19.853" class="st8"/><path d="M482.277 430.91c51.349-15.424 48.119-14.591 48.884-14.456.495.091.915.402 1.31.717a59.04 59.04 0 0 1 16.987 21.848l-17.715 9.332c-12.804 2.848-24.21 9.661-35.527 16.498-8.421-18.215-12.198-25.544-13.939-33.939" class="st3"/><path d="M514.983 421.083c16.143-4.86 15.495-4.75 16.178-4.629.495.091.915.402 1.31.717a59.04 59.04 0 0 1 16.987 21.848l-17.715 9.332a68 68 0 0 0-6.95 1.952c.437-2.492.148-5.124-.303-7.642-1.41-7.946-4.331-15.512-9.507-21.578" class="st10"/><path d="M523.341 418.331c.495.376 18.057-11.954 34.76-18.941 1.036-.427 2.09-.86 3.205-1.005 5.696 12.656 8.456 18.366 10.402 24.761.043.145.089.305.053.453-.069.299.104 0-6.554 6.233l2.759 4.125c.2.31.328.388.723.333 5.082-.694 4.79-.664 5.516-.643.342.009 1.459-.14 1.72.059 3.711 8.968 9.272 24.86 10.504 35.22 1.012 8.509 1.642 17.09 2.067 25.655.01.216.015.457-.115.63-.38.535-9.759 4.047-14.487.969-3.484-2.262-4.997-6.403-6.68-9.99-3.68-7.818-5.452-13.648-7.582-16.685-3.01-4.3-8.058-6.566-12.712-8.986-5.246-2.713-13.55-7.828-15.16-8.913-1.008-.674-1.813-1.579-1.562-2.91.22-1.135 1.152-1.976 1.935-2.832 4.531-4.927 5.097-12.433 1.18-18.005-1.925-2.75-7.366-7.402-9.972-9.528" class="st8"/><path d="M523.341 418.331c.237.18 13.698-8.441 23.04-13.36 9.152 11.794 16.91 27.482 19.066 31.082 11.109 18.509 19.226 39.295 18.336 60.777-3.42.812-7.323 1.02-9.889-.65-3.484-2.262-4.997-6.403-6.68-9.99-3.68-7.818-5.452-13.648-7.582-16.685-3.01-4.3-8.058-6.566-12.712-8.986-5.054-2.614-13.13-7.542-15.16-8.913-1.008-.674-1.813-1.579-1.562-2.91.22-1.135 1.152-1.976 1.935-2.832 4.51-4.902 5.112-12.41 1.18-18.005-1.925-2.75-7.366-7.402-9.972-9.528" class="st1052"/><path d="M535.278 440.374c8.271-1.736 15.628 3.075 22.107 8.194 2.589 2.04 6.539 5.336 7.19 8.766.501 2.685-1.17 5.189-2.603 5.63-.768.24-1.596.008-2.357-.249-8.838-2.996-16.352-9.289-25.362-11.691a7.6 7.6 0 0 0-.2 2.044 64 64 0 0 1-2.293-1.462c-1.008-.674-1.813-1.579-1.562-2.91.22-1.135 1.152-1.976 1.935-2.832a14.5 14.5 0 0 0 3.145-5.49M375.847 330.119c-2.57 14.542-5.941 24.22-8.818 37.386-3.465 15.875-5.637 35.857-5.652 35.96-8.602 2.549-57.805 16.568-89.054 26.364h-.006c-12.366 3.864-22.283 7.18-26.553 9.078-.925.416-1.402.228-1.916 2.072-7.972 28.3-7.17 25.188-35.715 65.871-.638.929-1.07.991-1.999.528-16.478-8.23-30.61-20.45-47.464-27.586 15.48-23.899 30.49-48.075 49.746-69.181 11.095-12.16 23.41-21.411 37.01-30.606 37.395-25.295 40.326-22.983 67.82-36.843 4.76-2.392 7-3.43 11.472-8.917l13.881-3.882c12.181-1.48 25.717 3.053 37.248-.244" class="st2"/><path d="M354.997 405.325c-7.419 2.149-19.03 5.497-32.006 9.29-9.26-6.656-20.234-6.896-31.74-6.942a180 180 0 0 1 29.008-4.003c-6.958-.7-13.948-1.4-20.723-3.137a202 202 0 0 0 29.48-3.998 145 145 0 0 0-18.463-2.876 47.7 47.7 0 0 1 21.96.044 36.14 36.14 0 0 0-18.29-6.819c6.003-1.255 12.205.117 18.163 1.572a77.5 77.5 0 0 0-20.473-25.515c8.551 5.203 15.687 12.327 22.328 19.74 16.043 17.954 15.042 18.606 20.756 22.644m-82.68 24.504c-12.366 3.864-22.283 7.18-26.553 9.078-.925.416-1.402.228-1.916 2.072-7.972 28.3-7.17 25.188-35.715 65.871-.638.929-1.07.991-1.999.528-4.614-2.305-9.062-4.93-13.437-7.674a210 210 0 0 0 35.66-43.366c4.791-7.752 8.356-16.014 11.976-24.305-7.557-1.05-15.23-.583-22.843-.11a64.2 64.2 0 0 1 26.197-.85 50.3 50.3 0 0 1-12.055-16.614c4.27 6.161 9.096 12.884 16.836 14.26 2.354.416 4.759.238 7.146.155a91 91 0 0 1 16.703.955m98.333-71.858c-6.127 5.104-14.73 6.437-22.639 4.953-7.84-1.477-15.003-5.43-21.639-9.867a146 146 0 0 1-13.126-9.895c4.76-2.392 7-3.43 11.472-8.917l13.881-3.882c12.3-1.494 25.054 3.004 37.015-.183 1.803 2.292 3.1 4.448 3.648 7.407 1.291 7.037-3.253 15.885-8.612 20.384" class="st8"/><path d="M517.28 460.48c-.602 5.16-2.34 9.43-7.069 11.478-24.665 10.964-63.794 24.632-71.213 26.759-7.374 2.121-15.714 4.148-23.438 4.026-6.064-.095-12.644-4.32-16.791-8.563-7.002-7.146-11.278-15.664-15.809-24.481-4.63-9.007-8.718-18.269-12.782-27.542-6.641-15.154-14.643-30.168-18.907-46.215-4.507-16.936-6.05-34.515-4.742-51.385l22.833-16.797a475 475 0 0 1 37.586-10.139c4.797 3.76 8.89 6.813 12.566 11.677 6.401 8.496 10.65 18.458 12.415 28.658.972 5.636 1.21 11.377 1.372 17.091.575 20.888 1.366 44.861-3.743 65.294 6.551-1.531 13.247-4.326 19.751-6.308 5.403-1.643 10.922-2.82 16.364-4.308 5.109-1.394 9.967-3.904 14.998-5.176 6.213-1.571 16.757-6.066 22.078-.705 9.012 9.079 16.063 23.632 14.53 36.637" class="st2"/><path d="M431.824 439.54c-2.975 10.07-5.938 20.491-12.06 29.286a142 142 0 0 1 7.462-23.85 223 223 0 0 0-8.745 7.591c-1.716 1.572-3.42 3.188-4.709 5.131 3.46-7.596 9.456-13.76 16.086-18.852q-.141.64-.3 1.272 1.141-.268 2.266-.577m78.387 32.194a428 428 0 0 1-4.359 1.905c.729-17.938-5.48-39.318-18.845-51.13a53 53 0 0 1 3.892-.933c11.403 10.14 19.631 27.14 19.312 50.158M427.704 343.34c-20.311 20.298-51.876 28.773-81.486 19.073a151 151 0 0 1 .31-18.079l22.834-16.797a475 475 0 0 1 37.586-10.14c4.797 3.76 8.89 6.814 12.566 11.678a66.4 66.4 0 0 1 8.19 14.265" class="st8"/><path d="M426.968 321.779c-10.23 15.837-45.296 27.714-62.757 28.724-19.892 1.152-36.884-9.857-39.962-16.33-2.25-4.11-2.76-9.84-3.793-14.332-11.133-48.399-8.459-65.36-13.826-85.15-3.908-14.39-8.464-27.816-13.743-41.04 2.104-.972 4.22-1.95 6.474-2.477 6.299-1.458 20.529.006 32.69-2.655 4.164-.91 8.278-2.32 12.548-2.365l6.153.672c2.543-.633 5.225-.045 7.751.672 15.387 4.358 29.546 13.848 38.136 27.341 3.426 5.39 8.696 16.095 10.356 23.494 2.099 9.306-.405 19.134-.167 28.59.217 8.652 3.004 16.786 7.94 23.877 2.583 3.71 5.914 6.791 8.557 10.4 2.56 3.482 6.108 6.847 6.503 11.428.277 3.243-1.094 6.414-2.86 9.15" class="st5"/><path d="M315.763 224.307a46.4 46.4 0 0 1 22.402-4.076c-.317-7.885-4.088-15.57-10.13-20.646z" class="st0"/><path d="M332.95 217.42a28.45 28.45 0 0 1 6.267 15.876c6.989-3.765 12.871-9.29 18.217-15.159 3.543-3.89 6.994-8.16 8.205-13.28 1.155-4.886.049-10.26-2.942-14.291" class="st0"/><path d="M338.72 201.903a220 220 0 0 0 10.126-15.879c5.312.553 10.753 1.142 15.543 3.503 1.038.511 1.271.858 1.468 1.853 1.172 5.925-.428 12.156-3.427 17.398s-7.312 9.608-11.85 13.594c-1.986 1.744-4.042 3.44-6.37 4.69-3.266-3.84-6.88-6.967-11.113-9.702.918-3.705 2.43-7.265 4.38-10.547" class="st5"/><path d="M330.179 303.116c-2.566 3.488-8.04 4.554-12.355 4.598-7.937-38.326-6.341-55.13-11.194-73.024-3.908-14.388-8.464-27.815-13.743-41.04 4.416-2.039 6.35-2.801 11.016-3.054 8.39 16.886 12.927 35.432 17.38 53.778 3.81 15.675 7.624 31.367 10.167 47.292.628 3.899 1.067 8.269-1.271 11.45" class="st0"/><path d="M333.013 217.169c-6.222.776-11.915 3.815-17.282 7.055-2.192-9.44-2.652-23.164 1.17-32.069.524-1.22 1.195-2.333 1.821-3.497.536-.997 1.08-1.237 2.22-1.49 2.981-.66 6.213.162 8.408 2.148 2.108 1.908 3.233 4.664 4.006 7.4 1.087 3.847 1.607 7.83 2.123 11.795" class="st5"/><path d="M396.053 266.485c-7.762 22.982-17.685 46.487-36.475 61.818-5.416 4.418-9.975 6.85-16.908 7.824-6.175.866-12.555.161-18.419-1.954-2.248-4.11-2.76-9.84-3.792-14.332-3.368-14.618-5.677-27.49-7.44-40.002 17.624-21.728 33.11-45.243 51.878-66.005.877-.972 1.8-1.966 2.987-2.52 4.02-1.888 13.221 6.823 16.442 9.211 5.558 4.12 10.906 8.535 15.942 13.283 2.637 10.821-.655 22.127-4.215 32.677" class="st0"/><path d="M348.426 347.232a504 504 0 0 1-16.642-128.376.5.5 0 0 1 1 0 503 503 0 0 0 16.608 128.12.5.5 0 1 1-.966.256m4.844-155.42c-3.182 4.687-6.62 9.245-9.662 14.027-.744 1.165-10.511 11.26-10.511 11.521-4.476-6.136-4.8-14.337-7.885-21.245l3.493-14.464c16.047-11.626 18.506-13.27 21.65-16.42-.023 7.896 1.071 15.804 3.398 23.333.45 1.486.414 1.926-.483 3.248" class="st3"/><path d="M337.495 197.931c-2.69 2.855-5.727 5.609-9.696 6.02-.716-2.671-1.47-5.337-2.587-7.836l3.198-13.237 20.495-9.184c.419 9.332-5.002 17.457-11.41 24.237" class="st2"/><path d="M351.168 166.43c-.02-.003-.844 3.59-.924 3.918-.81 3.32-1.347 6.682-2.713 9.829-6.309 14.542-21.705 20.894-32.262 16.113-3.93-1.78-7.572-4.73-9.204-8.794-5.173-12.881 1.538-27.276 3.269-39.004 1.266-8.577 1.23-14.866 5.253-19.57 1.13-1.321 2.58-2.43 4.265-2.862.895-.229 1.829-.261 2.753-.26 3.87.009 7.397.814 11.115 1.698 3.349.796 6.019 1.741 8.316 4.504 2.09 2.515 3.292 5.672 3.922 8.88.782 3.979.763 7.974.985 16.041.025.911-.008 1.952.29 2.826.43 1.269.898.511 1.019-.466.382-3.098 1.318-6.81 3.197-9.352 6.432-8.702 16.728 3.38 11.06 12.012-2.182 3.325-6.422 5.164-10.34 4.487" class="st3"/><path d="m291.857 161.215 43.74 147.549-147.657 63.09-46.32-159.679z" class="st5"/><path d="M294.355 301.137c-23.355-72.465-22.422-68.408-21.951-68.56a.25.25 0 0 1 .314.16c23.355 72.465 22.423 68.408 21.952 68.56-.026.009-.273-.031-.315-.16m-21.413 9.311c-21.116-73.69-20.781-71.228-20.306-71.365a.247.247 0 0 1 .31.171c21.115 73.69 20.78 71.228 20.306 71.364-.024.007-.27-.036-.31-.17m-19.218 7.679c-19.354-74.173-19.093-71.776-18.618-71.901a.25.25 0 0 1 .305.178c19.354 74.172 19.093 71.776 18.618 71.901-.021.006-.27-.042-.305-.178m-18.258 7.239c-20.597-74.156-20.332-71.83-19.846-71.967.477-.138-1.112-4.471 20.327 71.832.089.32-.393.452-.481.135m-18.384 7.285c-22.679-76.393-21.7-71.835-21.224-71.977a.253.253 0 0 1 .311.168c22.68 76.393 21.7 71.835 21.224 71.978-.023.006-.271-.036-.31-.169" class="st7"/><path d="M191.31 322.369c-.182-.458-4.685 1.71 119.725-47.649.305-.123.494.343.184.465L191.634 322.51a.25.25 0 0 1-.325-.141" class="st7"/><ellipse cx="181.033" cy="217.24" class="st2" rx="6.01" ry="6.482" transform="rotate(-17.997 181.033 217.24)"/><ellipse cx="222.346" cy="204.538" class="st2" rx="6.01" ry="6.482" transform="rotate(-17.997 222.346 204.538)"/><ellipse cx="262.792" cy="189.507" class="st2" rx="6.01" ry="6.482" transform="rotate(-17.997 262.792 189.507)"/><path d="m141.62 212.175-10.474 3.062 39.837 154.5 16.957 2.117z" class="st0"/><path d="M426.918 385.186a57.77 57.77 0 0 1-26.644-27.716c-.546-1.204 1.276-2.032 1.821-.825a55.77 55.77 0 0 0 25.72 26.753c1.192.598.278 2.373-.897 1.788" class="st8"/><path d="M201.864 502.292c-31.562 43.34-29.493 40.724-30.184 41.079-.45.227-.972.233-1.477.221a59.04 59.04 0 0 1-26.742-7.124l8.462-18.146c8.474-10.012 13.436-22.336 18.313-34.627 17.724 9.412 25.165 12.964 31.628 18.597" class="st3"/><path d="M181.763 529.9c-9.915 13.634-9.466 13.154-10.083 13.47-.45.228-.972.234-1.477.222a59.04 59.04 0 0 1-26.742-7.124l8.462-18.146a68 68 0 0 0 4.354-5.758c1.16 2.249 2.981 4.17 4.864 5.902 5.929 5.475 12.831 9.733 20.622 11.433" class="st10"/><path d="M201.864 502.292c-3.526 4.841-7.046 9.678-10.572 14.52a177.6 177.6 0 0 1-28.141-16.442c2.615-5.436 4.864-11.077 7.085-16.675 17.724 9.412 25.165 12.964 31.628 18.597m-25.092 34.854c-.649 0-7.032 20.238-16.225 36.109-.567.966-1.144 1.949-1.944 2.738-12.191-6.633-17.843-9.51-23.26-13.427-.122-.089-.256-.189-.317-.328-.125-.28-.082.063 1.45-8.928l-4.692-1.616c-.347-.125-.496-.11-.778.172-3.627 3.627-3.412 3.426-4.003 3.848-.278.2-1.077.994-1.405.994-8.38-4.897-22.42-14.189-29.668-21.695-5.953-6.163-11.644-12.615-17.164-19.179-.374-.448-.355-.634-.122-1.037 2.184-3.747 6.435-8.752 10.784-9.068 4.142-.306 7.851 2.076 11.36 3.914 7.662 4 12.598 7.572 16.131 8.701 4.997 1.605 10.39.356 15.559-.533 3.831-.666 7.69-1.121 11.555-1.516 5.71-.564 7.908-1.192 8.912.817.51 1.038.278 2.27.172 3.426-.629 6.664 3.461 12.984 9.95 15.053 3.197 1.026 10.343 1.439 13.705 1.555" class="st8"/><path d="M176.772 537.146c-.358 0-5.318 13.968-10.267 24.576-7.652-2.047-15.526-5.192-22.805-8.246-3.798-1.588-7.374-3.448-11.178-4.975-20.042-8.02-39.078-19.663-51.362-37.308 2.232-2.716 5.214-5.242 8.268-5.464 4.142-.306 7.851 2.076 11.36 3.914 7.662 4 12.598 7.572 16.131 8.701 4.997 1.605 10.39.356 15.559-.533 5.82-1.012 15.566-1.966 17.463-2.07 1.21-.073 2.399.16 3.004 1.37.51 1.039.278 2.272.172 3.427-.62 6.558 3.383 12.959 9.95 15.053 3.197 1.026 10.343 1.439 13.705 1.555" class="st1052"/><path d="M153.933 526.812c-5.537 6.386-14.305 7.005-22.56 6.847-3.296-.059-8.435-.295-11.028-2.632a5.65 5.65 0 0 1-1.81-4.542c.119-1.652.955-2.223 2.504-2.743 8.851-2.96 18.64-2.494 27.27-6.03a7.6 7.6 0 0 0-1.078-1.75c.905-.089 1.81-.172 2.71-.222 1.21-.072 2.399.161 3.004 1.372.51 1.038.278 2.27.172 3.426-.2 2.115.089 4.275.816 6.274" class="st2"/><path d="M196.656 341.41c-.377-.183 1.126 4.124-29.91-99.644a.5.5 0 0 1 .313-.614c.1-.036 121.007-43.007 121.298-42.861.25.125-1.922-7.156 28.829 95.012a.5.5 0 0 1-.294.61c-12.967 5.14-107.059 42.447-119.833 47.512a.5.5 0 0 1-.403-.016m-28.815-99.475 29.357 98.359 118.898-47.141-28.291-93.77z" class="st7"/><path d="m186.43 235.063 5.214 17.71-18.702 6.987-5.375-18.007zm20.653-7.527 5.215 17.71-18.702 6.987-5.375-18.007zm19.797-6.733 5.215 17.71-18.702 6.988-5.375-18.007zm19.69-7.01 5.215 17.71-18.702 6.987-5.375-18.007zm19.439-7.056 5.215 17.71-18.703 6.988-5.374-18.007zm20.381-7.009 5.215 17.71-18.702 6.988-5.375-18.007zM175.2 268.284l-.031-.087a.25.25 0 0 1 .149-.321c125.033-45.629 120.244-44.26 120.414-43.797s4.749-1.595-120.06 44.2a.25.25 0 0 1-.471.005m4.321 15.871c126.624-44.628 121.326-43.134 121.492-42.672.162.46 8.259-2.78-121.325 43.143-.313.11-.478-.361-.167-.471m5.658 18.836c125.85-46.763 120.665-45.213 120.836-44.753.173.463 4.72-1.616-120.66 45.222-.31.116-.486-.353-.176-.469" class="st7"/><ellipse cx="334.567" cy="152.97" class="st8" rx="2.474" ry="3.282"/><ellipse cx="316.666" cy="150.828" class="st8" rx="2.474" ry="3.282"/><path d="M337.688 144.421c1.24.531 2.192 1.286 1.999.464-.848-3.596-5.682-5.348-8.9-1.757-.745.832-.581 1.614.504 1.363 2.605-.602 3.701-1.225 6.397-.07m-23.967-2.021c-1.57.379-2.012.778-2.098.279-.087-.51.538-1.179.856-1.519 2.054-2.191 6.084-2.334 8.262 1.118.596.944.303 1.688-.725 1.259-2.468-1.03-3.444-1.826-6.295-1.137" class="st8"/><path d="M330.253 175.256c.023.878-.23 1.76-.493 2.61-.907 2.94-2.144 5.84-4.732 7.488-4.503 2.919-8.867-1.058-10.105-6.14-.347-1.394-.221-2.737-.15-3.99.138-1.369.45-2.756 1.377-3.73.142-.15.272-.203.498-.135 3.087.741 6.79 1.214 10.093 1.273.695.003 1.823-.25 2.462.122.731.411 1.062 1.632 1.05 2.502" style="fill:#901135"/><path d="M330.253 175.256c.023.878-.23 1.76-.493 2.61-.907 2.94-2.144 5.84-4.732 7.488-3.07-1.278-4.726-4.312-5.59-7.535-.236-.898-.396-1.967.208-2.678l1.52-2.956c1.859.26 3.716.414 5.575.447.695.003 1.823-.25 2.462.122.731.411 1.062 1.632 1.05 2.502" style="fill:#18151f"/><path d="M314.77 175.226c4.287 2.978 9.694 1.894 14.617.325.287-.097.586-.19.866-.3.045-.791-.318-2.088-1.053-2.501-.634-.37-1.763-.116-2.457-.125-3.503-.058-7.143-.551-10.1-1.265-.235-.06-.344-.016-.492.136-.926.97-1.242 2.36-1.38 3.73" style="fill:#fefefd"/><path d="M317.854 162.879c-.159-.51-.029-1.151.435-1.416 1.043-.596 2.145.955 3.355 1.264 1.03.263 2.091-.241 3.154-.283.446-.018.98.114 1.125.536.233.683-.727 1.68-1.327 2.179-2.074 1.727-3.875 1.811-5.537-.33-.42-.54-1.005-1.304-1.205-1.95m40.28-6.455c-.216.196-.513.343-.795.268-.732-.196-.904-1.784-1.898-2.004-.713-.159-1.338.51-1.651 1.17a5.48 5.48 0 0 0 .062 4.748c-.145-.286-.764-.592-1.003-.841-1.016-1.057-1.477-2.139-1.372-4.009.31-5.517 5.343-6.729 7.131-4.02.688 1.041.574 3.741-.474 4.688" class="st2"/><path d="M310.103 318.135c-23.094-3.977-26.48-5.578-35.987-7.567l-1.177-.472c-7.49-3.27-13.726-2.605-21.49-3.07-.61-.306-1.215-.44-1.876-.6-2.321-.861-4.531-2.033-6.619-3.348-.388-.44-.772-.75-1.221-1.122-3.43-3.893-4.645-8.487-4.851-13.546-1.965.91-4.079 1.844-6.217 1.502a3.6 3.6 0 0 1-1.203-.394c-2.48-1.404-1.85-5.946-.25-8.352.34-.51 3.739-4.43 4.33-4.014-1.593-1.122-2.865-2.471-3.936-4.11-.45-.694-.761-1.543-.484-2.37.435-1.295 1.485-1.843 2.707-2.203 1.688-.496 3.272-.694 5.036-.689 1.926.007 3.852.09 5.77.25-6.952-1.195-7.179-1.19-7.881-1.495-2.078-.901-2.01-3.394.644-4.678 2.025-.98 4.386-.894 6.627-.704 8.006.682 10.953 3.395 14.45 7.508-.428-1.727-1.343-5.186.364-6.578.81-.66 2.066-.47 2.906.15s1.363 1.571 1.859 2.491c1.886 3.499 4.158 7.165 5.29 11 1.13 3.828 2.144 7.709 2.952 11.639 2.393.123 9.634 1.122 11.378-.439l.077.267c1.482.525 3.39.215 4.91.086 7.14-.607 20.81-3.29 27.983-4.628 9.27-1.728 18.648-2.14 27.952-3.697 3.679 9.858 7.018 20.109 5.626 30.671-.347 2.637-.821 7.618-3.658 8.85-1.091.474-2.318.496-3.507.509-12.19.132-23.101.428-30.504-.847" class="st3"/><path d="M382.6 278.704c-7.477 12.471-15.991 24.437-26.484 34.569-3.44 3.321-7.674 6.64-12.434 6.173 3.694-15.13-4.702-33.35-25.074-42.398 24.786-25.887 32.188-41.843 44.226-58.042 4.222-5.68 9.174-11.707 16.137-12.973 8.143-1.48 18.114 3.82 22.38 17.78.78 2.552 1.321 5.19 1.38 7.857.318 14.29-13.425 35.851-20.13 47.034" class="st5"/><path d="M164.773 291.236c.866.034 1.755.072 2.57.372.817.294 1.572.906 1.817 1.738.519 1.746-1.383 4.357-2.771 5.58-1.704 1.51-3.934 2.409-6.075 3.171-1.782.645-3.604 1.238-5.492 1.455-6.995.794-13.128-3.8-14.053-10.156-.078-.533-.122-1.094-.372-1.577-.356-.694-1.072-1.116-1.633-1.66-1.294-1.244-1.754-3.282-1.122-4.964.156-.405.367-.8.406-1.233.12-1.252-1.474-2.885-1.966-4.908-.283-1.16-.128-2.521.744-3.349.267-.255.594-.45.828-.744.855-1.093-.1-2.699.15-4.064.2-1.083 1.127-1.866 2.02-2.505a31.9 31.9 0 0 1 9.929-4.714c3.117-.865 6.812-1.732 9.967-1.094 2.043.428 4.048 2.116 3.931 4.204-.134 2.477-3.535 5.07-5.813 6.18a16.5 16.5 0 0 1 6.502-.939c.794.05 1.61.161 2.293.572 1.694 1.022 1.888 3.56.927 5.292-.955 1.732-2.715 2.849-4.403 3.881a8.38 8.38 0 0 1 5.403-.183c1.122.344 2.288 1.1 2.426 2.265.073.595-.144 1.19-.4 1.728a11.57 11.57 0 0 1-5.813 5.652m195.579 15.404c.328-1.036.247-2.2.025-3.628-2.865-18.375-18.334-32.26-33.107-34.118-.645-.082-.547-1.061.125-.992 6.513.818 12.927 3.732 18.55 8.426 8.486 7.087 13.819 16.26 15.42 26.53.244 1.568.328 2.862-.06 4.085-.2.63-1.153.329-.953-.302" class="st3"/><path d="M182.6 220.103c-1.416.261-2.933-.708-3.194-2.282a2.777 2.777 0 0 1 2.283-3.192c6.792-1.14 8.552-14.643 1.87-21.179-5.245-5.133-11.12-1.157-11.81 6.525a2.777 2.777 0 1 1-5.53-.494c1.16-12.86 12.883-18.16 21.222-10 2.87 2.803 4.853 6.79 5.592 11.227 1.582 9.472-3.099 18.173-10.434 19.395m40.046-12.715c-1.432.264-2.931-.726-3.192-2.283a2.783 2.783 0 0 1 2.282-3.198c1.926-.316 3.603-1.732 4.736-3.981 4.193-8.332-1.826-20.566-8.634-19.424-2.81.467-5.109 3.354-5.853 7.358a2.774 2.774 0 0 1-3.232 2.226 2.78 2.78 0 0 1-2.226-3.237c1.325-7.154 5.81-11.065 10.394-11.827 7.33-1.222 14.582 5.492 16.159 14.97 1.39 8.34-2.103 17.926-10.434 19.396m42.423-15.958c-.572.204-1.68.51-2.288.51-1.332 0-2.51-.96-2.737-2.32a2.777 2.777 0 0 1 2.282-3.194c6.833-1.142 8.529-14.666 1.871-21.178-5.65-5.528-11.706-.43-11.872 7.635a2.778 2.778 0 0 1-5.553-.111c.277-13.52 12.415-20.194 21.312-11.488 8.975 8.783 7.411 26.484-3.015 30.145" class="st4"/><path d="M182.6 220.103c-.348.064-.78.054-1.183-.06 1.356-1.809 3.643-3.677 5.17-5.909 4.178-6.121 3.37-16.81-1.461-21.872-2.53-2.663-6.747-4.653-12.91-4.536 7.915-5.795 18.772.698 20.817 12.982 1.582 9.472-3.099 18.173-10.434 19.395m40.991-12.921c.347-2.303 1.806-4.19 3.031-6.186 3.332-5.42 4.914-12.432 2.166-18.168-3.042-6.34-10.551-9.59-17.63-6.936 7.842-7.255 19.783-.757 21.922 12.1 1.357 8.14-1.95 17.25-9.49 19.19m41.479-15.752c-.749-3.402 2.008-6.535 3.32-9.263 4.559-9.519-2.669-21.84-9.095-22.594-2.637-.31-5.37.989-7.957 1.26 4.371-4.456 11.301-4.878 16.747.45 8.975 8.784 7.411 26.485-3.015 30.146m-102.836 46.659 130.6-46.193c1.247-.441 1.913 1.445.666 1.886L162.9 239.974c-1.247.441-1.914-1.445-.667-1.886" class="st7"/><circle cx="333.212" cy="150.828" r="1.119" class="st75"/><circle cx="315.311" cy="148.569" r="1.119" class="st75"/><path d="M164.773 291.236c.866.034 1.755.072 2.57.372.817.294 1.572.906 1.817 1.738.519 1.746-1.383 4.357-2.771 5.58a11.5 11.5 0 0 1-2.06 1.439c.605-.722 1.194-1.455 1.688-2.238.855-1.338 1.388-3.243.31-4.414-.743-.811-1.965-.928-3.064-.944a37.4 37.4 0 0 0-6.869.533c4.655-1.422 9.898-3.116 12.066-7.824.912-1.963-.475-2.763-2.576-2.504-4.176.516-8.257 1.61-12.322 2.698a27.6 27.6 0 0 0 8.69-4.903c4.094-3.41 3.347-6.292.677-6.946-.888-.21-1.81-.133-2.72-.034a86.6 86.6 0 0 0-13.46 2.538c4.348-2.563 10.864-4.625 13.171-9.99.222-.52.405-1.082.355-1.648-.078-1.003-.911-1.902-1.727-2.271 3.481.288 5.208 2.49 5.103 4.37-.134 2.477-3.535 5.07-5.813 6.18a16.5 16.5 0 0 1 6.502-.939c.794.05 1.61.161 2.293.572 1.694 1.022 1.888 3.56.927 5.292-.955 1.732-2.715 2.849-4.403 3.881a8.38 8.38 0 0 1 5.403-.183c1.122.344 2.288 1.1 2.426 2.265.073.595-.144 1.19-.4 1.728a11.57 11.57 0 0 1-5.813 5.652" class="st2"/><path d="M284.528 572.003c2.82-4.03 4.679-8.432 6.815-13.77 10.117-25.27 11.626-33.366 13.98-57.577.064-.659 1.06-.562.996.096-2.355 24.212-3.862 32.41-14.047 57.852-1.7 4.245-3.815 9.529-6.925 13.972-.378.542-1.2-.03-.82-.573" class="st7"/><path d="M284.973 571.77c20.325-27.116 48.58-52.6 82.28-56.265.654-.076.768.923.108.994-33.414 3.635-61.453 29.01-81.588 55.871-.396.53-1.198-.07-.8-.6" class="st7"/><path d="M358.02 562.804c-18.99-8.705-41.334-10.18-61.303-4.05-.638.191-.923-.762-.294-.955 20.202-6.203 42.805-4.71 62.015 4.096.6.275.187 1.183-.417.909m144.785-134.751c7.159-47.21 8.745-95.478 14.952-142.83.084-.659 1.077-.523.99.13-6.194 47.274-7.798 95.667-14.954 142.85-.098.653-1.088.507-.988-.15" class="st7"/><path d="M506.808 399.497a148 148 0 0 1-15.433-13.596c-.465-.47.247-1.174.712-.702a147 147 0 0 0 14.96 13.221 560 560 0 0 0 18.477-21.894c.413-.516 1.195.109.78.625a560 560 0 0 1-18.818 22.281.5.5 0 0 1-.678.065m.432-25.829a163 163 0 0 1-18.352-15.687c-.47-.466.235-1.176.704-.71a162 162 0 0 0 18.24 15.591c.367.273.377.234.624.066 8.231-5.579 13.531-14.68 18.208-22.71.334-.572 1.197-.068.865.503-4.731 8.123-10.092 17.329-18.511 23.036-.619.417-1.065.436-1.778-.089m6.423-35.34a212 212 0 0 1-21.97-21.088c-.442-.49.298-1.163.743-.67a211 211 0 0 0 21.481 20.669 201 201 0 0 0 14.132-19.353c.356-.558 1.198-.017.841.54a202 202 0 0 1-14.523 19.837.5.5 0 0 1-.704.065m1.904-32.627c-5.766-4.647-8.814-9.15-14.162-14.184-.482-.453.204-1.18.686-.728 5.205 4.9 8.279 9.337 13.675 13.784 4.22-6.368 10.724-12.55 14.788-18.863.36-.556 1.199-.014.84.541-1.36 2.113-15.334 19.538-15.434 19.554-.026.005-.278-.011-.393-.104M160.327 511.99c-13.836-38.607-20.924-79.623-27.78-119.288-2.706-15.657-5.504-31.848-6.142-48.027-.025-.662.974-.698 1-.039.634 16.113 3.427 32.27 6.127 47.896 6.849 39.623 13.93 80.595 27.736 119.12a.5.5 0 1 1-.941.338" class="st7"/><path d="M133.886 397.302c.048-10.063 2.043-20.324 5.769-29.671.245-.616 1.173-.243.928.37-3.68 9.233-5.65 19.366-5.697 29.305-.003.667-1.003.66-1-.004m2.086 8.133c-6.085-6.4-12.55-13.116-21.304-15.144-.646-.15-.418-1.124.225-.975 9 2.086 15.626 8.933 21.804 15.43.456.48-.27 1.168-.725.69m6.194 41.201c.866-13.83 4.835-27.567 11.475-39.729.32-.581 1.194-.1.878.48-6.571 12.034-10.497 25.627-11.355 39.311-.041.658-1.04.6-.998-.062m3.338 9.96a115.3 115.3 0 0 0-26.175-15.928c-1.74-.763-3.593-1.489-5.407-1.298-.65.077-.77-.923-.106-.994 2.06-.22 4.051.56 5.915 1.376a116.3 116.3 0 0 1 26.402 16.067c.515.415-.115 1.193-.629.777m4.711 25.014a158.6 158.6 0 0 1 17.737-46.597c.326-.572 1.198-.076.867.498a157.6 157.6 0 0 0-17.626 46.304c-.135.646-1.114.444-.978-.205" class="st7"/></g></svg>